<svg xmlns="http://www.w3.org/2000/svg" xmlns:xlink="http://www.w3.org/1999/xlink" width="1140" height="250" data-name="Layer 1"><defs><linearGradient id="a" x1="511.07" x2="511.07" y1="170.05" y2="209.52" gradientTransform="matrix(-1 0 0 1 1060.92 0)" gradientUnits="userSpaceOnUse"><stop offset="0" stop-color="#dead0a"/><stop offset="1" stop-color="#eb0037"/></linearGradient><linearGradient xlink:href="#a" id="f" x1="528.93" x2="528.93" y1="141.34" y2="180.5"/><linearGradient xlink:href="#a" id="g" x1="496.65" x2="496.65" y1="151.08" y2="190.42"/><linearGradient xlink:href="#a" id="h" x1="510.9" x2="510.9" y1="123.46" y2="162.51"/><linearGradient xlink:href="#a" id="i" x1="543.14" x2="543.14" y1="113.89" y2="152.76"/><linearGradient xlink:href="#a" id="j" x1="561.21" x2="561.21" y1="131.61" y2="170.58"/><linearGradient xlink:href="#a" id="k" x1="543.38" x2="543.38" y1="160.16" y2="199.44"/><linearGradient xlink:href="#a" id="l" x1="445.57" x2="445.57" y1="171.54" y2="199.32"/><linearGradient xlink:href="#a" id="m" x1="452.72" x2="452.72" y1="143.06" y2="176.98"/><linearGradient xlink:href="#a" id="n" x1="452.76" x2="452.76" y1="190.32" y2="224.47"/><linearGradient xlink:href="#a" id="o" x1="478.65" x2="478.65" y1="133.03" y2="172.27"/><linearGradient xlink:href="#a" id="p" x1="580.41" x2="580.41" y1="130.73" y2="158.1"/><linearGradient xlink:href="#a" id="q" x1="478.75" x2="478.75" y1="179.95" y2="219.6"/><linearGradient xlink:href="#a" id="r" x1="464.37" x2="464.37" y1="160.81" y2="200.34"/><linearGradient xlink:href="#a" id="s" x1="496.79" x2="496.79" y1="197.81" y2="237.57"/><linearGradient xlink:href="#a" id="t" x1="464.44" x2="464.44" y1="207.87" y2="247.82"/><linearGradient xlink:href="#a" id="u" x1="445.6" x2="445.6" y1="218.96" y2="246.77"/><linearGradient xlink:href="#a" id="v" x1="529.15" x2="529.15" y1="187.75" y2="227.33"/><linearGradient xlink:href="#a" id="w" x1="580.74" x2="580.74" y1="176.79" y2="204.19"/><linearGradient xlink:href="#a" id="x" x1="571.29" x2="571.29" y1="107.05" y2="142.21"/><linearGradient xlink:href="#a" id="y" x1="445.54" x2="445.54" y1="125.36" y2="153.12"/><linearGradient xlink:href="#a" id="z" x1="561.5" x2="561.5" y1="177.7" y2="217.09"/><linearGradient xlink:href="#a" id="A" x1="560.94" x2="560.94" y1="86.74" y2="125.3"/><linearGradient xlink:href="#a" id="B" x1="580.1" x2="580.1" y1="85.89" y2="113.22"/><linearGradient xlink:href="#a" id="C" x1="571.59" x2="571.59" y1="153.08" y2="188.54"/><linearGradient xlink:href="#a" id="D" x1="464.31" x2="464.31" y1="114.98" y2="154.1"/><linearGradient xlink:href="#a" id="E" x1="528.73" x2="528.73" y1="96.15" y2="134.9"/><linearGradient xlink:href="#a" id="F" x1="496.52" x2="496.52" y1="105.57" y2="144.5"/><linearGradient xlink:href="#a" id="G" x1="434.49" x2="434.49" y1="118.43" y2="146.96"/><linearGradient xlink:href="#a" id="H" x1="434.49" x2="434.49" y1="140.85" y2="169.39"/><linearGradient xlink:href="#a" id="I" x1="434.49" x2="434.49" y1="164.45" y2="192.99"/><linearGradient xlink:href="#a" id="J" x1="434.49" x2="434.49" y1="188.05" y2="216.58"/><linearGradient xlink:href="#a" id="K" x1="434.79" x2="434.79" y1="211.15" y2="241.04"/><linearGradient id="L" x1="208.77" x2="208.77" y1="195.38" y2="17.63" gradientTransform="matrix(-1 0 0 1 358.23 0)" gradientUnits="userSpaceOnUse"><stop offset="0" stop-color="#2a59be"/><stop offset=".54" stop-color="#02adef"/><stop offset=".6" stop-color="#06aeef"/><stop offset=".65" stop-color="#12b2f0"/><stop offset=".71" stop-color="#27b9f1"/><stop offset=".77" stop-color="#44c2f3"/><stop offset=".83" stop-color="#6acef5"/><stop offset=".89" stop-color="#98ddf8"/><stop offset=".95" stop-color="#cdeffb"/><stop offset="1" stop-color="#fff"/></linearGradient><linearGradient id="M" x1="211.08" x2="211.08" y1="196.41" y2="20.54" gradientTransform="matrix(-1 0 0 1 358.23 0)" gradientUnits="userSpaceOnUse"><stop offset="0" stop-color="#2a59be"/><stop offset=".44" stop-color="#099ee7"/><stop offset=".5" stop-color="#07a0e8"/><stop offset=".53" stop-color="#03a8ec"/><stop offset=".54" stop-color="#02adef"/><stop offset=".6" stop-color="#06aeef"/><stop offset=".65" stop-color="#12b2f0"/><stop offset=".71" stop-color="#27b9f1"/><stop offset=".77" stop-color="#44c2f3"/><stop offset=".83" stop-color="#6acef5"/><stop offset=".89" stop-color="#98ddf8"/><stop offset=".95" stop-color="#cdeffb"/><stop offset="1" stop-color="#fff"/></linearGradient><linearGradient id="N" x1="213.38" x2="213.38" y1="197.44" y2="23.44" gradientTransform="matrix(-1 0 0 1 358.23 0)" gradientUnits="userSpaceOnUse"><stop offset="0" stop-color="#2a59be"/><stop offset=".44" stop-color="#09a0e8"/><stop offset=".5" stop-color="#07a2e9"/><stop offset=".54" stop-color="#03aaed"/><stop offset=".54" stop-color="#02adef"/><stop offset=".6" stop-color="#06aeef"/><stop offset=".65" stop-color="#12b2f0"/><stop offset=".71" stop-color="#27b9f1"/><stop offset=".77" stop-color="#44c2f3"/><stop offset=".83" stop-color="#6acef5"/><stop offset=".89" stop-color="#98ddf8"/><stop offset=".95" stop-color="#cdeffb"/><stop offset="1" stop-color="#fff"/></linearGradient><linearGradient id="O" x1="215.69" x2="215.69" y1="198.46" y2="26.35" gradientTransform="matrix(-1 0 0 1 358.23 0)" gradientUnits="userSpaceOnUse"><stop offset="0" stop-color="#2a59be"/><stop offset=".44" stop-color="#08a1e8"/><stop offset=".5" stop-color="#06a3e9"/><stop offset=".54" stop-color="#02abee"/><stop offset=".54" stop-color="#02adef"/><stop offset=".6" stop-color="#06aeef"/><stop offset=".65" stop-color="#12b2f0"/><stop offset=".71" stop-color="#27b9f1"/><stop offset=".77" stop-color="#44c2f3"/><stop offset=".83" stop-color="#6acef5"/><stop offset=".89" stop-color="#98ddf8"/><stop offset=".95" stop-color="#cdeffb"/><stop offset="1" stop-color="#fff"/></linearGradient><linearGradient id="P" x1="217.99" x2="217.99" y1="199.49" y2="29.26" gradientTransform="matrix(-1 0 0 1 358.23 0)" gradientUnits="userSpaceOnUse"><stop offset="0" stop-color="#2a59be"/><stop offset=".44" stop-color="#07a3e9"/><stop offset=".51" stop-color="#05a5ea"/><stop offset=".54" stop-color="#02adef"/><stop offset=".6" stop-color="#06aeef"/><stop offset=".65" stop-color="#12b2f0"/><stop offset=".71" stop-color="#27b9f1"/><stop offset=".77" stop-color="#44c2f3"/><stop offset=".83" stop-color="#6acef5"/><stop offset=".89" stop-color="#98ddf8"/><stop offset=".95" stop-color="#cdeffb"/><stop offset="1" stop-color="#fff"/></linearGradient><linearGradient id="Q" x1="220.3" x2="220.3" y1="200.52" y2="32.16" gradientTransform="matrix(-1 0 0 1 358.23 0)" gradientUnits="userSpaceOnUse"><stop offset="0" stop-color="#2a59be"/><stop offset=".44" stop-color="#06a4ea"/><stop offset=".51" stop-color="#04a6eb"/><stop offset=".54" stop-color="#02adef"/><stop offset=".6" stop-color="#06aeef"/><stop offset=".65" stop-color="#12b2f0"/><stop offset=".71" stop-color="#27b9f1"/><stop offset=".77" stop-color="#44c2f3"/><stop offset=".83" stop-color="#6acef5"/><stop offset=".89" stop-color="#98ddf8"/><stop offset=".95" stop-color="#cdeffb"/><stop offset="1" stop-color="#fff"/></linearGradient><linearGradient id="R" x1="222.6" x2="222.6" y1="201.55" y2="35.07" gradientTransform="matrix(-1 0 0 1 358.23 0)" gradientUnits="userSpaceOnUse"><stop offset="0" stop-color="#2a59be"/><stop offset=".44" stop-color="#06a6eb"/><stop offset=".51" stop-color="#04a8ec"/><stop offset=".54" stop-color="#03adef"/><stop offset=".6" stop-color="#07aeef"/><stop offset=".65" stop-color="#13b2f0"/><stop offset=".71" stop-color="#28b9f1"/><stop offset=".77" stop-color="#45c2f3"/><stop offset=".83" stop-color="#6bcef5"/><stop offset=".89" stop-color="#99ddf8"/><stop offset=".95" stop-color="#ceeffb"/><stop offset="1" stop-color="#fff"/></linearGradient><linearGradient id="S" x1="224.91" x2="224.91" y1="202.58" y2="37.98" gradientTransform="matrix(-1 0 0 1 358.23 0)" gradientUnits="userSpaceOnUse"><stop offset="0" stop-color="#2a59be"/><stop offset=".44" stop-color="#05a7ec"/><stop offset=".52" stop-color="#04a9ed"/><stop offset=".54" stop-color="#03adef"/><stop offset=".6" stop-color="#07aeef"/><stop offset=".65" stop-color="#13b2f0"/><stop offset=".71" stop-color="#28b9f1"/><stop offset=".77" stop-color="#45c2f3"/><stop offset=".83" stop-color="#6bcef5"/><stop offset=".89" stop-color="#99ddf8"/><stop offset=".95" stop-color="#ceeffb"/><stop offset="1" stop-color="#fff"/></linearGradient><linearGradient id="T" x1="227.21" x2="227.21" y1="203.6" y2="40.88" gradientTransform="matrix(-1 0 0 1 358.23 0)" gradientUnits="userSpaceOnUse"><stop offset="0" stop-color="#2a59be"/><stop offset=".44" stop-color="#04a9ed"/><stop offset=".53" stop-color="#03abee"/><stop offset=".54" stop-color="#03adef"/><stop offset=".6" stop-color="#07aeef"/><stop offset=".65" stop-color="#13b2f0"/><stop offset=".71" stop-color="#28b9f1"/><stop offset=".77" stop-color="#45c2f3"/><stop offset=".83" stop-color="#6bcef5"/><stop offset=".89" stop-color="#99ddf8"/><stop offset=".95" stop-color="#ceeffb"/><stop offset="1" stop-color="#fff"/></linearGradient><linearGradient id="U" x1="229.52" x2="229.52" y1="204.63" y2="43.79" gradientTransform="matrix(-1 0 0 1 358.23 0)" gradientUnits="userSpaceOnUse"><stop offset="0" stop-color="#2a59be"/><stop offset=".44" stop-color="#03aaed"/><stop offset=".54" stop-color="#03acee"/><stop offset=".54" stop-color="#03adef"/><stop offset=".6" stop-color="#07aeef"/><stop offset=".65" stop-color="#13b2f0"/><stop offset=".71" stop-color="#28b9f1"/><stop offset=".77" stop-color="#45c2f3"/><stop offset=".83" stop-color="#6bcef5"/><stop offset=".89" stop-color="#99ddf8"/><stop offset=".95" stop-color="#ceeffb"/><stop offset="1" stop-color="#fff"/></linearGradient><linearGradient id="V" x1="231.82" x2="231.82" y1="205.66" y2="46.7" gradientTransform="matrix(-1 0 0 1 358.23 0)" gradientUnits="userSpaceOnUse"><stop offset="0" stop-color="#2a59be"/><stop offset=".44" stop-color="#03acee"/><stop offset=".54" stop-color="#03adef"/><stop offset=".6" stop-color="#07aeef"/><stop offset=".65" stop-color="#13b2f0"/><stop offset=".71" stop-color="#28b9f1"/><stop offset=".77" stop-color="#45c2f3"/><stop offset=".83" stop-color="#6bcef5"/><stop offset=".89" stop-color="#99ddf8"/><stop offset=".95" stop-color="#ceeffb"/><stop offset="1" stop-color="#fff"/></linearGradient><linearGradient id="W" x1="234.13" x2="234.13" y1="206.69" y2="49.6" gradientTransform="matrix(-1 0 0 1 358.23 0)" gradientUnits="userSpaceOnUse"><stop offset="0" stop-color="#2a59be"/><stop offset=".44" stop-color="#02adef"/><stop offset=".57" stop-color="#04adef"/><stop offset=".64" stop-color="#0cb0ef"/><stop offset=".71" stop-color="#1bb5f0"/><stop offset=".76" stop-color="#2fbbf1"/><stop offset=".81" stop-color="#4ac4f3"/><stop offset=".86" stop-color="#6acef5"/><stop offset=".91" stop-color="#90dbf8"/><stop offset=".95" stop-color="#bde9fa"/><stop offset=".99" stop-color="#eef9fd"/><stop offset="1" stop-color="#fff"/></linearGradient><linearGradient id="X" x1="334.07" x2="92.65" y1="102.02" y2="154.04" gradientTransform="matrix(-1 0 0 1 358.23 0)" gradientUnits="userSpaceOnUse"><stop offset="0" stop-color="#02adef"/><stop offset=".09" stop-color="#0cb0ef"/><stop offset=".23" stop-color="#27b9f1"/><stop offset=".43" stop-color="#54c7f4"/><stop offset=".65" stop-color="#93dcf8"/><stop offset=".91" stop-color="#e1f5fd"/><stop offset="1" stop-color="#fff"/></linearGradient><linearGradient id="ab" x1="891.25" x2="1036.82" y1="94.62" y2="94.62" gradientUnits="userSpaceOnUse"><stop offset="0" stop-color="#a3ea2a"/><stop offset=".51" stop-color="#74a517"/><stop offset=".99" stop-color="#a3ea2a"/></linearGradient><linearGradient id="ac" x1="911.76" x2="1263.21" y1="46.45" y2="44.98" gradientUnits="userSpaceOnUse"><stop offset="0" stop-color="#9da8c4"/><stop offset=".17" stop-color="#51586b"/><stop offset=".36" stop-color="#828ca5"/></linearGradient><linearGradient id="ad" x1="966.83" x2="958.01" y1="197.43" y2="-199.63" gradientUnits="userSpaceOnUse"><stop offset="0" stop-color="#7c89a5"/><stop offset=".57" stop-color="#4f5669"/><stop offset="1" stop-color="#444b5c"/></linearGradient><linearGradient id="b" x1="887.3" x2="1199.92" y1="135.07" y2="135.07" gradientUnits="userSpaceOnUse"><stop offset="0" stop-color="#9da8c4"/><stop offset=".28" stop-color="#51586b"/><stop offset=".53" stop-color="#828ca5"/></linearGradient><linearGradient xlink:href="#b" id="ae" x2="1180.33" y1="90.94" y2="90.94"/><linearGradient id="c" x1="893.78" x2="887.82" y1="88.26" y2="171.65" gradientUnits="userSpaceOnUse"><stop offset="0" stop-color="#9da8c4"/><stop offset=".57" stop-color="#4f5669"/><stop offset="1" stop-color="#444b5c"/></linearGradient><linearGradient xlink:href="#c" id="af" x1="840.33" x2="856.1" y1="112.87" y2="204.01"/><linearGradient xlink:href="#c" id="ag" x1="1021.69" x2="871.36" y1="38.38" y2="280.22"/><linearGradient id="d" x1="-2257.14" x2="-2233.42" y1="108.83" y2="112.97" gradientTransform="scale(-1 1)rotate(-3.59 -722.675 -20724.755)" gradientUnits="userSpaceOnUse"><stop offset="0" stop-color="#666"/><stop offset=".57" stop-color="#4d4d4d"/><stop offset="1" stop-color="#333"/></linearGradient><linearGradient xlink:href="#d" id="ah" x1="-2269.01" x2="-2209.43" y1="135.42" y2="135.42"/><linearGradient id="ai" x1="-2272.38" x2="-2211.72" y1="158.49" y2="158.49" gradientTransform="scale(-1 1)rotate(-3.59 -722.675 -20724.755)" gradientUnits="userSpaceOnUse"><stop offset="0" stop-color="#666"/><stop offset=".19" stop-color="#4d4d4d"/><stop offset=".65" stop-color="#333"/></linearGradient><radialGradient id="e" cx="1172.39" cy="-273" r="139.06" fx="1172.39" fy="-273" gradientTransform="matrix(-.97326 -.22971 -.19985 .84674 1646.76 635.41)" gradientUnits="userSpaceOnUse"><stop offset="0" stop-color="#dead0a"/><stop offset=".32" stop-color="#deab0a"/><stop offset=".45" stop-color="#dea30c"/><stop offset=".54" stop-color="#df970f"/><stop offset=".62" stop-color="#e08614"/><stop offset=".69" stop-color="#e26f1a"/><stop offset=".75" stop-color="#e45321"/><stop offset=".81" stop-color="#e7312a"/><stop offset=".86" stop-color="#ea0c33"/><stop offset=".87" stop-color="#eb0037"/></radialGradient><radialGradient id="Y" cx="244.56" cy="153.24" r="46.52" fx="244.56" fy="153.24" gradientTransform="matrix(-1 0 0 1 358.23 0)" gradientUnits="userSpaceOnUse"><stop offset="0" stop-color="#1c2538"/><stop offset="1" stop-color="#2a59be"/></radialGradient><radialGradient id="Z" cx="545.23" cy="168.13" r="32.97" fx="545.23" fy="168.13" gradientTransform="matrix(.77 0 0 1 122.4 0)" gradientUnits="userSpaceOnUse"><stop offset="0" stop-color="#fff" stop-opacity="0"/><stop offset=".23" stop-color="rgba(255, 255, 255, .01)" stop-opacity=".01"/><stop offset=".39" stop-color="rgba(255, 255, 255, .05)" stop-opacity=".05"/><stop offset=".53" stop-color="rgba(255, 255, 255, .11)" stop-opacity=".11"/><stop offset=".66" stop-color="rgba(255, 255, 255, .19)" stop-opacity=".19"/><stop offset=".78" stop-color="rgba(255, 255, 255, .3)" stop-opacity=".3"/><stop offset=".89" stop-color="rgba(255, 255, 255, .44)" stop-opacity=".44"/><stop offset="1" stop-color="rgba(255, 255, 255, .59)" stop-opacity=".59"/><stop offset="1" stop-color="#fff" stop-opacity=".6"/></radialGradient><filter id="aa" filterUnits="userSpaceOnUse"><feOffset/><feGaussianBlur result="blur" stdDeviation="8.78"/><feFlood flood-color="#a3ea2a" flood-opacity="1"/><feComposite in2="blur" operator="in"/><feComposite in="SourceGraphic"/></filter></defs><path d="m431.66 95.35-26.28 15.11c-.78.44-1.75-.11-1.75-1.01v-7.79H176.74a4.22 4.22 0 0 1-4.22-4.22v-6.19a4.21 4.21 0 0 1 4.21-4.21h226.9v-7.79c0-.9.97-1.45 1.75-1.01l26.28 15.11c.78.44.78 1.56 0 2" data-name="arrow styles for diagrams etc" style="fill:#eb0037;stroke-width:0"/><g data-name="Artwork 96"><path d="M478.29 184.78s-14.67-1.85-26.5-18.29c-15.43-21.44-4.47-57.76-4.47-57.76-1.45 18.24 11.59 41.35 18.68 37.58 5.49-2.92 1.25-10.07-5.91-18.86-10.29-12.65-8.94-35.34-8.94-35.34s17.26 30.18 24.36 14.23-17.06-32.7-14.64-44.99 17.69-6.31 29.17-14.56.1-26.66.1-26.66c15.69 4.18 23.14 23.09 21.12 42.15s18.69 17.28 20.92-2.69c2.22-19.97 17.69-22.03 17.69-22.03-7.26 4.48-4.84 24.59 5.33 21.75 10.18-2.84 4.44-37.55 4.44-37.55 8.5 7.72 24.03 36.17 1.5 54.68-22.52 18.51 4.86 40.22 9.19 21.87s13.53-16.99 25.16-18.06 6.34-20.42 6.34-20.42c10.93 8.3 9.39 22.7-2.63 38.93s22.37 26.72 29.2-3.11c6.83-29.84 37.75-48.75 37.75-48.75s-29.24 56-10.26 62.38c18.98 6.39 29.39-23.56 29.39-23.56-3.74 32-56.08 72.06-49.46 80.34s12.84.12 19.47-17.85 29.24-22.95 29.24-22.95-22.17 13.18-18.97 33.95 9.65 71.87-29.24 71.2L478.3 184.8Zm144.76-97.49c6.97-12.64-3.62-34.4-3.62-34.4s1.57 7.82-1.56 19.51c-3.12 11.69 5.17 14.89 5.17 14.89Zm-86.09-51c8.1-3.45 13.62-5.15 13.21-10.61-.42-5.46-1-11.39-1-11.39s-1.2 8.08-6.28 10.96-5.92 11.04-5.92 11.04Z" style="fill:url(#e);stroke-width:0"/><path d="M503.94 82.62c-7.41-10.4.54-31.73-.99-40.45 0 0-6.44 18.87-20.53 17.67s8.48 27.56 8.48 27.56zm43 2.25c6.3-13.65 20.41-15.45 20.41-25.45 0 0-9.47 2.45-15.38 8.17s-5.03 17.29-5.03 17.29Zm96.46-9.55c-7.33 12.9-9.85 34.01-15.2 38.92 0 0 12.83-6.17 13.41-18.09s1.79-20.83 1.79-20.83" style="fill:#dead0a;stroke-width:0"/></g><path d="M814 175.44a4.21 4.21 0 0 0 4.21-4.21v-6.19a4.22 4.22 0 0 0-4.22-4.22h-213.8v14.61H814Z" data-name="arrow styles for diagrams etc" style="fill:#a3ea2a;stroke-width:0"/><path d="M480.01 87.82v110.07l135.94 43.15-.02-112.34z" style="fill:#1c2538;stroke-width:0"/><path d="m615.95 241.04 20.36-11.78V118.43l-20.38 10.27zm20.36-122.61-20.38 10.27-137.64-40.88 21.12-10.92z" style="fill:#151c2b;stroke-width:0"/><path d="m535.55 173.35 28.68 8.8-.06 18.5-28.7-8.91z" style="fill:url(#a);stroke-width:0"/><path d="m517.71 144.62 28.64 8.65-.07 18.43-28.67-8.77z" style="fill:url(#f);stroke-width:0"/><path d="m549.98 154.36 28.64 8.65-.04 18.56-28.67-8.76z" style="fill:url(#g);stroke-width:0"/><path d="m535.76 126.72 28.61 8.51-.06 18.5-28.63-8.62z" style="fill:url(#h);stroke-width:0"/><path d="m503.53 117.14 28.61 8.51-.09 18.37-28.63-8.62z" style="fill:url(#i);stroke-width:0"/><path d="m485.44 134.87 28.65 8.65-.1 18.3-28.67-8.76z" style="fill:url(#j);stroke-width:0"/><path d="m503.25 163.44 28.68 8.8-.09 18.37-28.7-8.91z" style="fill:url(#k);stroke-width:0"/><path d="m614.5 192.56.01-18.7 1.68.51-.01 18.71z" style="fill:url(#l);stroke-width:0"/><path d="m600.22 145.89 15.99 4.76-.01 18.7-16.01-4.81z" style="fill:url(#m);stroke-width:0"/><path d="m600.16 193.17 16.02 4.92-.01 18.71-16.04-4.98z" style="fill:url(#n);stroke-width:0"/><path d="m567.99 136.31 28.61 8.5-.03 18.63-28.63-8.62z" style="fill:url(#o);stroke-width:0"/><path d="m481.69 151.95-2.5-.77.13-18.16 2.5.75z" style="fill:url(#p);stroke-width:0"/><path d="m567.86 183.26 28.67 8.8-.03 18.63-28.7-8.91z" style="fill:url(#q);stroke-width:0"/><path d="m582.24 164.11 28.64 8.65-.01 18.69-28.67-8.77z" style="fill:url(#r);stroke-width:0"/><path d="m578.51 210.08-.04 18.56-28.73-9.06.06-18.45z" style="fill:url(#s);stroke-width:0"/><path d="m610.85 220.15-.02 18.69-28.73-9.06.04-18.57z" style="fill:url(#t);stroke-width:0"/><path d="m616.17 221.81-.01 18.71-1.69-.54.01-18.7z" style="fill:url(#u);stroke-width:0"/><path d="m546.17 200-.07 18.43-28.73-9.05.1-18.32z" style="fill:url(#v);stroke-width:0"/><path d="m481.5 179.86-.13 18.17-2.51-.79.13-18.16z" style="fill:url(#w);stroke-width:0"/><path d="m499.79 134.31-20.44-6.16.13-18.16 20.43 6.07z" style="fill:url(#x);stroke-width:0"/><path d="m614.53 146.38.01-18.7 1.68.49-.01 18.71z" style="fill:url(#y);stroke-width:0"/><path d="m513.84 189.93-.1 18.3-28.73-9.05.12-18.19z" style="fill:url(#z);stroke-width:0"/><path d="m485.63 108.15.12-18.19 28.58 8.37-.1 18.3z" style="fill:url(#A);stroke-width:0"/><path d="m479.51 106.33.12-18.16 2.5.73-.12 18.17z" style="fill:url(#B);stroke-width:0"/><path d="m479.15 156.05 20.47 6.28-.11 18.24-20.49-6.36z" style="fill:url(#C);stroke-width:0"/><path d="m582.3 136.82.04-18.57 28.58 8.37-.01 18.69z" style="fill:url(#D);stroke-width:0"/><path d="m517.85 117.71.1-18.32 28.58 8.37-.07 18.43z" style="fill:url(#E);stroke-width:0"/><path d="m550.08 127.27.06-18.45 28.58 8.37-.04 18.56z" style="fill:url(#F);stroke-width:0"/><path d="m616.54 146.96 19.77-9.47v-19.06l-19.77 9.96z" style="fill:url(#G);opacity:.3;stroke-width:0"/><path d="m616.54 169.39 19.77-9.47v-19.07l-19.77 9.97z" style="fill:url(#H);opacity:.3;stroke-width:0"/><path d="m616.54 192.99 19.77-9.48v-19.06l-19.77 9.97z" style="fill:url(#I);opacity:.3;stroke-width:0"/><path d="m616.54 216.58 19.77-9.47v-19.06l-19.77 9.97z" style="fill:url(#J);opacity:.3;stroke-width:0"/><path d="m615.95 241.04 20.36-10.65v-19.24l-20.14 10.66z" style="fill:url(#K);opacity:.3;stroke-width:0"/><g data-name="Cloud + internet"><path d="m72.73 90.42 4.47 1.04c2.54-29.32 27.13-52.32 57.11-52.32s54.92 23.33 57.16 52.94c.44-.01.88-.03 1.32-.03 20.07 0 36.52 15.51 38.03 35.19l5.66 1.32c15.39 0 27.87 12.48 27.87 27.87s-12.55 29.32-27.87 27.87c-52.45-4.95-144.45-15.1-163.74-17.61-20.89-2.71-38.14-17.07-38.14-38.14s17.07-38.14 38.14-38.14Z" style="fill:url(#L);stroke-width:0"/><path d="M262.03 157.46c0 15.39-12.55 29.32-27.87 27.87-52.45-4.95-144.45-15.1-163.74-17.61-20.89-2.71-38.14-17.07-38.14-38.14s17.07-38.14 38.14-38.14l4.47 1.04c2.54-29.32 27.13-52.32 57.11-52.32s54.92 23.33 57.16 52.94c.44-.01.88-.03 1.32-.03 20.07 0 36.52 15.51 38.03 35.19l5.66 1.32c15.39 0 27.87 12.48 27.87 27.87Z" style="fill:url(#M);stroke-width:0"/><path d="M259.72 158.48c0 15.39-12.55 29.32-27.87 27.87-52.45-4.95-144.45-15.1-163.74-17.61-20.89-2.71-38.14-17.07-38.14-38.14s17.07-38.14 38.14-38.14l4.47 1.04c2.54-29.32 27.13-52.32 57.11-52.32 30.18 0 54.92 23.33 57.16 52.94.44-.01.88-.03 1.32-.03 20.07 0 36.52 15.51 38.03 35.19l5.66 1.32c15.39 0 27.87 12.48 27.87 27.87Z" style="fill:url(#N);stroke-width:0"/><path d="M257.42 159.51c0 15.39-12.55 29.32-27.87 27.87-52.45-4.95-144.45-15.1-163.74-17.61-20.89-2.71-38.14-17.07-38.14-38.14 0-21.06 17.07-38.14 38.14-38.14l4.47 1.04c2.54-29.32 27.13-52.32 57.11-52.32s54.92 23.33 57.16 52.94c.44-.01.88-.03 1.32-.03 20.07 0 36.52 15.51 38.03 35.19l5.66 1.32c15.39 0 27.87 12.48 27.87 27.87Z" style="fill:url(#O);stroke-width:0"/><path d="M255.11 160.54c0 15.39-12.55 29.32-27.87 27.87-52.45-4.95-144.45-15.1-163.74-17.61-20.89-2.71-38.14-17.07-38.14-38.14S42.43 94.52 63.5 94.52l4.47 1.04c2.54-29.32 27.13-52.32 57.11-52.32 30.18 0 54.92 23.33 57.16 52.94.44-.01.88-.03 1.32-.03 20.07 0 36.52 15.51 38.03 35.19l5.66 1.32c15.39 0 27.87 12.48 27.87 27.87Z" style="fill:url(#P);stroke-width:0"/><path d="M252.81 161.57c0 15.39-12.55 29.32-27.87 27.87-52.45-4.95-144.45-15.1-163.74-17.61-20.89-2.71-38.14-17.07-38.14-38.14 0-21.06 17.07-38.14 38.14-38.14l4.47 1.04c2.54-29.32 27.13-52.32 57.11-52.32 30.18 0 54.92 23.33 57.16 52.94.44-.01.88-.03 1.32-.03 20.07 0 36.52 15.51 38.03 35.19l5.66 1.32c15.39 0 27.87 12.48 27.87 27.87Z" style="fill:url(#Q);stroke-width:0"/><path d="M250.5 162.6c0 15.39-12.55 29.32-27.87 27.87-52.45-4.95-144.45-15.1-163.74-17.61-20.89-2.71-38.14-17.07-38.14-38.14 0-21.06 17.07-38.14 38.14-38.14l4.47 1.04C65.9 68.3 90.49 45.3 120.47 45.3c30.18 0 54.92 23.33 57.16 52.94.44-.01.88-.03 1.32-.03 20.07 0 36.52 15.51 38.03 35.19l5.66 1.32c15.39 0 27.87 12.48 27.87 27.87Z" style="fill:url(#R);stroke-width:0"/><path d="M248.2 163.62c0 15.39-12.55 29.32-27.87 27.87-52.45-4.95-144.45-15.1-163.74-17.61-20.89-2.71-38.14-17.07-38.14-38.14 0-21.06 17.07-38.14 38.14-38.14l4.47 1.04c2.54-29.32 27.13-52.32 57.11-52.32 30.18 0 54.92 23.33 57.16 52.94.44-.01.88-.03 1.32-.03 20.07 0 36.52 15.51 38.03 35.19l5.66 1.32c15.39 0 27.87 12.48 27.87 27.87Z" style="fill:url(#S);stroke-width:0"/><path d="M245.89 164.65c0 15.39-12.55 29.32-27.87 27.87-52.45-4.95-144.45-15.1-163.74-17.61-20.89-2.71-38.14-17.07-38.14-38.14 0-21.06 17.07-38.14 38.14-38.14l4.47 1.04c2.54-29.32 27.13-52.32 57.11-52.32 30.18 0 54.92 23.33 57.16 52.94.44-.01.88-.03 1.32-.03 20.07 0 36.52 15.51 38.03 35.19l5.66 1.32c15.39 0 27.87 12.48 27.87 27.87Z" style="fill:url(#T);stroke-width:0"/><path d="M243.59 165.68c0 15.39-12.55 29.32-27.87 27.87-52.45-4.95-144.45-15.1-163.74-17.61-20.89-2.71-38.14-17.07-38.14-38.14 0-21.06 17.07-38.14 38.14-38.14l4.47 1.04c2.54-29.32 27.13-52.32 57.11-52.32 30.18 0 54.92 23.33 57.16 52.94.44-.01.88-.03 1.32-.03 20.07 0 36.52 15.51 38.03 35.19l5.66 1.32c15.39 0 27.87 12.48 27.87 27.87Z" style="fill:url(#U);stroke-width:0"/><path d="M241.28 166.71c0 15.39-12.55 29.32-27.87 27.87-52.45-4.95-144.45-15.1-163.74-17.61-20.89-2.71-38.14-17.07-38.14-38.14 0-21.06 17.07-38.14 38.14-38.14l4.47 1.04c2.54-29.32 27.13-52.32 57.11-52.32 30.18 0 54.92 23.33 57.16 52.94.44-.01.88-.03 1.32-.03 20.07 0 36.52 15.51 38.03 35.19l5.66 1.32c15.39 0 27.87 12.48 27.87 27.87Z" style="fill:url(#V);stroke-width:0"/><path d="m47.37 101.72 4.47 1.04c2.54-29.32 27.13-52.32 57.11-52.32 30.18 0 54.92 23.33 57.16 52.94.44-.01.88-.03 1.32-.03 20.07 0 36.52 15.51 38.03 35.19l5.66 1.32c15.39 0 27.87 12.48 27.87 27.87s-12.55 29.32-27.87 27.87c-52.45-4.95-144.45-15.1-163.74-17.61-20.89-2.71-38.14-17.07-38.14-38.14s17.07-38.14 38.14-38.14Z" style="fill:url(#W);stroke-width:0"/><path d="m47.37 101.72 4.47 1.04c2.54-29.32 27.13-52.32 57.11-52.32 30.18 0 54.92 23.33 57.16 52.94.44-.01.88-.03 1.32-.03 20.07 0 36.52 15.51 38.03 35.19l5.66 1.32c15.39 0 27.87 12.48 27.87 27.87s-12.55 29.32-27.87 27.87c-52.45-4.95-144.45-15.1-163.74-17.61-20.89-2.71-38.14-17.07-38.14-38.14s17.07-38.14 38.14-38.14Z" style="fill:url(#X);stroke-width:0"/><path d="M67.11 156.03c0 25.68 20.89 45.23 46.56 43.6 25.68-1.63 46.56-23.7 46.56-49.19s-20.89-45.05-46.56-43.6c-25.68 1.45-46.56 23.51-46.56 49.19m85.58 11.95-13.21.81c1.13-4.79 1.8-9.94 1.93-15.28l14.83-.89a43.7 43.7 0 0 1-3.55 15.36m-59.62-34.93c3.84-11.87 10.7-20.36 18.65-21.96v20.87zm18.66 2.79v15.58l-21.9 1.31c.15-5.56.88-10.86 2.11-15.73zm22.55-5.2-18.65 1.09v-20.86c7.95.69 14.81 8.39 18.65 19.78Zm1.13 3.81c1.24 4.71 1.97 9.91 2.11 15.42l-21.89 1.31v-15.57zm3.97-.24 13.13-.77c2.19 4.65 3.49 9.81 3.73 15.3l-14.84.89c-.13-5.46-.83-10.66-2.02-15.42m-3.84 34.82-19.92 1.22v-15.19l21.9-1.32c-.14 5.38-.83 10.54-1.99 15.29Zm-1.11 3.94c-3.81 12.09-10.75 20.8-18.81 22.48v-21.32zm-41.51 2.56 18.81-1.16v21.33c-8.06-.66-15-8.52-18.81-20.17m-1.11-3.82c-1.17-4.62-1.85-9.71-1.99-15.1l21.9-1.32v15.2l-19.92 1.22Zm-3.95.24-13.21.81c-2.08-4.57-3.31-9.64-3.55-15.03l14.83-.89c.13 5.35.8 10.44 1.93 15.11M71.1 153.84c.26-5.56 1.55-10.91 3.73-15.85l13.13-.77c-1.19 4.92-1.88 10.22-2.02 15.73zm28.85-40.04c-4.63 4.67-8.42 11.43-10.9 19.48l-12.19.71c5.14-9.07 13.31-16.31 23.09-20.19m50.54 15.9-12.19.71c-2.48-7.72-6.27-14.03-10.9-18.17 9.78 2.75 17.95 9.03 23.09 17.46m-22.98 62.83c4.66-4.78 8.46-11.66 10.91-19.81l12.3-.76c-5.1 9.18-13.33 16.56-23.21 20.56Zm-50.89-15.99 12.3-.76c2.45 7.87 6.25 14.3 10.91 18.5-9.86-2.77-18.09-9.15-23.21-17.74" data-name="Artwork 24" style="fill:url(#Y);stroke-width:0"/></g><path d="M389.7 80.24H277.11c-3.06 0-5.54-2.06-5.54-4.6V52.7c0-2.54 2.48-4.6 5.54-4.6H389.7c3.06 0 5.54 2.06 5.54 4.6v22.94c0 2.54-2.48 4.6-5.54 4.6" style="fill:#223654;stroke-width:0"/><path d="M280.47 64.84v-4.9h2.06v5.11c0 1.79.56 2.41 1.58 2.41s1.62-.62 1.62-2.41v-5.11h1.99v4.9c0 3.06-1.25 4.4-3.61 4.4s-3.65-1.33-3.65-4.4Zm9.33-2.71h1.68l.15.88h.05c.58-.56 1.29-1.05 2.23-1.05 1.51 0 2.16 1.07 2.16 2.8v4.31h-2.06v-4.05c0-1-.27-1.31-.86-1.31-.52 0-.83.24-1.29.68v4.69h-2.06zm7.58 0h2.05l.67 3.22c.12.69.2 1.36.31 2.07h.06c.12-.7.24-1.4.41-2.07l.76-3.22h1.79l.78 3.22c.17.69.29 1.36.44 2.07h.06c.12-.7.2-1.38.32-2.07l.66-3.22h1.9l-1.66 6.95h-2.41l-.64-2.78c-.13-.64-.24-1.28-.37-2.03h-.06c-.12.75-.22 1.39-.35 2.04l-.61 2.77h-2.36l-1.74-6.95Zm11.11 5.02c0-1.46 1.17-2.26 3.91-2.55-.04-.61-.34-1-1.1-1-.58 0-1.17.25-1.84.63l-.73-1.35c.88-.54 1.88-.91 2.97-.91 1.78 0 2.76 1.02 2.76 3.14v3.97h-1.68l-.15-.71h-.05c-.58.51-1.24.88-2.02.88-1.27 0-2.07-.92-2.07-2.1m3.92-.09v-1.21c-1.46.2-1.94.62-1.94 1.14 0 .45.31.67.8.67s.78-.23 1.14-.59Zm3.92-4.93h1.68l.15.88h.05c.58-.56 1.29-1.05 2.23-1.05 1.51 0 2.16 1.07 2.16 2.8v4.31h-2.06v-4.05c0-1-.27-1.31-.86-1.31-.52 0-.83.24-1.29.68v4.69h-2.06zm8.43 4.42v-2.81h-.95V62.2l1.06-.08.24-1.85h1.7v1.85h1.67v1.62h-1.67v2.78c0 .79.36 1.1.9 1.1.23 0 .48-.07.66-.13l.33 1.5c-.37.12-.87.25-1.54.25-1.72 0-2.4-1.08-2.4-2.69m4.57-.95c0-2.25 1.61-3.65 3.28-3.65 1.98 0 2.96 1.44 2.96 3.34 0 .37-.05.74-.09.91h-4.16c.18 1.01.88 1.47 1.8 1.47.53 0 1-.16 1.5-.45l.68 1.24c-.71.49-1.64.78-2.47.78-1.98 0-3.51-1.34-3.51-3.64Zm4.47-.76c0-.76-.33-1.31-1.16-1.31-.65 0-1.21.44-1.35 1.31zm2.96.76c0-2.27 1.42-3.65 2.88-3.65.77 0 1.23.29 1.7.73l-.07-1.05v-2.37h2.06v9.81h-1.68l-.15-.69h-.05c-.49.49-1.18.86-1.85.86-1.73 0-2.84-1.37-2.84-3.64m4.52 1.34v-2.85c-.36-.33-.77-.44-1.15-.44-.67 0-1.25.62-1.25 1.94s.47 1.98 1.27 1.98c.44 0 .79-.17 1.13-.62Zm8.9-5.26h-2.51v-1.73h7.09v1.73h-2.51v7.4h-2.06v-7.4Zm5.38.45h1.68l.15 1.21h.05c.51-.93 1.27-1.38 1.97-1.38.4 0 .63.05.83.14l-.34 1.78c-.25-.06-.45-.11-.75-.11-.52 0-1.16.34-1.53 1.29v4.03h-2.06v-6.95Zm5 5.02c0-1.46 1.17-2.26 3.91-2.55-.04-.61-.34-1-1.1-1-.58 0-1.17.25-1.84.63l-.73-1.35c.88-.54 1.88-.91 2.97-.91 1.78 0 2.76 1.02 2.76 3.14v3.97h-1.68l-.15-.71h-.05c-.58.51-1.24.88-2.02.88-1.27 0-2.07-.92-2.07-2.1m3.91-.09v-1.21c-1.46.2-1.94.62-1.94 1.14 0 .45.31.67.8.67s.78-.23 1.14-.59Zm3.36-4.86 1.04-.08h7.62v1.62h-8.66zm.92-.39c0-1.42.74-2.58 2.63-2.58.59 0 1.12.12 1.44.25l-.37 1.52c-.22-.1-.44-.15-.82-.15-.47 0-.82.3-.82.95v7.27h-2.06zm4.43-.04c0-1.47.68-2.67 2.56-2.67.58 0 1.08.13 1.39.25l-.37 1.52c-.23-.09-.49-.15-.72-.15-.5 0-.79.28-.79 1v7.37h-2.06v-7.31Zm4.39-1.74c0-.63.5-1.08 1.19-1.08s1.19.44 1.19 1.08-.5 1.08-1.19 1.08-1.19-.45-1.19-1.08m.16 2.1h2.06v6.95h-2.06zm3.6 3.47c0-2.31 1.7-3.65 3.62-3.65.86 0 1.51.3 2.03.75l-.97 1.32c-.33-.28-.61-.41-.94-.41-.99 0-1.63.78-1.63 1.98s.66 1.98 1.56 1.98c.46 0 .89-.23 1.25-.51l.81 1.35c-.68.6-1.54.83-2.29.83-1.94 0-3.44-1.33-3.44-3.64" style="fill:#fff;stroke-width:0"/><path d="m233.12 167.13 26.28-15.11c.78-.44 1.75.11 1.75 1.01v7.79h283.1a4.22 4.22 0 0 1 4.22 4.22v6.19a4.21 4.21 0 0 1-4.21 4.21H261.15v7.79c0 .9-.97 1.45-1.75 1.01l-26.28-15.11c-.78-.44-.78-1.56 0-2" data-name="arrow styles for diagrams etc" style="fill:#a3ea2a;stroke-width:0"/><path d="M389.7 154.61H277.11c-3.06 0-5.54-2.06-5.54-4.6v-22.94c0-2.54 2.48-4.6 5.54-4.6H389.7c3.06 0 5.54 2.06 5.54 4.6v22.94c0 2.54-2.48 4.6-5.54 4.6" style="fill:#223654;stroke-width:0"/><path d="M289.4 134.32h2.47l2.87 9.13h-2.18l-1.19-4.62c-.25-.91-.5-1.99-.74-2.95h-.06c-.22.96-.46 2.03-.72 2.95l-1.2 4.62h-2.11l2.87-9.13Zm-.98 5.35h4.39v1.6h-4.39zm7.16 1.62v-7.65h2.06v7.74c0 .44.21.58.37.58.08 0 .13 0 .25-.03l.25 1.52c-.23.1-.57.17-1.03.17-1.41 0-1.9-.92-1.9-2.33m4.14 0v-7.65h2.06v7.74c0 .44.21.58.37.58.08 0 .13 0 .25-.03l.25 1.52c-.23.1-.57.17-1.03.17-1.41 0-1.9-.92-1.9-2.33m3.74-1.31c0-2.31 1.63-3.65 3.38-3.65s3.38 1.33 3.38 3.65-1.63 3.64-3.38 3.64-3.38-1.33-3.38-3.64m4.66 0c0-1.2-.42-1.98-1.27-1.98s-1.28.78-1.28 1.98.42 1.98 1.28 1.98 1.27-.78 1.27-1.98m2.97-3.48h2.05l.67 3.22c.12.69.2 1.36.31 2.07h.06c.12-.7.24-1.4.41-2.07l.76-3.22h1.79l.78 3.22c.17.69.29 1.36.44 2.07h.06c.12-.7.2-1.38.32-2.07l.66-3.22h1.9l-1.66 6.95h-2.41l-.64-2.78c-.13-.64-.24-1.28-.37-2.03h-.06c-.12.75-.22 1.39-.35 2.04l-.61 2.77h-2.36l-1.74-6.95Zm11.06 3.48c0-2.25 1.61-3.65 3.28-3.65 1.98 0 2.96 1.44 2.96 3.33 0 .37-.05.74-.09.91h-4.16c.18 1.01.88 1.47 1.8 1.47.53 0 1-.16 1.5-.45l.68 1.24c-.71.49-1.64.78-2.47.78-1.98 0-3.51-1.34-3.51-3.64Zm4.48-.77c0-.76-.33-1.31-1.16-1.31-.65 0-1.21.44-1.35 1.31zm2.96.77c0-2.27 1.42-3.65 2.88-3.65.77 0 1.23.29 1.7.72l-.07-1.05v-2.37h2.06v9.81h-1.68l-.15-.69h-.05c-.49.49-1.18.86-1.85.86-1.73 0-2.84-1.37-2.84-3.64Zm4.51 1.33v-2.85c-.36-.33-.77-.44-1.15-.44-.67 0-1.25.62-1.25 1.94s.47 1.98 1.27 1.98c.44 0 .79-.17 1.13-.62Zm8.91-5.26h-2.51v-1.73h7.09v1.73h-2.51v7.4h-2.06v-7.4Zm5.37.45h1.68l.15 1.21h.05c.51-.93 1.27-1.38 1.97-1.38.4 0 .63.05.83.14l-.34 1.78c-.25-.06-.45-.11-.75-.11-.52 0-1.16.34-1.53 1.29v4.03h-2.06v-6.95Zm5.01 5.02c0-1.46 1.17-2.26 3.91-2.55-.04-.61-.34-1-1.1-1-.58 0-1.17.25-1.84.63l-.73-1.35c.88-.54 1.88-.91 2.97-.91 1.78 0 2.76 1.01 2.76 3.14v3.97h-1.68l-.15-.71h-.05c-.58.51-1.24.88-2.02.88-1.27 0-2.07-.92-2.07-2.09Zm3.91-.09v-1.21c-1.46.2-1.94.62-1.94 1.14 0 .45.31.67.8.67s.78-.23 1.14-.59Zm3.35-4.85 1.04-.08h7.62v1.62h-8.66zm.93-.39c0-1.42.74-2.58 2.63-2.58.59 0 1.12.12 1.44.25l-.37 1.52c-.22-.1-.44-.16-.82-.16-.47 0-.82.3-.82.95v7.27h-2.06v-7.26Zm4.43-.05c0-1.47.68-2.67 2.56-2.67.58 0 1.08.13 1.39.25l-.37 1.52c-.23-.09-.49-.15-.72-.15-.5 0-.79.28-.79 1v7.37h-2.06v-7.31Zm4.39-1.73c0-.63.5-1.08 1.19-1.08s1.19.44 1.19 1.08-.5 1.08-1.19 1.08-1.19-.45-1.19-1.08m.16 2.09h2.06v6.95h-2.06zm3.6 3.48c0-2.31 1.7-3.65 3.62-3.65.86 0 1.51.3 2.03.75l-.97 1.32c-.33-.28-.61-.41-.94-.41-.99 0-1.63.78-1.63 1.98s.66 1.98 1.56 1.98c.46 0 .89-.23 1.25-.51l.81 1.35c-.68.6-1.54.83-2.29.83-1.94 0-3.44-1.33-3.44-3.64" style="fill:#fff;stroke-width:0"/><ellipse cx="542.54" cy="168.13" rx="25.41" ry="32.97" style="fill:url(#Z);filter:url(#aa);stroke-width:0"/><g data-name="Database"><path d="M887.61 106.52s1.8-1.35 4.49-1.35l-.45 4.04zm-.22-45.06s1.98-1.21 4.67-1.21l-.45 4.04z" style="fill:#2e3d5b;stroke-width:0"/><path d="M891.25 56.09v60.77l78.85 19.77 66.72-22.24-1.24-61.78z" style="fill:url(#ab);stroke-width:0"/><path d="m886.57 18.59.69 35.44c.03 1.53.93 2.9 2.33 3.53 8.63 3.93 40.94 17.2 82.33 16.58 36.79-.56 59.47-13.11 65.84-17.15a3.93 3.93 0 0 0 1.82-3.38l-.38-34.72-152.62-.3Z" style="fill:url(#ac);stroke-width:0"/><path d="M1039.15 18.59c0 8.74-34.13 15.82-76.24 15.82s-76.35-7.08-76.35-15.82 34.25-15.82 76.35-15.82 76.24 7.08 76.24 15.82" style="fill:url(#ad);stroke-width:0"/><path d="M997.66 51.08a4.96 4.96 0 0 1-8.48 3.49c.73.43 1.58.67 2.49.67a4.96 4.96 0 0 0 3.52-8.45c1.48.86 2.47 2.46 2.47 4.29" style="fill:#dbdcdd;stroke-width:0"/><path d="M996.63 50.29a4.96 4.96 0 0 1-4.96 4.96c-.91 0-1.76-.24-2.49-.67a4.96 4.96 0 0 1 3.52-8.45c.91 0 1.76.24 2.49.67.89.9 1.44 2.13 1.44 3.49" style="fill:#fff;stroke-width:0"/><circle cx="992.7" cy="140.88" r="4.96" style="fill:#fff;stroke-width:0"/><path d="M887.86 106.51s3.64 2.68 8.1 4.17c7.41 2.47 32.12 11.35 70.43 12.36 46.95 1.24 70.74-16.32 70.74-16.32l2.46-.38-31.19 29.06-103.79-9.88-16.06-13.59-1.24-2.47s-.13-3.4.55-2.93Z" style="fill:#2e3d5b;stroke-width:0"/><path d="M887.3 108.54v29.47c0 5.09 3.09 9.66 7.82 11.57 13.14 5.29 41.7 14.74 76.79 14.21 30.41-.46 51.17-9.12 61.06-14.39 4.07-2.17 6.62-6.4 6.62-11.01v-32.06c-13.24 12.51-53.71 20.6-74.31 19.13-17.66-1.47-44.14-1.47-77.99-16.92Z" style="fill:url(#b);stroke-width:0"/><circle cx="992.7" cy="141.08" r="4.96" style="fill:#fff;stroke-width:0"/><path d="M887.41 61.45s4.09 2.68 8.55 4.17c7.41 2.47 32.12 11.35 70.43 12.36 46.95 1.24 69.55-15.59 69.55-15.59l2.46 2.32-30 25.62-103.79-9.88-16.06-13.59-1.24-2.47s-.15-2.76.1-2.93Zm152.18 44.88s.36-1.65-2.98-2.34v.54l.06 2.65 1.33-.29 1.59-.54Z" style="fill:#2e3d5b;stroke-width:0"/><path d="M1039.59 62.29s-.54-2.73-3.88-3.43v.74l.08 6.12 1.5-.25 2.29-3.17Z" style="fill:#2e3d5b;stroke-width:0"/><path d="M887.3 64.37v37.59s36.05 18.39 84.61 17.66c43.05-.65 66.78-17.73 67.66-18.37.02-.01.03-.03.03-.05V62.3c0-.05-.06-.08-.1-.04-13.34 12.45-53.66 20.5-74.21 19.04-17.66-1.47-44.14-1.47-77.99-16.92Z" style="fill:url(#ae);stroke-width:0"/><circle cx="992.7" cy="96.6" r="4.96" style="fill:#fff;stroke-width:0"/><path d="M997.66 96.6a4.96 4.96 0 0 1-8.48 3.49c.73.43 1.58.67 2.49.67a4.96 4.96 0 0 0 3.52-8.45c1.48.86 2.47 2.46 2.47 4.29m0 44.44a4.96 4.96 0 0 1-8.48 3.49c.73.43 1.58.67 2.49.67a4.96 4.96 0 0 0 3.52-8.45c1.48.86 2.47 2.46 2.47 4.29" style="fill:#dbdcdd;stroke-width:0"/><path d="M888.9 26.03v10.92s33.14 10.09 54.84 7.38c0 0-44.57-9.46-54.84-18.3" style="fill:#fff;opacity:.29;stroke-width:0"/><path d="M957.31 30.76s73.35-2.58 74.66-12.14-52.96-12.28-52.96-12.28 48.7 8.27 40.63 12.28c-8.07 4-62.34 12.14-62.34 12.14Z" style="fill:#fff;opacity:.11;stroke-width:0"/></g><g data-name="Server - small"><path d="m813.31 134.3 79.67-34.93 74.62 35.74-77.43 33.13z" style="fill:url(#c);stroke-width:0"/><path d="m890.94 167.09.64 77.62-75.47-33.54-2.8-76.87" style="fill:url(#af);stroke-width:0"/><path d="m890.88 167.15.7 77.56 74.77-35.64 1.4-74.07z" style="fill:url(#ag);stroke-width:0"/><path d="m902.05 188.48 56.19-25.78c.72-.33 1.2-1.03 1.25-1.82l.92-14.67c.1-1.61-1.54-2.75-3.01-2.09l-56.99 25.36c-.77.34-1.27 1.1-1.27 1.94l-.12 15.08a2.15 2.15 0 0 0 3.04 1.97Z" style="fill:url(#d);stroke-width:0"/><path d="M899.22 187.45a2.167 2.167 0 0 0 2.84 1.03l56.19-25.78c.72-.32 1.19-1.02 1.24-1.81l.92-14.67a2.165 2.165 0 0 0-2.3-2.29c.15.31.23.68.2 1.07l-.92 14.67c-.05.79-.53 1.49-1.24 1.81l-56.19 25.78c-.25.1-.49.18-.74.19" style="fill:#1a1a1a;stroke-width:0"/><path d="m902.8 211.73 56.19-25.78c.72-.33 1.2-1.03 1.25-1.82l.92-14.67c.1-1.61-1.54-2.75-3.01-2.09l-56.99 25.36c-.77.34-1.27 1.1-1.27 1.94l-.12 15.08a2.15 2.15 0 0 0 3.04 1.97Z" style="fill:url(#ah);stroke-width:0"/><path d="M899.96 210.7a2.167 2.167 0 0 0 2.84 1.03l56.19-25.78c.72-.32 1.19-1.02 1.24-1.81l.92-14.67a2.165 2.165 0 0 0-2.3-2.29c.15.31.23.68.2 1.07l-.92 14.67c-.05.79-.53 1.49-1.24 1.81l-56.19 25.78c-.25.1-.49.18-.74.19" style="fill:#1a1a1a;stroke-width:0"/><path d="m903.65 234.89 57.27-25.71c.72-.33 1.2-1.03 1.25-1.82l.92-14.67c.1-1.61-1.54-2.75-3.01-2.09l-58.07 25.29c-.77.34-1.27 1.1-1.27 1.94l-.12 15.08a2.15 2.15 0 0 0 3.04 1.97Z" style="fill:url(#ai);stroke-width:0"/><path d="M900.81 233.87a2.167 2.167 0 0 0 2.84 1.03l57.27-25.71c.72-.32 1.19-1.02 1.24-1.81l.92-14.67a2.165 2.165 0 0 0-2.3-2.29c.15.31.23.68.2 1.07l-.92 14.67c-.05.79-.53 1.49-1.24 1.81l-57.27 25.71c-.25.1-.49.18-.74.19" style="fill:#1a1a1a;stroke-width:0"/><circle cx="905.19" cy="172.87" r="1.7" style="fill:#a3ea2a;stroke-width:0"/><circle cx="905.4" cy="179.51" r="1.7" style="fill:#a3ea2a;stroke-width:0"/><circle cx="913.28" cy="169.41" r="1.7" style="fill:#f2f2f2;stroke-width:0"/><circle cx="914.26" cy="175.66" r="1.7" style="fill:#a3ea2a;stroke-width:0"/><circle cx="921.37" cy="165.94" r="1.7" style="fill:#a3ea2a;stroke-width:0"/><circle cx="921.58" cy="172.58" r="1.7" style="fill:#a3ea2a;stroke-width:0"/><circle cx="929.46" cy="162.09" r="1.7" style="fill:#eb0037;stroke-width:0"/><circle cx="929.67" cy="168.72" r="1.7" style="fill:#a3ea2a;stroke-width:0"/><circle cx="937.55" cy="158.62" r="1.7" style="fill:#a3ea2a;stroke-width:0"/><circle cx="937.76" cy="165.26" r="1.7" style="fill:#1a1a1a;stroke-width:0"/><circle cx="945.64" cy="154.77" r="1.7" style="fill:#a3ea2a;stroke-width:0"/><circle cx="945.85" cy="161.79" r="1.7" style="fill:#a3ea2a;stroke-width:0"/><circle cx="953.34" cy="150.92" r="1.7" style="fill:#a3ea2a;stroke-width:0"/><circle cx="953.55" cy="157.55" r="1.7" style="fill:#a3ea2a;stroke-width:0"/><circle cx="905.96" cy="195.6" r="1.7" style="fill:#f2f2f2;stroke-width:0"/><circle cx="906.17" cy="202.24" r="1.7" style="fill:#eb0037;stroke-width:0"/><circle cx="914.05" cy="192.14" r="1.7" style="fill:#a3ea2a;stroke-width:0"/><circle cx="915.03" cy="198.39" r="1.7" style="fill:#eb0037;stroke-width:0"/><circle cx="922.14" cy="188.67" r="1.7" style="fill:#a3ea2a;stroke-width:0"/><circle cx="922.35" cy="195.3" r="1.7" style="fill:#eb0037;stroke-width:0"/><circle cx="930.23" cy="184.82" r="1.7" style="fill:#a3ea2a;stroke-width:0"/><circle cx="930.44" cy="191.45" r="1.7" style="fill:#eb0037;stroke-width:0"/><circle cx="938.32" cy="181.35" r="1.7" style="fill:#a3ea2a;stroke-width:0"/><circle cx="938.53" cy="187.99" r="1.7" style="fill:#eb0037;stroke-width:0"/><circle cx="946.41" cy="177.5" r="1.7" style="fill:#1a1a1a;stroke-width:0"/><circle cx="946.62" cy="184.52" r="1.7" style="fill:#eb0037;stroke-width:0"/><circle cx="954.11" cy="173.64" r="1.7" style="fill:#a3ea2a;stroke-width:0"/><circle cx="954.32" cy="180.28" r="1.7" style="fill:#eb0037;stroke-width:0"/><circle cx="907.88" cy="218.72" r="1.7" style="fill:#a3ea2a;stroke-width:0"/><circle cx="908.1" cy="225.35" r="1.7" style="fill:#a3ea2a;stroke-width:0"/><circle cx="915.97" cy="215.25" r="1.7" style="fill:#a3ea2a;stroke-width:0"/><circle cx="916.96" cy="221.5" r="1.7" style="fill:#a3ea2a;stroke-width:0"/><circle cx="924.06" cy="211.78" r="1.7" style="fill:#1a1a1a;stroke-width:0"/><circle cx="924.28" cy="218.42" r="1.7" style="fill:#a3ea2a;stroke-width:0"/><circle cx="932.15" cy="207.93" r="1.7" style="fill:#a3ea2a;stroke-width:0"/><circle cx="932.37" cy="214.57" r="1.7" style="fill:#a3ea2a;stroke-width:0"/><circle cx="940.24" cy="204.46" r="1.7" style="fill:#eb0037;stroke-width:0"/><circle cx="940.46" cy="211.1" r="1.7" style="fill:#a3ea2a;stroke-width:0"/><circle cx="948.33" cy="200.61" r="1.7" style="fill:#a3ea2a;stroke-width:0"/><circle cx="948.55" cy="207.63" r="1.7" style="fill:#1a1a1a;stroke-width:0"/><circle cx="956.04" cy="196.76" r="1.7" style="fill:#a3ea2a;stroke-width:0"/><circle cx="956.25" cy="203.39" r="1.7" style="fill:#a3ea2a;stroke-width:0"/><path d="m817.64 139.54 3.47 68.87 65.58 30.01v-69.87z" style="fill:#272728;stroke-width:0"/><path d="m817.64 139.54 2.72 1.02 2.9 67.21-2.15.64z" style="fill:#1a1a1a;stroke-width:0"/><path d="m823.26 207.77 63.43 29.26v1.39l-65.58-30.01z" style="fill:#1a1a1a;stroke-width:0"/><path d="m829.69 206.63-.74-26.91m4.79 28.76-.73-26.92m4.79 29.13-.74-26.91m4.79 29.12-.73-26.91m4.79 28.75-.74-26.91m4.79 28.76-.73-26.92m5.81 28.79-.74-26.91m4.8 28.76-.74-26.91m4.79 29.12-.73-26.91m4.79 29.12-.74-26.91m4.79 28.75-.73-26.91m4.79 28.76-.74-26.91" style="fill:#eb0037;stroke:#000;stroke-linecap:round;stroke-linejoin:round;stroke-width:1.84px"/><path d="m826.3 133.16 64.23 30.43 64.23-28.74-64.23 25.36zm-3.38 0 69.3-30.42 62.54 30.42-62.54-28.73z" style="fill:#97afbf;opacity:.25;stroke-width:0"/></g><path d="m1100.13 193.63 11.76-48.56 5.07-13.52 10.14-38.87h3.38l-10.14 40.56-1.69 13.52-10.14 49s-3.25-.89-8.38-2.13" style="fill:#d4d8df;stroke-width:0"/><path d="M1116.97 131.55s1.68 1.82 3.38 1.69l-1.47 11.33s-2.77.61-6.07-1.92l4.15-11.1Z" style="fill:#acb1b7;stroke-width:0"/><path d="m1104.39 189.27 10.64-41.09-8.05 41.96z" style="fill:#fff;stroke-width:0"/><path d="m1037 168.03-5.35-44.19v-11.82l-3.38-28.73h1.69l5.07 28.73 3.38 11.82 5.8 48.2z" style="fill:#d4d8df;stroke-width:0"/><path d="M1035.03 112.02s-.55.68-3.38 0v11.83s2.63 1.92 6.76 0z" style="fill:#acb1b7;stroke-width:0"/><path d="m1034.93 126.4 4.38 40.92 2.12.43z" style="fill:#fff;stroke-width:0"/><path d="m974.89 201.78 83.55 44.63a8.25 8.25 0 0 0 7.68-.28l47.58-29.09c1.7-.98 1.44-3.52-.43-4.13l-82.03-29.59a8.63 8.63 0 0 0-5.41-.09l-50.74 15.05c-1.6.55-1.73 2.75-.21 3.49Z" style="fill:#434b56;stroke-width:0"/><path d="m1113.7 196.77-.68 18.42-49.39 27.69c-1.33.75-2.95.77-4.3.08l-84.85-43.66-.05-17 87.75 43.12 51.52-28.64Z" style="fill:#5f6266;stroke-width:0"/><path d="m1113.69 196.76-7.93 4.56-39.65 22.83a8.22 8.22 0 0 1-7.68.28l-83.2-40.06c-1.04-.5-1.31-1.68-.87-2.56.2-.41.56-.75 1.07-.93l52.08-16.25a8.63 8.63 0 0 1 5.41.09l34.05 11.82 15.6 5.42 30.69 10.66c1.87.61 2.13 3.15.43 4.13Zm-124.67 12.21-.03-15.15 59.07 28.19-.06 18.7z" style="fill:#434b56;stroke-width:0"/><path d="m1105.77 201.33-39.65 22.83a8.22 8.22 0 0 1-7.68.28l-83.2-40.06c-1.04-.5-1.31-1.68-.87-2.56 21.1-4.21 63.92-11.17 92.61-5.27 5.9 1.21 11.21 2.97 15.6 5.42 1.39.77 2.69 1.61 3.89 2.53 8.27 6.31 14.55 11.95 19.29 16.82Z" style="fill:#707e8c;stroke-width:0"/><path d="m1005.92 189.25 42.88 21.58 4.18-2.99-42.06-20.88z" style="fill:#434b56;stroke-width:0"/><path d="m992.42 205.31.3-4.33 15.81 7.16-.15 4.92zm19.84 8.95.3-4.33 5.22 2.39-.75 4.92zm8.05 4.47.45-4.17 5.22 2.08-.74 4.93z" style="fill:#242b33;stroke-width:0"/><path d="M1048.51 217.39s8.2 5.37 12.68 5.07 13.87-5.52 13.87-5.52-10.59 7.46-12.98 7.31-13.57-6.86-13.57-6.86" style="fill:#434b56;stroke-width:0"/><path d="m1127.11 92.69.46-1.89a1.626 1.626 0 0 1 3.17.72l-.25 1.17z" style="fill:#fff;stroke-width:0"/><circle cx="1029.34" cy="220.78" r="1.23" style="fill:#a3ea2a;stroke-width:0"/><circle cx="1034.25" cy="223.23" r="1.23" style="fill:#a3ea2a;stroke-width:0"/><circle cx="1039.17" cy="225.69" r="1.23" style="fill:#a3ea2a;stroke-width:0"/><g style="opacity:.59"><path d="m856.05 186.87-.23-.08.03-.91v-.15l.02-.16-.08.08-.13.1-.11-.24.36-.28.19.06-.05 1.56Z" data-name="1" style="fill:#fff;stroke-width:0"/><path d="M855.38 185.85c0 .27-.04.46-.11.57-.06.11-.17.14-.29.1-.11-.03-.22-.14-.28-.3s-.09-.37-.08-.63.04-.47.11-.58c.06-.11.16-.14.29-.1.11.03.22.14.28.3s.09.37.08.64m-.53-.18c0 .19 0 .33.02.42.01.1.08.18.15.17.04 0 .07-.04.08-.09.03-.07.04-.21.05-.4s0-.33-.03-.43c-.01-.08-.06-.15-.11-.17s-.1.01-.12.09-.04.21-.04.4Zm5.55-.46c-.02.39-.07.66-.17.82q-.135.24-.42.15c-.285-.09-.3-.2-.38-.42s-.11-.52-.1-.89.07-.66.17-.82c.09-.16.23-.21.41-.15s.31.19.39.42c.08.22.12.53.1.9Zm-.74-.25c-.01.28 0 .48.02.6.03.13.08.2.16.23s.13-.02.17-.13.06-.3.08-.57 0-.48-.03-.61-.08-.21-.15-.23-.13.02-.17.13-.06.31-.08.58" data-name="0" style="fill:#fff;stroke-width:0"/><path d="m858.88 185.83-.32-.11.05-1.28v-.21l.03-.23c-.06.06-.09.1-.12.12l-.18.15-.14-.33.51-.41.26.08-.09 2.21Z" data-name="1" style="fill:#fff;stroke-width:0"/><path d="M857.96 184.42c-.01.39-.07.65-.16.81-.09.15-.23.2-.41.14s-.3-.2-.39-.42c-.08-.22-.12-.51-.11-.88s.07-.66.16-.81.23-.21.41-.15.31.19.39.41.12.52.11.89Zm-.74-.25c0 .27 0 .47.03.59s.08.2.16.23.13-.02.17-.12c.03-.11.06-.29.07-.56s0-.47-.03-.6-.08-.21-.16-.23-.13.02-.17.13c-.03.11-.06.31-.07.57Z" data-name="0" style="fill:#fff;stroke-width:0"/><path d="m853.07 183.9-.23-.08.02-.89v-.14l.01-.16-.08.08-.13.1-.11-.23.36-.28.19.06z" data-name="1" style="fill:#fff;stroke-width:0"/><path d="M852.4 182.91c0 .27-.04.45-.1.56s-.16.14-.29.09c-.11-.03-.22-.14-.28-.29s-.09-.36-.09-.62c0-.27.04-.46.1-.57s.16-.14.29-.1c.11.03.22.14.28.29.06.16.09.37.08.62Zm-.54-.18c0 .19 0 .32.03.41.02.1.08.17.15.16.04 0 .07-.03.08-.09.03-.07.04-.2.04-.39s0-.32-.03-.42c-.02-.1-.08-.17-.15-.16-.04 0-.07.04-.08.09-.02.08-.03.21-.04.4" data-name="0" style="fill:#fff;stroke-width:0"/><path d="m860.34 183.75-.33-.1.05-1.32v-.21l.03-.23-.12.12-.19.16-.15-.34.53-.43.27.08-.1 2.28Z" data-name="1" style="fill:#fff;stroke-width:0"/><path d="M859.4 182.31c-.02.39-.07.68-.17.84q-.15.24-.42.15c-.27-.09-.31-.2-.4-.42s-.12-.52-.11-.91.07-.68.17-.84.24-.21.43-.16.32.2.4.42c.09.23.12.53.1.91Zm-.77-.24c-.01.28 0 .48.03.61s.08.21.16.23.13-.02.17-.13.06-.3.07-.58 0-.48-.03-.61-.08-.21-.16-.23-.14.02-.17.13c-.04.11-.06.3-.07.58" data-name="0" style="fill:#fff;stroke-width:0"/><path d="m856.16 182.43-.32-.1.04-1.26v-.2l.02-.22-.12.12-.18.15-.15-.33.51-.41.27.08-.07 2.18Z" data-name="1" style="fill:#fff;stroke-width:0"/><path d="M855.23 181.05c-.01.38-.06.64-.15.8-.09.15-.23.2-.41.14s-.31-.19-.39-.41-.12-.5-.11-.86.06-.64.15-.8c.09-.15.23-.2.41-.15s.31.19.39.4q.135.33.12.87Zm-.75-.23c0 .26 0 .46.03.58.03.13.08.2.16.22s.13-.02.17-.12c.03-.11.06-.29.07-.55s0-.46-.04-.58c-.03-.12-.09-.2-.16-.22s-.13.02-.17.13c-.03.11-.06.29-.07.56Z" data-name="0" style="fill:#fff;stroke-width:0"/><path d="m853.71 181.66-.32-.1.03-1.24v-.2l.02-.22c-.06.06-.09.1-.11.12l-.18.14-.15-.32.51-.4.27.08-.05 2.14Z" data-name="1" style="fill:#fff;stroke-width:0"/><path d="M852.77 180.3c0 .37-.06.63-.15.78s-.23.2-.41.14-.31-.19-.39-.4c-.09-.21-.13-.49-.12-.85s.06-.63.15-.79c.09-.15.23-.2.41-.15s.31.18.4.4.13.5.12.86Zm-.75-.23c0 .26 0 .45.04.57.03.12.08.19.16.22s.13-.02.17-.12c.03-.11.06-.29.06-.54s0-.46-.04-.58c-.03-.12-.08-.2-.16-.22s-.13.02-.17.12c-.03.11-.06.28-.06.55m6.37-3.03c-.12-.31-.3-.49-.56-.56s-.46 0-.59.23-.21.61-.23 1.15.04.93.15 1.24c.12.3.3.49.55.56s.45 0 .59-.22c.13-.22.21-.61.23-1.15.02-.53-.03-.94-.16-1.25Zm-.4 1.91q-.075.225-.24.18c-.165-.045-.19-.14-.22-.31-.04-.18-.05-.46-.04-.83s.04-.64.1-.79c.05-.15.14-.21.24-.18s.18.13.22.31.06.46.04.84c-.01.38-.04.64-.1.79Z" data-name="0" style="fill:#fff;stroke-width:0"/><path d="m856.39 179.22-.46-.13.05-1.77v-.29l.03-.32c-.08.09-.13.14-.17.17l-.26.21-.21-.45.73-.59.38.1-.09 3.06Zm-1.74-.51-.46-.13.04-1.75v-.28l.03-.31c-.08.09-.13.14-.17.16l-.26.21-.22-.44.72-.58.38.1-.08 3.02Zm-1.74-.51-.46-.13.03-1.73v-.28l.02-.31c-.08.08-.13.14-.17.16l-.26.21-.22-.44.72-.57.38.1-.05 2.99Z" data-name="1" style="fill:#fff;stroke-width:0"/><path d="m858.4 175.06-.47-.12.06-1.78v-.29l.03-.32c-.08.09-.14.15-.17.17l-.27.22-.21-.45.74-.62.39.09-.11 3.09Zm2.06-2.26c-.12-.31-.31-.49-.56-.55s-.46.02-.6.25c-.13.23-.21.62-.23 1.17s.03.94.15 1.24.31.49.56.55.46-.01.6-.24q.21-.345.24-1.17c.02-.53-.03-.94-.15-1.25Zm-.42 1.95c-.06.15-.14.22-.25.19s-.19-.13-.23-.31-.05-.46-.04-.84.05-.65.1-.81c.06-.15.14-.22.25-.19s.18.13.22.31.06.46.04.84-.05.66-.1.81Zm-7.03-1.09-.47-.12.03-1.73v-.28l.02-.31c-.08.09-.13.14-.17.17l-.26.21-.22-.43.73-.59.38.09-.05 2.99Zm2.18-.96c-.01.53-.09.91-.22 1.13s-.33.3-.59.23-.44-.25-.57-.54c-.12-.29-.18-.7-.17-1.2s.08-.9.21-1.13c.13-.22.33-.3.59-.24s.45.24.57.54c.13.3.19.71.17 1.22Zm-1.09-.27c0 .37 0 .64.05.82.04.17.12.27.23.3s.19-.03.24-.18q.075-.225.09-.78c.015-.555 0-.65-.05-.82s-.12-.27-.23-.3-.19.04-.24.18q-.075.225-.09.78" data-name="10" style="fill:#fff;stroke-width:0"/><path d="M859.95 170.29c-.24-2.55-1.77-4.74-3.69-5.13l-.69-.14c-.43-3.54-2.65-6.43-5.36-6.87s-5 1.57-5.5 4.72c-1.96-.13-3.47 1.59-3.43 4.06.04 2.64 1.79 5.25 3.89 5.82l5.64 1.52c.3.07.54-.2.54-.61 0-.39-.23-.76-.52-.84l-5.66-1.47c-1.51-.39-2.76-2.26-2.79-4.16s1.21-3.18 2.76-2.86c.57.12 1.13.46 1.6.98.22.25.52.29.71.08.22-.23.22-.68 0-1a.6.6 0 0 0-.07-.09c-.46-.52-.99-.91-1.55-1.15.47-2.41 2.25-3.92 4.35-3.55 2.21.38 4.03 2.83 4.3 5.76-.18.08-.35.19-.51.3-.25.18-.32.63-.16 1 .02.04.03.08.06.11.19.3.49.39.71.23a1.94 1.94 0 0 1 1.61-.34c1.37.29 2.46 1.86 2.64 3.66.04.37.25.68.52.75.3.08.56-.21.58-.63v-.15Z" data-name="Layer 2" style="fill:#fff;stroke-width:0"/></g></svg>