<svg xmlns="http://www.w3.org/2000/svg" width="1077.13" height="800" data-name="Layer 1"><rect width="1008.88" height="91.24" x="28.31" y="691.97" rx="19.28" ry="19.28" style="fill:#9f00ff;stroke:#9f00ff;stroke-miterlimit:10;stroke-width:3.77px"/><path d="M65.95 718.49q2.34-.975 4.89-2.22c1.7-.83 3.36-1.75 4.97-2.75q2.43-1.5 4.65-3.15c1.48-1.1 2.82-2.28 4-3.52h8.41v56.03H80.82v-40.34c-1.62 1.08-3.42 2.06-5.42 2.95-1.99.89-3.94 1.66-5.82 2.3l-3.64-9.3Zm57.73 38c0 2.43-.77 4.27-2.3 5.54-1.54 1.27-3.27 1.9-5.21 1.9s-3.68-.63-5.22-1.9-2.3-3.11-2.3-5.54.77-4.27 2.3-5.54c1.54-1.27 3.27-1.9 5.22-1.9s3.68.63 5.21 1.9c1.54 1.27 2.3 3.11 2.3 5.54m239.92-45.78c7.15 0 12.64 1.26 16.48 3.77 3.83 2.52 5.75 6.63 5.75 12.36s-1.94 9.93-5.81 12.5-9.41 3.84-16.61 3.84h-3.39v16.06h-10.8v-47.28c2.35-.46 4.85-.78 7.48-.97 2.63-.18 4.94-.28 6.92-.28Zm.69 9.21c-.79 0-1.56.02-2.32.07s-1.42.09-1.97.14v13.84h3.39c3.74 0 6.55-.51 8.45-1.52 1.89-1.01 2.84-2.91 2.84-5.68 0-1.34-.24-2.45-.73-3.32-.48-.88-1.18-1.58-2.08-2.11s-2-.9-3.29-1.11-2.72-.31-4.29-.31m28.8 39.32v-52.06l10.31-1.66v17.44q1.035-.345 2.67-.66c1.08-.21 2.13-.31 3.15-.31 2.95 0 5.41.4 7.37 1.21s3.53 1.95 4.71 3.43 2.01 3.23 2.49 5.26.73 4.29.73 6.78v20.56h-10.31v-19.31c0-3.32-.43-5.68-1.28-7.06s-2.43-2.08-4.74-2.08c-.92 0-1.79.08-2.6.24s-1.53.33-2.18.52v27.69H393.1Zm72.06-36.41c-2.08 7.02-4.26 13.59-6.52 19.73-2.27 6.14-4.74 12.09-7.43 17.86-.97 2.08-1.94 3.84-2.91 5.3-.97 1.45-2.03 2.65-3.19 3.6s-2.46 1.64-3.92 2.08-3.15.66-5.09.66q-2.43 0-4.47-.45c-1.36-.3-2.48-.63-3.36-1l1.8-8.24c1.06.37 2.01.62 2.84.76s1.71.21 2.63.21c1.85 0 3.27-.5 4.26-1.49s1.84-2.37 2.53-4.12c-2.36-4.61-4.71-9.79-7.07-15.54-2.35-5.75-4.57-12.19-6.65-19.35h10.94c.46 1.8 1.01 3.75 1.63 5.85s1.29 4.22 1.98 6.37 1.4 4.23 2.12 6.26 1.4 3.88 2.05 5.54c.6-1.66 1.23-3.51 1.88-5.54s1.29-4.12 1.91-6.26c.62-2.15 1.23-4.27 1.81-6.37q.87-3.15 1.56-5.85h10.67Zm15.92 29c1.89 0 3.23-.18 4.02-.55.78-.37 1.18-1.08 1.18-2.15 0-.83-.51-1.56-1.52-2.18-1.02-.62-2.56-1.33-4.64-2.11-1.62-.6-3.08-1.22-4.4-1.87-1.31-.65-2.43-1.42-3.36-2.32-.92-.9-1.64-1.97-2.15-3.22s-.76-2.75-.76-4.5c0-3.42 1.27-6.11 3.81-8.1 2.54-1.98 6.02-2.98 10.45-2.98 2.22 0 4.34.2 6.37.59s3.65.82 4.85 1.28l-1.8 8.03c-1.2-.42-2.5-.78-3.91-1.11q-2.115-.48-4.74-.48c-3.23 0-4.85.9-4.85 2.7q0 .63.21 1.11c.14.32.42.64.83.93.42.3.98.63 1.7.97.71.35 1.63.73 2.73 1.15 2.26.84 4.13 1.66 5.61 2.48 1.48.81 2.64 1.69 3.5 2.64.85.94 1.45 1.99 1.8 3.14s.52 2.49.52 4.01c0 3.59-1.35 6.31-4.05 8.15q-4.05 2.76-11.46 2.76c-3.23 0-5.92-.28-8.06-.83s-3.63-1.01-4.47-1.38l1.73-8.38c1.75.69 3.55 1.24 5.4 1.63s3.67.59 5.47.59Zm34.4-39.52c0 1.89-.61 3.38-1.83 4.46s-2.67 1.63-4.33 1.63-3.1-.54-4.33-1.63c-1.22-1.08-1.83-2.57-1.83-4.46s.61-3.38 1.83-4.46 2.67-1.63 4.33-1.63 3.1.54 4.33 1.63c1.22 1.08 1.83 2.57 1.83 4.46m-.97 46.93h-10.31v-36.41h10.31zm7.97-18.21c0-2.63.43-5.11 1.28-7.44s2.09-4.36 3.7-6.09c1.62-1.73 3.58-3.1 5.88-4.12 2.31-1.01 4.94-1.52 7.89-1.52 1.94 0 3.71.17 5.33.52 1.61.35 3.18.84 4.71 1.49l-2.15 8.24c-.97-.37-2.03-.69-3.18-.97s-2.45-.42-3.88-.42c-3.05 0-5.32.95-6.82 2.84s-2.25 4.38-2.25 7.48c0 3.28.7 5.81 2.11 7.61s3.86 2.7 7.37 2.7c1.25 0 2.58-.11 4.02-.35 1.43-.23 2.75-.6 3.95-1.11l1.45 8.45q-1.8.765-4.5 1.32c-2.7.555-3.78.55-5.95.55-3.32 0-6.19-.5-8.58-1.49-2.4-.99-4.37-2.34-5.92-4.05q-2.325-2.565-3.39-6.06c-.72-2.33-1.07-4.86-1.07-7.58m47.69-19.17c3.05 0 5.58.35 7.61 1.04s3.66 1.69 4.88 2.98 2.09 2.86 2.6 4.71.76 3.9.76 6.16v21.46c-1.48.32-3.53.7-6.16 1.14s-5.81.66-9.55.66c-2.35 0-4.49-.21-6.4-.62q-2.88-.63-4.95-2.04a9.34 9.34 0 0 1-3.18-3.7q-1.11-2.28-1.11-5.61c0-3.33.43-3.92 1.28-5.4s2-2.65 3.43-3.53 3.07-1.51 4.92-1.9 3.76-.59 5.75-.59c1.34 0 2.53.06 3.56.17 1.04.12 1.88.27 2.53.45v-.97c0-1.75-.53-3.16-1.59-4.22s-2.91-1.59-5.54-1.59c-1.75 0-3.48.13-5.19.38s-3.18.61-4.43 1.07l-1.32-8.31c.6-.18 1.35-.38 2.25-.59s1.88-.39 2.94-.55q1.59-.24 3.36-.42c1.18-.11 2.36-.17 3.56-.17Zm.83 30.18c1.01 0 1.98-.02 2.91-.07q1.38-.075 2.22-.21v-7.82c-.42-.09-1.04-.18-1.87-.28-.83-.09-1.59-.14-2.28-.14-.97 0-1.88.06-2.73.17-.85.12-1.6.33-2.25.66-.65.32-1.15.76-1.52 1.32-.37.55-.55 1.25-.55 2.08 0 1.62.54 2.73 1.63 3.36q1.62.93 4.47.93Zm38.91 7.89c-3-.05-5.43-.37-7.3-.97s-3.35-1.44-4.43-2.53c-1.08-1.08-1.82-2.4-2.22-3.95-.39-1.55-.59-3.29-.59-5.23v-40.08l10.31-1.66v39.67q0 1.38.21 2.49c.14.74.4 1.36.8 1.87.39.51.96.92 1.7 1.25.74.32 1.73.53 2.98.62l-1.45 8.51Z" style="fill:#fff"/><rect width="1008.88" height="91.24" x="28.31" y="31.06" rx="19.28" ry="19.28" style="fill:#a3ea2a;stroke:#a3ea2a;stroke-miterlimit:10;stroke-width:3.77px"/><path d="M71.77 101.97c.32-3.93 1-8.03 2.02-12.29s2.28-8.44 3.76-12.53c1.48-4.1 3.14-7.96 4.97-11.6q2.745-5.46 5.58-9.42H63.76V45.86h39.21v8.73c-1.73 1.89-3.63 4.5-5.7 7.84-2.08 3.34-4.04 7.13-5.9 11.36s-3.48 8.77-4.85 13.62q-2.055 7.275-2.55 14.55H71.76Zm51.91-6.39c0 2.43-.77 4.27-2.3 5.54-1.54 1.27-3.27 1.9-5.21 1.9s-3.68-.63-5.22-1.9-2.3-3.11-2.3-5.54.77-4.27 2.3-5.54c1.54-1.27 3.27-1.9 5.22-1.9s3.68.63 5.21 1.9c1.54 1.27 2.3 3.11 2.3 5.54m257.7 2.75c-.53-1.67-1.11-3.38-1.72-5.14s-1.23-3.51-1.84-5.25h-18.74c-.61 1.75-1.21 3.5-1.82 5.26s-1.18 3.47-1.7 5.12h-11.21c1.81-5.17 3.52-9.94 5.14-14.33 1.62-4.38 3.21-8.51 4.76-12.39s3.08-7.56 4.58-11.04 3.07-6.89 4.69-10.21h10.24c1.58 3.32 3.13 6.73 4.66 10.21q2.295 5.235 4.62 11.04c1.55 3.88 3.14 8.01 4.76 12.39 1.62 4.39 3.34 9.16 5.15 14.33h-11.57Zm-12.97-37.1c-.24.7-.59 1.64-1.06 2.84-.46 1.2-.99 2.58-1.58 4.16s-1.26 3.3-1.99 5.19-1.48 3.87-2.23 5.94h13.72c-.73-2.08-1.45-4.07-2.13-5.96-.69-1.9-1.34-3.63-1.96-5.2s-1.16-2.96-1.63-4.15c-.47-1.2-.84-2.14-1.13-2.82Zm63.86 18.89c0 2.82-.35 5.38-1.04 7.68-.69 2.31-1.71 4.29-3.05 5.95s-3 2.95-4.98 3.88c-1.98.92-4.27 1.38-6.85 1.38-1.43 0-2.77-.14-4.01-.42-1.25-.28-2.45-.67-3.6-1.18v13.71h-10.31V63.15c.92-.28 1.98-.54 3.18-.8 1.2-.25 2.46-.47 3.77-.66 1.32-.18 2.65-.33 4.02-.45 1.36-.11 2.67-.17 3.91-.17 3 0 5.68.45 8.03 1.35s4.34 2.17 5.95 3.81 2.85 3.63 3.7 5.99c.85 2.35 1.28 4.98 1.28 7.89Zm-10.52.28c0-3.18-.72-5.73-2.15-7.65-1.43-1.91-3.55-2.87-6.37-2.87-.92 0-1.78.03-2.56.1-.79.07-1.43.15-1.94.24v18.62c.65.42 1.49.76 2.53 1.04q1.56.42 3.15.42c4.89 0 7.34-3.3 7.34-9.9m52.33-.28c0 2.82-.35 5.38-1.04 7.68-.69 2.31-1.71 4.29-3.05 5.95s-3 2.95-4.98 3.88c-1.98.92-4.27 1.38-6.85 1.38-1.43 0-2.77-.14-4.01-.42-1.25-.28-2.45-.67-3.6-1.18v13.71h-10.31V63.15c.92-.28 1.98-.54 3.18-.8 1.2-.25 2.46-.47 3.77-.66 1.32-.18 2.65-.33 4.02-.45 1.36-.11 2.67-.17 3.91-.17 3 0 5.68.45 8.03 1.35s4.34 2.17 5.95 3.81 2.85 3.63 3.7 5.99c.85 2.35 1.28 4.98 1.28 7.89Zm-10.52.28c0-3.18-.72-5.73-2.15-7.65-1.43-1.91-3.55-2.87-6.37-2.87-.92 0-1.78.03-2.56.1-.79.07-1.43.15-1.94.24v18.62c.65.42 1.49.76 2.53 1.04q1.56.42 3.15.42c4.89 0 7.34-3.3 7.34-9.9m33.02 18.62c-3-.05-5.43-.37-7.3-.97s-3.35-1.44-4.43-2.53c-1.08-1.08-1.82-2.4-2.22-3.95-.39-1.55-.59-3.29-.59-5.23V46.26l10.31-1.66v39.67q0 1.38.21 2.49c.14.74.4 1.36.8 1.87.39.51.96.92 1.7 1.25.74.32 1.73.53 2.98.62l-1.45 8.51ZM515.2 51.4c0 1.89-.61 3.38-1.83 4.46s-2.67 1.63-4.33 1.63-3.1-.54-4.33-1.63c-1.22-1.08-1.83-2.57-1.83-4.46s.61-3.38 1.83-4.46 2.67-1.63 4.33-1.63 3.1.54 4.33 1.63c1.22 1.08 1.83 2.57 1.83 4.46m-.97 46.93h-10.31V61.92h10.31zm7.96-18.21c0-2.63.43-5.11 1.28-7.44s2.09-4.36 3.7-6.09c1.62-1.73 3.58-3.1 5.88-4.12 2.31-1.01 4.94-1.52 7.89-1.52 1.94 0 3.71.17 5.33.52 1.61.35 3.18.84 4.71 1.49l-2.15 8.24c-.97-.37-2.03-.69-3.18-.97s-2.45-.42-3.88-.42c-3.05 0-5.32.95-6.82 2.84s-2.25 4.38-2.25 7.48c0 3.28.7 5.81 2.11 7.61s3.86 2.7 7.37 2.7c1.25 0 2.58-.11 4.02-.35 1.43-.23 2.75-.6 3.95-1.11l1.45 8.45q-1.8.765-4.5 1.32c-2.7.555-3.78.55-5.95.55-3.32 0-6.19-.5-8.58-1.49-2.4-.99-4.37-2.34-5.92-4.05q-2.325-2.565-3.39-6.06c-.72-2.33-1.07-4.86-1.07-7.58m47.69-19.17c3.05 0 5.58.35 7.61 1.04s3.66 1.69 4.88 2.98 2.09 2.86 2.6 4.71.76 3.9.76 6.16V97.3c-1.48.32-3.53.7-6.16 1.14s-5.81.66-9.55.66c-2.35 0-4.49-.21-6.4-.62q-2.88-.63-4.95-2.04a9.34 9.34 0 0 1-3.18-3.7q-1.11-2.28-1.11-5.61c0-3.33.43-3.92 1.28-5.4s2-2.65 3.43-3.53 3.07-1.51 4.92-1.9 3.76-.59 5.75-.59c1.34 0 2.53.06 3.56.17 1.04.12 1.88.27 2.53.45v-.97c0-1.75-.53-3.16-1.59-4.22s-2.91-1.59-5.54-1.59c-1.75 0-3.48.13-5.19.38s-3.18.61-4.43 1.07l-1.32-8.31c.6-.18 1.35-.38 2.25-.59s1.88-.39 2.94-.55q1.59-.24 3.36-.42c1.18-.11 2.36-.17 3.56-.17Zm.83 30.18c1.01 0 1.98-.02 2.91-.07q1.38-.075 2.22-.21v-7.82c-.42-.09-1.04-.18-1.87-.28-.83-.09-1.59-.14-2.28-.14-.97 0-1.88.06-2.73.17-.85.12-1.6.33-2.25.66-.65.32-1.15.76-1.52 1.32-.37.55-.55 1.25-.55 2.08 0 1.62.54 2.73 1.63 3.36q1.62.93 4.47.93Zm24.03-38.28 10.31-1.66v10.73h12.39v8.58h-12.39v12.81q0 3.255 1.14 5.19c.76 1.29 2.29 1.94 4.6 1.94 1.11 0 2.25-.1 3.43-.31s2.25-.5 3.22-.87l1.45 8.03c-1.25.51-2.63.95-4.15 1.32s-3.39.55-5.61.55q-4.23 0-6.99-1.14c-1.85-.76-3.32-1.82-4.43-3.18s-1.88-3.01-2.32-4.95-.66-4.08-.66-6.44v-30.6Zm42.36-1.45c0 1.89-.61 3.38-1.83 4.46s-2.67 1.63-4.33 1.63-3.1-.54-4.33-1.63c-1.22-1.08-1.83-2.57-1.83-4.46s.61-3.38 1.83-4.46 2.67-1.63 4.33-1.63 3.1.54 4.33 1.63c1.22 1.08 1.83 2.57 1.83 4.46m-.97 46.93h-10.31V61.92h10.31zm43.75-18.27c0 2.86-.42 5.48-1.25 7.86q-1.245 3.57-3.6 6.09a16.2 16.2 0 0 1-5.64 3.91c-2.19.92-4.65 1.38-7.37 1.38s-5.11-.46-7.3-1.38-4.07-2.23-5.64-3.91-2.79-3.71-3.67-6.09-1.31-5-1.31-7.86.45-5.47 1.35-7.82 2.15-4.36 3.74-6.02 3.48-2.95 5.68-3.88c2.19-.92 4.58-1.38 7.16-1.38s5.04.46 7.23 1.38 4.07 2.21 5.64 3.88c1.57 1.66 2.79 3.67 3.67 6.02s1.32 4.96 1.32 7.82Zm-10.52 0c0-3.18-.63-5.69-1.9-7.51q-1.905-2.73-5.43-2.73c-3.525 0-4.18.91-5.47 2.73s-1.94 4.33-1.94 7.51.65 5.71 1.94 7.58 3.12 2.8 5.47 2.8 4.16-.93 5.43-2.8 1.9-4.4 1.9-7.58m18.48-16.9c1.75-.51 4.02-.98 6.78-1.42 2.77-.44 5.68-.66 8.72-.66s5.66.4 7.72 1.21c2.05.81 3.68 1.95 4.88 3.43s2.05 3.23 2.56 5.26.76 4.29.76 6.78v20.56h-10.31V79.01c0-3.32-.44-5.68-1.32-7.06s-2.52-2.08-4.92-2.08c-.74 0-1.52.03-2.35.1s-1.57.15-2.22.24v28.11h-10.31V63.15Z" style="fill:#151c2b"/><rect width="1008.88" height="91.24" x="28.31" y="138.96" rx="19.28" ry="19.28" style="fill:#3bc81e;stroke:#3bc81e;stroke-miterlimit:10;stroke-width:3.77px"/><path d="M83.98 174.13c3.5 0 6.48.47 8.93 1.42 2.45.94 4.46 2.22 6.02 3.84s2.69 3.5 3.4 5.66q1.05 3.24 1.05 6.87 0 3.24-1.17 6.63c-.78 2.26-1.97 4.31-3.56 6.14q-2.385 2.745-6.06 4.53c-2.45 1.18-5.35 1.78-8.69 1.78q-10.11 0-15.36-6.39c-3.5-4.26-5.26-10.13-5.26-17.62 0-5.39.84-10.16 2.51-14.31s4.06-7.64 7.16-10.47 6.84-4.99 11.24-6.47c4.39-1.48 9.34-2.25 14.84-2.3.11 1.67.21 3.3.32 4.89s.21 3.25.32 4.97c-2.75.05-5.32.31-7.72.77s-4.58 1.17-6.55 2.14-3.68 2.22-5.13 3.76-2.59 3.41-3.4 5.62c1.18-.54 2.4-.92 3.64-1.13s2.4-.32 3.48-.32Zm-1.54 9.38c-1.19 0-2.45.11-3.8.32-1.35.22-2.4.51-3.15.89 0 .22-.01.54-.04.97s-.04.81-.04 1.13c0 1.94.13 3.77.4 5.5s.73 3.23 1.37 4.53c.65 1.29 1.51 2.3 2.59 3.03s2.43 1.09 4.04 1.09c1.35 0 2.49-.28 3.44-.85.94-.57 1.72-1.28 2.34-2.14a9 9 0 0 0 1.37-2.87c.3-1.05.44-2.06.44-3.03 0-2.75-.69-4.86-2.06-6.35-1.37-1.48-3.68-2.22-6.91-2.22Zm41.24 19.97c0 2.43-.77 4.27-2.3 5.54-1.54 1.27-3.27 1.9-5.21 1.9s-3.68-.63-5.22-1.9-2.3-3.11-2.3-5.54.77-4.27 2.3-5.54c1.54-1.27 3.27-1.9 5.22-1.9s3.68.63 5.21 1.9c1.54 1.27 2.3 3.11 2.3 5.54m239.92-45.77c7.15 0 12.64 1.26 16.48 3.77 3.83 2.52 5.75 6.63 5.75 12.36s-1.94 9.93-5.81 12.5-9.41 3.84-16.61 3.84h-3.39v16.06h-10.8v-47.28c2.35-.46 4.85-.78 7.48-.97 2.63-.18 4.94-.28 6.92-.28Zm.69 9.21c-.79 0-1.56.02-2.32.07s-1.42.09-1.97.14v13.84h3.39c3.74 0 6.55-.51 8.45-1.52 1.89-1.01 2.84-2.91 2.84-5.68 0-1.34-.24-2.45-.73-3.32-.48-.88-1.18-1.58-2.08-2.11s-2-.9-3.29-1.11-2.72-.31-4.29-.31m50.74 12.04c-.92-.23-2.01-.47-3.25-.73-1.25-.25-2.58-.38-4.02-.38-.65 0-1.42.06-2.32.17s-1.58.24-2.04.38v27.83h-10.31v-34.47q2.775-.975 6.54-1.83c2.51-.58 5.32-.87 8.41-.87.55 0 1.22.03 2.01.1.78.07 1.57.16 2.35.28s1.57.25 2.35.42c.78.16 1.45.36 2.01.59zm4.85 9.35c0-3.23.5-6.06 1.49-8.48s2.3-4.44 3.91-6.06 3.47-2.84 5.57-3.67 4.26-1.25 6.47-1.25c5.17 0 9.25 1.58 12.25 4.74q4.5 4.74 4.5 13.95c0 .6-.02 1.26-.07 1.97-.05.72-.09 1.35-.14 1.9h-23.4c.23 2.12 1.22 3.81 2.98 5.05 1.75 1.25 4.11 1.87 7.06 1.87 1.89 0 3.75-.17 5.57-.52s3.31-.77 4.46-1.28l1.38 8.38c-.55.28-1.29.55-2.22.83-.92.28-1.95.52-3.08.73s-2.34.38-3.63.52-2.58.21-3.88.21c-3.28 0-6.13-.48-8.55-1.45s-4.43-2.3-6.02-3.98-2.77-3.68-3.53-5.99-1.14-4.8-1.14-7.48Zm24.23-3.95c-.05-.88-.2-1.73-.45-2.56a6.3 6.3 0 0 0-1.18-2.21q-.795-.975-2.01-1.59c-.81-.42-1.81-.62-3.01-.62s-2.15.2-2.98.59-1.52.91-2.08 1.56-.98 1.4-1.28 2.25-.52 1.72-.66 2.6h13.64Zm28.38 14.47c1.89 0 3.23-.18 4.02-.55.78-.37 1.18-1.08 1.18-2.15 0-.83-.51-1.56-1.52-2.18-1.02-.62-2.56-1.33-4.64-2.11-1.62-.6-3.08-1.22-4.4-1.87-1.31-.65-2.43-1.42-3.36-2.32-.92-.9-1.64-1.97-2.15-3.22s-.76-2.75-.76-4.5c0-3.42 1.27-6.11 3.81-8.1 2.54-1.98 6.02-2.98 10.45-2.98 2.22 0 4.34.2 6.37.59s3.65.82 4.85 1.28l-1.8 8.03c-1.2-.42-2.5-.78-3.91-1.11q-2.115-.48-4.74-.48c-3.23 0-4.85.9-4.85 2.7q0 .63.21 1.11c.14.32.42.64.83.93.42.3.98.63 1.7.97.71.35 1.63.73 2.73 1.15 2.26.84 4.13 1.66 5.61 2.48 1.48.81 2.64 1.69 3.5 2.64.85.94 1.45 1.99 1.8 3.14s.52 2.49.52 4.01c0 3.59-1.35 6.31-4.05 8.15q-4.05 2.76-11.46 2.76c-3.23 0-5.92-.28-8.06-.83s-3.63-1.01-4.47-1.38l1.73-8.38c1.75.69 3.55 1.24 5.4 1.63s3.67.59 5.47.59Zm21.39-10.52c0-3.23.5-6.06 1.49-8.48s2.3-4.44 3.91-6.06 3.47-2.84 5.57-3.67 4.26-1.25 6.47-1.25c5.17 0 9.25 1.58 12.25 4.74q4.5 4.74 4.5 13.95c0 .6-.02 1.26-.07 1.97-.05.72-.09 1.35-.14 1.9h-23.4c.23 2.12 1.22 3.81 2.98 5.05 1.75 1.25 4.11 1.87 7.06 1.87 1.89 0 3.75-.17 5.57-.52s3.31-.77 4.46-1.28l1.38 8.38c-.55.28-1.29.55-2.22.83-.92.28-1.95.52-3.08.73s-2.34.38-3.63.52-2.58.21-3.88.21c-3.28 0-6.13-.48-8.55-1.45s-4.43-2.3-6.02-3.98-2.77-3.68-3.53-5.99-1.14-4.8-1.14-7.48Zm24.23-3.95c-.05-.88-.2-1.73-.45-2.56a6.3 6.3 0 0 0-1.18-2.21q-.795-.975-2.01-1.59c-.81-.42-1.81-.62-3.01-.62s-2.15.2-2.98.59-1.52.91-2.08 1.56-.98 1.4-1.28 2.25-.52 1.72-.66 2.6h13.64Zm17.92-13.29c1.75-.51 4.02-.98 6.78-1.42 2.77-.44 5.68-.66 8.72-.66s5.66.4 7.72 1.21c2.05.81 3.68 1.95 4.88 3.43s2.05 3.23 2.56 5.26.76 4.29.76 6.78v20.56h-10.31v-19.31c0-3.32-.44-5.68-1.32-7.06s-2.52-2.08-4.92-2.08c-.74 0-1.52.03-2.35.1s-1.57.15-2.22.24v28.11h-10.31v-35.17Zm40.43-10.32 10.31-1.66v10.73h12.39v8.58h-12.39v12.81q0 3.255 1.14 5.19c.76 1.29 2.29 1.94 4.6 1.94 1.11 0 2.25-.1 3.43-.31s2.25-.5 3.22-.87l1.45 8.03c-1.25.51-2.63.95-4.15 1.32s-3.39.55-5.61.55q-4.23 0-6.99-1.14c-1.85-.76-3.32-1.82-4.43-3.18s-1.88-3.01-2.32-4.95-.66-4.08-.66-6.44v-30.6Zm42.78 8.1c3.05 0 5.58.35 7.61 1.04s3.66 1.69 4.88 2.98 2.09 2.86 2.6 4.71.76 3.9.76 6.16v21.46c-1.48.32-3.53.7-6.16 1.14s-5.81.66-9.55.66c-2.35 0-4.49-.21-6.4-.62q-2.88-.63-4.95-2.04a9.34 9.34 0 0 1-3.18-3.7q-1.11-2.28-1.11-5.61c0-3.33.43-3.92 1.28-5.4s2-2.65 3.43-3.53 3.07-1.51 4.92-1.9 3.76-.59 5.75-.59c1.34 0 2.53.06 3.56.17 1.04.12 1.88.27 2.53.45v-.97c0-1.75-.53-3.16-1.59-4.22s-2.91-1.59-5.54-1.59c-1.75 0-3.48.13-5.19.38s-3.18.61-4.43 1.07l-1.32-8.31c.6-.18 1.35-.38 2.25-.59s1.88-.39 2.94-.55q1.59-.24 3.36-.42c1.18-.11 2.36-.17 3.56-.17Zm.83 30.18c1.01 0 1.98-.02 2.91-.07q1.38-.075 2.22-.21v-7.82c-.42-.09-1.04-.18-1.87-.28-.83-.09-1.59-.14-2.28-.14-.97 0-1.88.06-2.73.17-.85.12-1.6.33-2.25.66-.65.32-1.15.76-1.52 1.32-.37.55-.55 1.25-.55 2.08 0 1.62.54 2.73 1.63 3.36q1.62.93 4.47.93Zm24.02-38.28 10.31-1.66v10.73h12.39v8.58H654.4v12.81q0 3.255 1.14 5.19c.76 1.29 2.29 1.94 4.6 1.94 1.11 0 2.25-.1 3.43-.31s2.25-.5 3.22-.87l1.45 8.03c-1.25.51-2.63.95-4.15 1.32s-3.39.55-5.61.55q-4.23 0-6.99-1.14c-1.85-.76-3.32-1.82-4.43-3.18s-1.88-3.01-2.32-4.95-.66-4.08-.66-6.44v-30.6Zm42.37-1.45c0 1.89-.61 3.38-1.83 4.46s-2.67 1.63-4.33 1.63-3.1-.54-4.33-1.63c-1.22-1.08-1.83-2.57-1.83-4.46s.61-3.38 1.83-4.46 2.67-1.63 4.33-1.63 3.1.54 4.33 1.63c1.22 1.08 1.83 2.57 1.83 4.46m-.97 46.93h-10.31v-36.41h10.31zm43.75-18.27c0 2.86-.42 5.48-1.25 7.86q-1.245 3.57-3.6 6.09a16.2 16.2 0 0 1-5.64 3.91c-2.19.92-4.65 1.38-7.37 1.38s-5.11-.46-7.3-1.38-4.07-2.23-5.64-3.91-2.79-3.71-3.67-6.09-1.31-5-1.31-7.86.45-5.47 1.35-7.82 2.15-4.36 3.74-6.02 3.48-2.95 5.68-3.88c2.19-.92 4.58-1.38 7.16-1.38s5.04.46 7.23 1.38 4.07 2.21 5.64 3.88c1.57 1.66 2.79 3.67 3.67 6.02s1.32 4.96 1.32 7.82Zm-10.52 0c0-3.18-.63-5.69-1.9-7.51q-1.905-2.73-5.43-2.73c-3.525 0-4.18.91-5.47 2.73s-1.94 4.33-1.94 7.51.65 5.71 1.94 7.58 3.12 2.8 5.47 2.8 4.16-.93 5.43-2.8 1.9-4.4 1.9-7.58m18.48-16.89c1.75-.51 4.02-.98 6.78-1.42 2.77-.44 5.68-.66 8.72-.66s5.66.4 7.72 1.21c2.05.81 3.68 1.95 4.88 3.43s2.05 3.23 2.56 5.26.76 4.29.76 6.78v20.56h-10.31v-19.31c0-3.32-.44-5.68-1.32-7.06s-2.52-2.08-4.92-2.08c-.74 0-1.52.03-2.35.1s-1.57.15-2.22.24v28.11h-10.31v-35.17Z" style="fill:#151c2b"/><rect width="1008.88" height="91.24" x="28.31" y="253.86" rx="19.28" ry="19.28" style="fill:#02adef;stroke:#02adef;stroke-miterlimit:10;stroke-width:3.77px"/><path d="M89.4 308.27c0-1.56-.35-2.95-1.05-4.16s-1.91-2.22-3.64-3.03-4.04-1.43-6.95-1.86-6.58-.65-11-.65c.59-5.01 1.08-10.11 1.46-15.28s.67-10.03.89-14.55h30.32v10.11H79.22c-.11 1.94-.23 3.81-.36 5.62-.14 1.81-.28 3.38-.44 4.73 7.87.54 13.68 2.39 17.42 5.54 3.75 3.15 5.62 7.53 5.62 13.14 0 2.59-.46 4.99-1.37 7.2-.92 2.21-2.29 4.12-4.12 5.74s-4.14 2.88-6.91 3.8c-2.78.92-6.02 1.38-9.74 1.38-1.46 0-2.98-.09-4.57-.28s-3.13-.43-4.61-.73-2.82-.61-4-.93c-1.19-.32-2.1-.65-2.75-.97l2.18-9.94q2.025.885 5.34 1.74c2.21.57 4.85.85 7.92.85 3.72 0 6.41-.74 8.09-2.22 1.67-1.48 2.51-3.22 2.51-5.21Zm34.28 10.11c0 2.43-.77 4.27-2.3 5.54-1.54 1.27-3.27 1.9-5.21 1.9s-3.68-.63-5.22-1.9-2.3-3.11-2.3-5.54.77-4.27 2.3-5.54c1.54-1.27 3.27-1.9 5.22-1.9s3.68.63 5.21 1.9c1.54 1.27 2.3 3.11 2.3 5.54m238.6-5.49c1.52 0 2.78-.13 3.77-.38s1.79-.6 2.39-1.04 1.01-.96 1.25-1.56c.23-.6.35-1.27.35-2.01 0-1.57-.74-2.87-2.22-3.91s-4.02-2.16-7.61-3.36c-1.57-.55-3.14-1.19-4.71-1.9s-2.98-1.61-4.22-2.7c-1.25-1.08-2.26-2.4-3.05-3.95s-1.18-3.43-1.18-5.64.42-4.21 1.25-5.99 2.01-3.29 3.53-4.53 3.37-2.2 5.54-2.87 4.61-1 7.34-1c3.23 0 6.02.35 8.38 1.04 2.35.69 4.29 1.45 5.81 2.28l-3.12 8.51q-2.01-1.035-4.47-1.83c-1.64-.53-3.61-.8-5.92-.8-2.59 0-4.44.36-5.57 1.07-1.13.72-1.7 1.81-1.7 3.29 0 .88.21 1.62.62 2.22.42.6 1 1.14 1.77 1.63.76.49 1.64.92 2.63 1.32.99.39 2.09.8 3.29 1.21q3.735 1.38 6.51 2.73c1.85.9 3.38 1.95 4.6 3.15s2.13 2.61 2.73 4.22q.9 2.43.9 5.88c0 4.48-1.57 7.95-4.71 10.42s-7.87 3.7-14.19 3.7c-2.12 0-4.04-.13-5.75-.38s-3.22-.57-4.53-.93c-1.32-.37-2.45-.76-3.39-1.18-.95-.42-1.74-.81-2.39-1.18l3.05-8.58c1.43.79 3.19 1.49 5.3 2.11 2.1.62 4.67.93 7.72.93Zm24.78-9.69c0-3.23.5-6.06 1.49-8.48s2.3-4.44 3.91-6.06 3.47-2.84 5.57-3.67 4.26-1.25 6.47-1.25c5.17 0 9.25 1.58 12.25 4.74q4.5 4.74 4.5 13.95c0 .6-.02 1.26-.07 1.97-.05.72-.09 1.35-.14 1.9h-23.4c.23 2.12 1.22 3.81 2.98 5.05 1.75 1.25 4.11 1.87 7.06 1.87 1.89 0 3.75-.17 5.57-.52s3.31-.77 4.46-1.28l1.38 8.38c-.55.28-1.29.55-2.22.83-.92.28-1.95.52-3.08.73s-2.34.38-3.63.52-2.58.21-3.88.21c-3.28 0-6.13-.48-8.55-1.45s-4.43-2.3-6.02-3.98-2.77-3.68-3.53-5.99-1.14-4.8-1.14-7.48Zm24.23-3.95c-.05-.88-.2-1.73-.45-2.56a6.3 6.3 0 0 0-1.18-2.21q-.795-.975-2.01-1.59c-.81-.42-1.81-.62-3.01-.62s-2.15.2-2.98.59-1.52.91-2.08 1.56-.98 1.4-1.28 2.25-.52 1.72-.66 2.6h13.64Zm28.38 14.47c1.89 0 3.23-.18 4.02-.55.78-.37 1.18-1.08 1.18-2.15 0-.83-.51-1.56-1.52-2.18-1.02-.62-2.56-1.33-4.64-2.11-1.62-.6-3.08-1.22-4.4-1.87-1.31-.65-2.43-1.42-3.36-2.32-.92-.9-1.64-1.97-2.15-3.22s-.76-2.75-.76-4.5c0-3.42 1.27-6.11 3.81-8.1 2.54-1.98 6.02-2.98 10.45-2.98 2.22 0 4.34.2 6.37.59s3.65.82 4.85 1.28l-1.8 8.03c-1.2-.42-2.5-.78-3.91-1.11q-2.115-.48-4.74-.48c-3.23 0-4.85.9-4.85 2.7q0 .63.21 1.11c.14.32.42.64.83.93.42.3.98.63 1.7.97.71.35 1.63.73 2.73 1.15 2.26.84 4.13 1.66 5.61 2.48 1.48.81 2.64 1.69 3.5 2.64.85.94 1.45 1.99 1.8 3.14s.52 2.49.52 4.01c0 3.59-1.35 6.31-4.05 8.15q-4.05 2.76-11.46 2.76c-3.23 0-5.92-.28-8.06-.83s-3.63-1.01-4.47-1.38l1.73-8.38c1.75.69 3.55 1.24 5.4 1.63s3.67.59 5.47.59Zm33.58 0c1.89 0 3.23-.18 4.02-.55.78-.37 1.18-1.08 1.18-2.15 0-.83-.51-1.56-1.52-2.18-1.02-.62-2.56-1.33-4.64-2.11-1.62-.6-3.08-1.22-4.4-1.87-1.31-.65-2.43-1.42-3.36-2.32-.92-.9-1.64-1.97-2.15-3.22s-.76-2.75-.76-4.5c0-3.42 1.27-6.11 3.81-8.1 2.54-1.98 6.02-2.98 10.45-2.98 2.22 0 4.34.2 6.37.59s3.65.82 4.85 1.28l-1.8 8.03c-1.2-.42-2.5-.78-3.91-1.11q-2.115-.48-4.74-.48c-3.23 0-4.85.9-4.85 2.7q0 .63.21 1.11c.14.32.42.64.83.93.42.3.98.63 1.7.97.71.35 1.63.73 2.73 1.15 2.26.84 4.13 1.66 5.61 2.48 1.48.81 2.64 1.69 3.5 2.64.85.94 1.45 1.99 1.8 3.14s.52 2.49.52 4.01c0 3.59-1.35 6.31-4.05 8.15q-4.05 2.76-11.46 2.76c-3.23 0-5.92-.28-8.06-.83s-3.63-1.01-4.47-1.38l1.73-8.38c1.75.69 3.55 1.24 5.4 1.63s3.67.59 5.47.59Zm34.4-39.53c0 1.89-.61 3.38-1.83 4.46s-2.67 1.63-4.33 1.63-3.1-.54-4.33-1.63c-1.22-1.08-1.83-2.57-1.83-4.46s.61-3.38 1.83-4.46 2.67-1.63 4.33-1.63 3.1.54 4.33 1.63c1.22 1.08 1.83 2.57 1.83 4.46m-.97 46.93h-10.31v-36.41h10.31zm43.75-18.27c0 2.86-.42 5.48-1.25 7.86q-1.245 3.57-3.6 6.09a16.2 16.2 0 0 1-5.64 3.91c-2.19.92-4.65 1.38-7.37 1.38s-5.11-.46-7.3-1.38-4.07-2.23-5.64-3.91-2.79-3.71-3.67-6.09-1.31-5-1.31-7.86.45-5.47 1.35-7.82 2.15-4.36 3.74-6.02 3.48-2.95 5.68-3.88c2.19-.92 4.58-1.38 7.16-1.38s5.04.46 7.23 1.38 4.07 2.21 5.64 3.88c1.57 1.66 2.79 3.67 3.67 6.02s1.32 4.96 1.32 7.82Zm-10.52 0c0-3.18-.63-5.69-1.9-7.51q-1.905-2.73-5.43-2.73c-3.525 0-4.18.91-5.47 2.73s-1.94 4.33-1.94 7.51.65 5.71 1.94 7.58 3.12 2.8 5.47 2.8 4.16-.93 5.43-2.8 1.9-4.4 1.9-7.58m18.48-16.89c1.75-.51 4.02-.98 6.78-1.42 2.77-.44 5.68-.66 8.72-.66s5.66.4 7.72 1.21c2.05.81 3.68 1.95 4.88 3.43s2.05 3.23 2.56 5.26.76 4.29.76 6.78v20.56H579.5v-19.31c0-3.32-.44-5.68-1.32-7.06s-2.52-2.08-4.92-2.08c-.74 0-1.52.03-2.35.1s-1.57.15-2.22.24v28.11h-10.31v-35.17Z" style="fill:#151c2b"/><rect width="1008.88" height="91.24" x="28.31" y="475.16" rx="19.28" ry="19.28" style="fill:#223654;stroke:#223654;stroke-miterlimit:10;stroke-width:3.77px"/><path d="M80.6 547.28c-1.46 0-2.99-.09-4.61-.28s-3.18-.44-4.69-.77c-1.51-.32-2.88-.67-4.12-1.05q-1.86-.57-2.91-1.05l2.34-10.03c1.4.59 3.19 1.23 5.38 1.9 2.18.67 4.89 1.01 8.13 1.01 3.72 0 6.44-.7 8.17-2.1 1.72-1.4 2.59-3.29 2.59-5.66 0-1.46-.31-2.68-.93-3.68s-1.47-1.8-2.55-2.43q-1.62-.93-3.84-1.29c-1.48-.24-3.06-.36-4.73-.36h-4.69v-9.7h5.34c1.19 0 2.33-.11 3.44-.32 1.1-.21 2.09-.58 2.95-1.09s1.55-1.21 2.06-2.1.77-2.01.77-3.36c0-1.02-.22-1.91-.65-2.67-.43-.75-.98-1.38-1.66-1.86-.67-.48-1.46-.85-2.34-1.09-.89-.24-1.79-.36-2.71-.36-2.32 0-4.46.35-6.43 1.05s-3.76 1.56-5.38 2.59l-4.29-8.81c.86-.54 1.87-1.1 3.03-1.7q1.74-.885 3.84-1.62c1.4-.49 2.9-.89 4.49-1.21s3.27-.49 5.05-.49c3.29 0 6.13.39 8.53 1.17s4.38 1.88 5.94 3.31 2.72 3.09 3.48 5c.75 1.91 1.13 4 1.13 6.26s-.62 4.35-1.86 6.42-2.91 3.65-5.01 4.72c2.91 1.19 5.16 2.96 6.75 5.3 1.59 2.35 2.39 5.17 2.39 8.46q0 3.885-1.29 7.17c-.86 2.19-2.21 4.08-4.04 5.67q-2.745 2.385-6.99 3.72c-2.83.89-6.19 1.33-10.07 1.33Zm44.95-7.6c0 2.43-.77 4.27-2.3 5.54-1.54 1.27-3.27 1.9-5.21 1.9s-3.68-.63-5.22-1.9-2.3-3.11-2.3-5.54.77-4.27 2.3-5.54c1.54-1.27 3.27-1.9 5.22-1.9s3.68.63 5.21 1.9c1.54 1.27 2.3 3.11 2.3 5.54m257.71 2.75c-3.09-5.49-6.44-10.91-10.04-16.27s-7.43-10.41-11.49-15.16v31.43h-10.66v-47.97h8.79c1.52 1.52 3.21 3.39 5.05 5.61s3.73 4.58 5.64 7.1 3.82 5.12 5.71 7.82 3.67 5.3 5.33 7.79v-28.31h10.73v47.97h-9.07Zm17.72-17.93c0-3.23.5-6.06 1.49-8.48s2.3-4.44 3.91-6.06 3.47-2.84 5.57-3.67 4.26-1.25 6.47-1.25c5.17 0 9.25 1.58 12.25 4.74q4.5 4.74 4.5 13.95c0 .6-.02 1.26-.07 1.97-.05.72-.09 1.35-.14 1.9h-23.4c.23 2.12 1.22 3.81 2.98 5.05 1.75 1.25 4.11 1.87 7.06 1.87 1.89 0 3.75-.17 5.57-.52s3.31-.77 4.46-1.28l1.38 8.38c-.55.28-1.29.55-2.22.83-.92.28-1.95.52-3.08.73s-2.34.38-3.63.52-2.58.21-3.88.21c-3.28 0-6.13-.48-8.55-1.45s-4.43-2.3-6.02-3.98-2.77-3.68-3.53-5.99-1.14-4.8-1.14-7.48Zm24.23-3.95c-.05-.88-.2-1.73-.45-2.56a6.3 6.3 0 0 0-1.18-2.21q-.795-.975-2.01-1.59c-.81-.42-1.81-.62-3.01-.62s-2.15.2-2.98.59-1.52.91-2.08 1.56-.98 1.4-1.28 2.25-.52 1.72-.66 2.6h13.64Zm17.58-23.6 10.31-1.66v10.73h12.39v8.58H453.1v12.81q0 3.255 1.14 5.19c.76 1.29 2.29 1.94 4.6 1.94 1.11 0 2.25-.1 3.43-.31s2.25-.5 3.22-.87l1.45 8.03c-1.25.51-2.63.95-4.15 1.32s-3.39.55-5.61.55q-4.23 0-6.99-1.14c-1.85-.76-3.32-1.82-4.43-3.18s-1.88-3.01-2.32-4.95-.66-4.08-.66-6.44v-30.6Zm53.96 24.57c-.92 3.51-1.9 6.99-2.94 10.45s-2.14 6.95-3.29 10.45h-8.03c-.83-1.94-1.74-4.25-2.71-6.92-.97-2.68-1.98-5.59-3.02-8.76-1.04-3.16-2.11-6.51-3.19-10.04-1.09-3.53-2.14-7.1-3.16-10.7h10.87c.37 1.66.78 3.47 1.22 5.43s.91 3.98 1.39 6.06c.49 2.08 1 4.17 1.53 6.26.53 2.1 1.08 4.12 1.64 6.06.6-2.03 1.19-4.11 1.77-6.23s1.13-4.21 1.66-6.26 1.04-4.04 1.52-5.95.91-3.7 1.28-5.36h7.48c.37 1.66.78 3.45 1.25 5.36.46 1.92.95 3.9 1.45 5.95.51 2.05 1.04 4.14 1.59 6.26s1.13 4.2 1.73 6.23c.56-1.94 1.11-3.96 1.67-6.06s1.08-4.19 1.57-6.26c.49-2.08.95-4.1 1.39-6.06s.85-3.77 1.22-5.43h10.73c-1.02 3.6-2.07 7.16-3.16 10.7-1.09 3.53-2.15 6.88-3.19 10.04s-2.06 6.08-3.05 8.76c-1 2.68-1.91 4.98-2.74 6.92h-8.03c-1.15-3.51-2.28-6.99-3.39-10.45a215 215 0 0 1-3.05-10.45Zm65.32 2.63c0 2.86-.42 5.48-1.25 7.86q-1.245 3.57-3.6 6.09a16.2 16.2 0 0 1-5.64 3.91c-2.19.92-4.65 1.38-7.37 1.38s-5.11-.46-7.3-1.38-4.07-2.23-5.64-3.91-2.79-3.71-3.67-6.09-1.31-5-1.31-7.86.45-5.47 1.35-7.82 2.15-4.36 3.74-6.02 3.48-2.95 5.68-3.88c2.19-.92 4.58-1.38 7.16-1.38s5.04.46 7.23 1.38 4.07 2.21 5.64 3.88c1.57 1.66 2.79 3.67 3.67 6.02s1.32 4.96 1.32 7.82Zm-10.52 0c0-3.18-.63-5.69-1.9-7.51q-1.905-2.73-5.43-2.73c-3.525 0-4.18.91-5.47 2.73s-1.94 4.33-1.94 7.51.65 5.71 1.94 7.58 3.12 2.8 5.47 2.8 4.16-.93 5.43-2.8 1.9-4.4 1.9-7.58m40.42-9c-.92-.23-2.01-.47-3.25-.73-1.25-.25-2.58-.38-4.02-.38-.65 0-1.42.06-2.32.17s-1.58.24-2.04.38v27.83h-10.31v-34.47q2.775-.975 6.54-1.83c2.51-.58 5.32-.87 8.41-.87.55 0 1.22.03 2.01.1.78.07 1.57.16 2.35.28s1.57.25 2.35.42c.78.16 1.45.36 2.01.59zm17.59 3.94c1.01-1.1 2.06-2.25 3.15-3.44q1.62-1.785 3.15-3.54c1.01-1.17 1.97-2.28 2.87-3.34.9-1.05 1.67-1.97 2.32-2.75h12.27c-2.45 2.81-4.83 5.49-7.17 8.05-2.33 2.56-4.88 5.19-7.65 7.91q2.07 1.875 4.29 4.47c1.48 1.73 2.91 3.53 4.29 5.38s2.65 3.7 3.81 5.55c1.15 1.85 2.12 3.54 2.91 5.06h-11.86q-1.11-1.8-2.52-3.99c-.94-1.46-1.95-2.91-3.01-4.37s-2.18-2.86-3.35-4.2-2.34-2.48-3.49-3.4v15.96h-10.31v-52.06l10.31-1.66v30.38Z" style="fill:#fff"/><rect width="1008.88" height="91.24" x="28.31" y="364.62" rx="19.28" ry="19.28" style="fill:#2a59be;stroke:#2a59be;stroke-miterlimit:10;stroke-width:3.77px"/><path d="M99.76 379.5v33.63h5.98v9.86h-5.98v12.53h-11.8v-12.53H63.79v-8.81c1.19-2.37 2.67-5.05 4.45-8.04a164 164 0 0 1 12.85-18.48c2.43-3.02 4.85-5.74 7.28-8.17h11.4Zm-11.8 14.71c-2.1 2.75-4.34 5.74-6.71 8.97s-4.37 6.55-5.98 9.95h12.69zm37.59 34.93c0 2.43-.77 4.27-2.3 5.54-1.54 1.27-3.27 1.9-5.21 1.9s-3.68-.63-5.22-1.9-2.3-3.11-2.3-5.54.77-4.27 2.3-5.54c1.54-1.27 3.27-1.9 5.22-1.9s3.68.63 5.21 1.9c1.54 1.27 2.3 3.11 2.3 5.54m261.1-45.22v9.21h-14.47v38.77h-10.8v-38.77h-14.47v-9.21zm23.4 20.7c-.92-.23-2.01-.47-3.25-.73-1.25-.25-2.58-.38-4.02-.38-.65 0-1.42.06-2.32.17s-1.58.24-2.04.38v27.83h-10.31v-34.47q2.775-.975 6.54-1.83c2.51-.58 5.32-.87 8.41-.87.55 0 1.22.03 2.01.1.78.07 1.57.16 2.35.28s1.57.25 2.35.42c.78.16 1.45.36 2.01.59zm19.66-10.11c3.05 0 5.58.35 7.61 1.04s3.66 1.69 4.88 2.98 2.09 2.86 2.6 4.71.76 3.9.76 6.16v21.46c-1.48.32-3.53.7-6.16 1.14s-5.81.66-9.55.66c-2.35 0-4.49-.21-6.4-.62q-2.88-.63-4.95-2.04a9.34 9.34 0 0 1-3.18-3.7q-1.11-2.28-1.11-5.61c0-3.33.43-3.92 1.28-5.4s2-2.65 3.43-3.53 3.07-1.51 4.92-1.9 3.76-.59 5.75-.59c1.34 0 2.53.06 3.56.17 1.04.12 1.88.27 2.53.45v-.97c0-1.75-.53-3.16-1.59-4.22s-2.91-1.59-5.54-1.59c-1.75 0-3.48.13-5.19.38s-3.18.61-4.43 1.07l-1.32-8.31c.6-.18 1.35-.38 2.25-.59s1.88-.39 2.94-.55q1.59-.24 3.36-.42c1.18-.11 2.36-.17 3.56-.17Zm.83 30.18c1.01 0 1.98-.02 2.91-.07q1.38-.075 2.22-.21v-7.82c-.42-.09-1.04-.18-1.87-.28-.83-.09-1.59-.14-2.28-.14-.97 0-1.88.06-2.73.17-.85.12-1.6.33-2.25.66-.65.32-1.15.76-1.52 1.32-.37.55-.55 1.25-.55 2.08 0 1.62.54 2.73 1.63 3.36q1.62.93 4.47.93Zm24.37-27.96c1.75-.51 4.02-.98 6.78-1.42 2.77-.44 5.68-.66 8.72-.66s5.66.4 7.72 1.21c2.05.81 3.68 1.95 4.88 3.43s2.05 3.23 2.56 5.26.76 4.29.76 6.78v20.56h-10.31v-19.31c0-3.32-.44-5.68-1.32-7.06s-2.52-2.08-4.92-2.08c-.74 0-1.52.03-2.35.1s-1.57.15-2.22.24v28.11H454.9v-35.17Zm51.23 27.76c1.89 0 3.23-.18 4.02-.55.78-.37 1.18-1.08 1.18-2.15 0-.83-.51-1.56-1.52-2.18-1.02-.62-2.56-1.33-4.64-2.11-1.62-.6-3.08-1.22-4.4-1.87-1.31-.65-2.43-1.42-3.36-2.32-.92-.9-1.64-1.97-2.15-3.22s-.76-2.75-.76-4.5c0-3.42 1.27-6.11 3.81-8.1 2.54-1.98 6.02-2.98 10.45-2.98 2.22 0 4.34.2 6.37.59s3.65.82 4.85 1.28l-1.8 8.03c-1.2-.42-2.5-.78-3.91-1.11q-2.115-.48-4.74-.48c-3.23 0-4.85.9-4.85 2.7q0 .63.21 1.11c.14.32.42.64.83.93.42.3.98.63 1.7.97.71.35 1.63.73 2.73 1.15 2.26.84 4.13 1.66 5.61 2.48 1.48.81 2.64 1.69 3.5 2.64.85.94 1.45 1.99 1.8 3.14s.52 2.49.52 4.01c0 3.59-1.35 6.31-4.05 8.15q-4.05 2.76-11.46 2.76c-3.23 0-5.92-.28-8.06-.83s-3.63-1.01-4.47-1.38l1.73-8.38c1.75.69 3.55 1.24 5.4 1.63s3.67.59 5.47.59Zm56.97-10.8c0 2.82-.35 5.38-1.04 7.68-.69 2.31-1.71 4.29-3.05 5.95s-3 2.95-4.98 3.88c-1.98.92-4.27 1.38-6.85 1.38-1.43 0-2.77-.14-4.01-.42-1.25-.28-2.45-.67-3.6-1.18v13.71h-10.31v-47.97c.92-.28 1.98-.54 3.18-.8 1.2-.25 2.46-.47 3.77-.66 1.32-.18 2.65-.33 4.02-.45 1.36-.11 2.67-.17 3.91-.17 3 0 5.68.45 8.03 1.35s4.34 2.17 5.95 3.81 2.85 3.63 3.7 5.99c.85 2.35 1.28 4.98 1.28 7.89Zm-10.52.28c0-3.18-.72-5.73-2.15-7.65-1.43-1.91-3.55-2.87-6.37-2.87-.92 0-1.78.03-2.56.1-.79.07-1.43.15-1.94.24v18.62c.65.42 1.49.76 2.53 1.04q1.56.42 3.15.42c4.89 0 7.34-3.3 7.34-9.9m52.54-.35c0 2.86-.42 5.48-1.25 7.86q-1.245 3.57-3.6 6.09a16.2 16.2 0 0 1-5.64 3.91c-2.19.92-4.65 1.38-7.37 1.38s-5.11-.46-7.3-1.38-4.07-2.23-5.64-3.91-2.79-3.71-3.67-6.09-1.31-5-1.31-7.86.45-5.47 1.35-7.82 2.15-4.36 3.74-6.02 3.48-2.95 5.68-3.88c2.19-.92 4.58-1.38 7.16-1.38s5.04.46 7.23 1.38 4.07 2.21 5.64 3.88c1.57 1.66 2.79 3.67 3.67 6.02s1.32 4.96 1.32 7.82Zm-10.52 0c0-3.18-.63-5.69-1.9-7.51q-1.905-2.73-5.43-2.73c-3.525 0-4.18.91-5.47 2.73s-1.94 4.33-1.94 7.51.65 5.71 1.94 7.58 3.12 2.8 5.47 2.8 4.16-.93 5.43-2.8 1.9-4.4 1.9-7.58m40.42-9c-.92-.23-2.01-.47-3.25-.73-1.25-.25-2.58-.38-4.02-.38-.65 0-1.42.06-2.32.17s-1.58.24-2.04.38v27.83h-10.31v-34.47q2.775-.975 6.54-1.83c2.51-.58 5.32-.87 8.41-.87.55 0 1.22.03 2.01.1.78.07 1.57.16 2.35.28s1.57.25 2.35.42c.78.16 1.45.36 2.01.59zm6.92-18.21 10.31-1.66v10.73h12.39v8.58h-12.39v12.81q0 3.255 1.14 5.19c.76 1.29 2.29 1.94 4.6 1.94 1.11 0 2.25-.1 3.43-.31s2.25-.5 3.22-.87l1.45 8.03c-1.25.51-2.63.95-4.15 1.32s-3.39.55-5.61.55q-4.23 0-6.99-1.14c-1.85-.76-3.32-1.82-4.43-3.18s-1.88-3.01-2.32-4.95-.66-4.08-.66-6.44v-30.6Z" style="fill:#fff"/><rect width="1008.88" height="91.24" x="28.31" y="582.95" rx="19.28" ry="19.28" style="fill:#673a91;stroke:#673a91;stroke-miterlimit:10;stroke-width:3.77px"/><path d="M102.27 612.55c0 2.05-.4 4.02-1.21 5.9q-1.215 2.835-3.15 5.46a43.6 43.6 0 0 1-4.37 5.05 200 200 0 0 1-4.77 4.61c-.81.76-1.69 1.6-2.63 2.55-.94.94-1.85 1.9-2.71 2.87s-1.63 1.87-2.3 2.71-1.09 1.52-1.25 2.06h24.09v10.11H66.62c-.11-.59-.16-1.35-.16-2.26v-1.94c0-2.59.42-4.96 1.25-7.12s1.93-4.16 3.27-6.02c1.35-1.86 2.87-3.6 4.57-5.21 1.7-1.62 3.38-3.23 5.05-4.85 1.29-1.24 2.51-2.41 3.64-3.52a39 39 0 0 0 2.99-3.23c.86-1.05 1.54-2.1 2.02-3.15.49-1.05.73-2.11.73-3.19 0-2.37-.67-4.04-2.02-5.01s-3.02-1.46-5.01-1.46q-2.19 0-4.08.69-1.905.69-3.48 1.62a22 22 0 0 0-2.71 1.86c-.76.62-1.32 1.12-1.7 1.5L65 604.17c2.37-2.21 5.13-4.03 8.29-5.46 3.15-1.43 6.54-2.14 10.15-2.14 3.29 0 6.12.38 8.49 1.13 2.37.76 4.33 1.82 5.86 3.19 1.54 1.37 2.67 3.05 3.4 5.01.73 1.97 1.09 4.19 1.09 6.67Zm23.28 34.92c0 2.43-.77 4.27-2.3 5.54-1.54 1.27-3.27 1.9-5.21 1.9s-3.68-.63-5.22-1.9-2.3-3.11-2.3-5.54.77-4.27 2.3-5.54c1.54-1.27 3.27-1.9 5.22-1.9s3.68.63 5.21 1.9c1.54 1.27 2.3 3.11 2.3 5.54m267.54-21.27c0 4.15-.65 7.78-1.94 10.87s-3.13 5.65-5.5 7.68c-2.38 2.03-5.27 3.55-8.69 4.57-3.42 1.01-7.25 1.52-11.49 1.52q-2.91 0-6.78-.24c-2.58-.16-5.12-.5-7.62-1v-46.73c2.49-.46 5.09-.77 7.79-.93q4.05-.24 6.96-.24c4.11 0 7.83.46 11.18 1.38s6.22 2.38 8.62 4.36 4.25 4.52 5.54 7.62c1.29 3.09 1.94 6.81 1.94 11.14Zm-31.22 15.23c.51.05 1.1.08 1.76.1s1.46.03 2.39.03c5.4 0 9.4-1.36 12.01-4.08s3.91-6.48 3.91-11.28-1.25-8.84-3.74-11.42-6.44-3.88-11.84-3.88c-.74 0-1.5.01-2.28.04-.79.02-1.52.08-2.21.17zm52.61-28.59c3.05 0 5.58.35 7.61 1.04s3.66 1.69 4.88 2.98 2.09 2.86 2.6 4.71.76 3.9.76 6.16v21.46c-1.48.32-3.53.7-6.16 1.14s-5.81.66-9.55.66c-2.35 0-4.49-.21-6.4-.62q-2.88-.63-4.95-2.04a9.34 9.34 0 0 1-3.18-3.7q-1.11-2.28-1.11-5.61c0-3.33.43-3.92 1.28-5.4s2-2.65 3.43-3.53 3.07-1.51 4.92-1.9 3.76-.59 5.75-.59c1.34 0 2.53.06 3.56.17 1.04.12 1.88.27 2.53.45v-.97c0-1.75-.53-3.16-1.59-4.22s-2.91-1.59-5.54-1.59c-1.75 0-3.48.13-5.19.38s-3.18.61-4.43 1.07l-1.32-8.31c.6-.18 1.35-.38 2.25-.59s1.88-.39 2.94-.55q1.59-.24 3.36-.42c1.18-.11 2.36-.17 3.56-.17Zm.83 30.18c1.01 0 1.98-.02 2.91-.07q1.38-.075 2.22-.21v-7.82c-.42-.09-1.04-.18-1.87-.28-.83-.09-1.59-.14-2.28-.14-.97 0-1.88.06-2.73.17-.85.12-1.6.33-2.25.66-.65.32-1.15.76-1.52 1.32-.37.55-.55 1.25-.55 2.08 0 1.62.54 2.73 1.63 3.36q1.62.93 4.47.93Zm24.02-38.28 10.31-1.66v10.73h12.39v8.58h-12.39v12.81q0 3.255 1.14 5.19c.76 1.29 2.29 1.94 4.6 1.94 1.11 0 2.25-.1 3.43-.31s2.25-.5 3.22-.87l1.45 8.03c-1.25.51-2.63.95-4.15 1.32s-3.39.55-5.61.55q-4.23 0-6.99-1.14c-1.85-.76-3.32-1.82-4.43-3.18s-1.88-3.01-2.32-4.95-.66-4.08-.66-6.44v-30.6Zm42.78 8.1c3.05 0 5.58.35 7.61 1.04s3.66 1.69 4.88 2.98 2.09 2.86 2.6 4.71.76 3.9.76 6.16v21.46c-1.48.32-3.53.7-6.16 1.14s-5.81.66-9.55.66c-2.35 0-4.49-.21-6.4-.62q-2.88-.63-4.95-2.04a9.34 9.34 0 0 1-3.18-3.7q-1.11-2.28-1.11-5.61c0-3.33.43-3.92 1.28-5.4s2-2.65 3.43-3.53 3.07-1.51 4.92-1.9 3.76-.59 5.75-.59c1.34 0 2.53.06 3.56.17 1.04.12 1.88.27 2.53.45v-.97c0-1.75-.53-3.16-1.59-4.22s-2.91-1.59-5.54-1.59c-1.75 0-3.48.13-5.19.38s-3.18.61-4.43 1.07l-1.32-8.31c.6-.18 1.35-.38 2.25-.59s1.88-.39 2.94-.55q1.59-.24 3.36-.42c1.18-.11 2.36-.17 3.56-.17Zm.83 30.18c1.01 0 1.98-.02 2.91-.07q1.38-.075 2.22-.21v-7.82c-.42-.09-1.04-.18-1.87-.28-.83-.09-1.59-.14-2.28-.14-.97 0-1.88.06-2.73.17-.85.12-1.6.33-2.25.66-.65.32-1.15.76-1.52 1.32-.37.55-.55 1.25-.55 2.08 0 1.62.54 2.73 1.63 3.36q1.62.93 4.47.93Zm55.52 7.9c-3-.05-5.43-.37-7.3-.97s-3.35-1.44-4.43-2.53c-1.08-1.08-1.82-2.4-2.22-3.95-.39-1.55-.59-3.29-.59-5.23v-40.08l10.31-1.66v39.67q0 1.38.21 2.49c.14.74.4 1.36.8 1.87.39.51.96.92 1.7 1.25.74.32 1.73.53 2.98.62l-1.45 8.51Zm18.62-47.63c0 1.89-.61 3.38-1.83 4.46s-2.67 1.63-4.33 1.63-3.1-.54-4.33-1.63c-1.22-1.08-1.83-2.57-1.83-4.46s.61-3.38 1.83-4.46 2.67-1.63 4.33-1.63 3.1.54 4.33 1.63c1.22 1.08 1.83 2.57 1.83 4.46m-.97 46.93H545.8v-36.41h10.31zm9.69-35.16c1.75-.51 4.02-.98 6.78-1.42 2.77-.44 5.68-.66 8.72-.66s5.66.4 7.72 1.21c2.05.81 3.68 1.95 4.88 3.43s2.05 3.23 2.56 5.26.76 4.29.76 6.78v20.56h-10.31v-19.31c0-3.32-.44-5.68-1.32-7.06s-2.52-2.08-4.92-2.08c-.74 0-1.52.03-2.35.1s-1.57.15-2.22.24v28.11h-10.31v-35.17Zm51.09 11.83c1.01-1.1 2.06-2.25 3.15-3.44q1.62-1.785 3.15-3.54c1.01-1.17 1.97-2.28 2.87-3.34.9-1.05 1.67-1.97 2.32-2.75h12.27c-2.45 2.81-4.83 5.49-7.17 8.05-2.33 2.56-4.88 5.19-7.65 7.91q2.07 1.875 4.29 4.47c1.48 1.73 2.91 3.53 4.29 5.38s2.65 3.7 3.81 5.55c1.15 1.85 2.12 3.54 2.91 5.06h-11.86q-1.11-1.8-2.52-3.99c-.94-1.46-1.95-2.91-3.01-4.37s-2.18-2.86-3.35-4.2-2.34-2.48-3.49-3.4v15.96h-10.31v-52.06l10.31-1.66v30.38Z" style="fill:#fff"/></svg>