<svg xmlns="http://www.w3.org/2000/svg" xmlns:xlink="http://www.w3.org/1999/xlink" width="1140" height="800" data-name="Layer 2"><defs><linearGradient id="b" x1="1118.41" x2="863.3" y1="376.22" y2="538.85" gradientUnits="userSpaceOnUse"><stop offset=".15" stop-color="#2a59be" stop-opacity="0"/><stop offset=".62" stop-color="#1c2538"/></linearGradient><linearGradient id="c" x1="454.06" x2="621.47" y1="452.25" y2="721.71" gradientUnits="userSpaceOnUse"><stop offset=".51" stop-color="#2a59be"/><stop offset="1" stop-color="#1c2538"/></linearGradient><linearGradient id="a" x1="370.77" x2="393.69" y1="638.78" y2="638.78" gradientUnits="userSpaceOnUse"><stop offset=".01" stop-color="#d4d8df"/><stop offset="1" stop-color="#727c92"/></linearGradient><linearGradient xlink:href="#a" id="d" x1="374.51" x2="492.49" y1="582.2" y2="582.2"/><linearGradient xlink:href="#a" id="e" x1="491.31" x2="552.6" y1="511.7" y2="570.43"/><linearGradient xlink:href="#a" id="f" x1="479.72" x2="630.28" y1="553.86" y2="553.86"/><linearGradient xlink:href="#a" id="g" x1="341.77" x2="369.5" y1="612.4" y2="612.4"/><linearGradient xlink:href="#a" id="h" x1="449.11" x2="605.43" y1="618.88" y2="618.88"/><linearGradient xlink:href="#a" id="i" x1="347.9" x2="433.5" y1="618.11" y2="618.11"/><linearGradient xlink:href="#a" id="j" x1="422.38" x2="468.95" y1="705" y2="705"/><linearGradient xlink:href="#b" id="k" x1="817.61" x2="562.5" y1="121.42" y2="284.05"/><linearGradient xlink:href="#c" id="l" x1="153.26" x2="320.67" y1="197.45" y2="466.91"/><linearGradient xlink:href="#a" id="m" x1="69.97" x2="92.89" y1="383.98" y2="383.98"/><linearGradient xlink:href="#a" id="n" x1="73.71" x2="191.69" y1="327.4" y2="327.4"/><linearGradient xlink:href="#a" id="o" x1="190.51" x2="251.8" y1="256.89" y2="315.63"/><linearGradient xlink:href="#a" id="p" x1="178.92" x2="329.48" y1="299.06" y2="299.06"/><linearGradient xlink:href="#a" id="q" x1="40.97" x2="68.7" y1="357.6" y2="357.6"/><linearGradient xlink:href="#a" id="r" x1="148.31" x2="304.63" y1="364.08" y2="364.08"/><linearGradient xlink:href="#a" id="s" x1="47.1" x2="132.7" y1="363.31" y2="363.31"/><linearGradient xlink:href="#a" id="t" x1="121.58" x2="168.15" y1="450.2" y2="450.2"/></defs><path d="m676.18 484.03 44.94-11.38 25.39-8.42h33.86l30.01-5.64 15.18-1.6s43.97 21.64 51.97 39.38c8 17.75 10.25 59.98 10.25 59.98l-54.51 36.73-69.45 10.88-24.64-72.11L676.2 484Z" style="fill:#151c2b"/><path d="M823.56 457.55s18.9-5.77 27.87.46 17.52 14.47 21 14.47 234.04-62.49 234.04-62.49 11.78 54.25 0 80.48L898.2 544.46l-17.69 10.91-56.95-97.81Z" style="fill:url(#b)"/><path d="M868.7 562.3s6.48-21.93 2.36-34.91-42.17-61.41-56.22-67.25c-14.06-5.84-22.16 0-22.16 0l59.24 74.13-.14 37.85s3.9-5.31 16.92-9.83Z" style="fill:#223654"/><path d="m421.41 743.91 143.48-51.73 12.32 11.08 183.51-60.35 17.86-82.52-97.91-91.76-30.17 9.85-22.78-33.87s-2.46-17.24-43.11-6.77c-40.64 10.47-65.89 54.81-87.45 81.9L354.29 569l2.6 2.36-11.29 5.43-6.73 14.33-9.67 2.9-8.71 57.4 15.8 13.22 5.48-1.29v9.35h8.06l1.29 9.35 7.74-.64v8.38h9.35v9.03l9.03-.32v8.71l9.35.32v7.74l8.06.32v7.09h8.06v9.35l18.69 11.84Z" style="fill:url(#c)"/><path d="m427.23 689.17-1.61 17.74s7.88 35.23-8.71 30.31c-14.48-4.29-11.93-21.61 0-33.22l2.9-18.06 7.42 3.22Zm-90.94-24.51v-22.25l8.38 3.22 3.23-12.25-12.9-10 3.22-18.38-9.03-10.97-8.71 57.41zm2.58-73.53 9.03 6.77 12.25-10.96-14.55-10.14zm76.43 57.73v14.51l20.96 19.67 1.61-18.38z" style="fill:#d4d8df"/><path d="m372.63 621.6 21.06 20.16-1.61 14.19-21.31-20.35z" style="fill:url(#a)"/><path d="m374.51 580.24 61.3-42.73 56.68 49.84-68.02 39.55-9.17-8.29 5.68-4.36-27.29-23.11-4.98 4.8z" style="fill:url(#d)"/><path d="M492.49 587.35v16.44l-65.91 30.08-2.11-6.97zm-117.98-7.11v10.9l13.33 13.52 5.85-2.18 21.61 16.13 5.68-4.36-27.29-23.11z" style="fill:#727c92"/><path d="m435.37 562.36 27.91 24.99 126.01-86.03-26.6-20.5z" style="fill:url(#e)"/><path d="M589.29 501.32v10.9l-73.17 51.01 100.21-35.32 13.95 12.65-16.57 18.31-88.52 33.14-6.1 14.39-26.6-2.61v-16.44l-12.77-11.22z" style="fill:url(#f)"/><path d="m519.09 606.4 86.34-29.6 8.28-17.93-88.52 33.14z" style="fill:#727c92"/><path d="m415.3 648.86 18.2-8.39-6.92-6.6 34.95-15.26 38.37 21.86-48.4 18.26 6.1 1.74v19.19l-5.66-2.62-15.68 6 1.61-18.38zm53.65 37.09 17.88 14.2 2.18-41.86 187.93-62.35 5.23 3.49s3.05 38.93-11.77 56.53l-8.28-2.02-175.72 53.63-17.44-21.62Zm61.74-184.63s16.25-32.12 47.09-45.03c30.66-12.83 49.92-11.67 49.92-11.67s1.19-.22-1.26-2.91-14.26-15.79-61.72 4.41c0 0-26.52 8.98-67.57 73.63l-59.28 20.44 14.1 11.53 78.72-50.41Zm67.09 6.15s37.28-15.59 50.84-22.03-14.57 10.58-34.9 24.04c-20.34 13.45-76.1 38.78-76.1 38.78l51.68-36.03 8.48-4.75Z" style="fill:#223654"/><path d="m345.89 672.45 2.01-17.34 3.77-1.51 2.01-11.55h-3.9l-1.88 8.78-4.27.92-1.86 20.97zm9.68 8.57 2-17.35 3.77-1.5 2.01-11.56h-3.89l-1.89 8.78-4.26.93-1.87 20.97zm7.11 8.03 2.01-17.34 3.77-1.51 2.01-11.55h-3.89l-1.89 8.78-4.27.92-1.86 20.98zm10 9.06 2.01-17.34 3.77-1.51 2.01-11.55h-3.9l-1.88 8.78-4.27.92-1.86 20.97zm9 9.18 2.01-17.34 3.77-1.51 2.01-11.55h-3.9l-1.88 8.78-4.27.92-1.86 20.97zm9.05 6.93 2-17.35 3.77-1.5 2.01-11.56h-3.89l-1.89 8.78-4.26.93-1.87 20.97zm8.58 8.41 2-17.35 3.78-1.5 2.01-11.56h-3.9l-1.89 8.78-4.26.93-1.86 20.97zm23.07 14.2 46.56-16.93v-21.52l-8.79-4.1-2.56 2.01 7.83 2.86.25 16.41-39.1 10.62s-.54 7.25-4.2 10.65Zm11.12-91.02 12.16 10.14 3.45 2.7v19.47l2.83-1.08 2.34 1.08v-18.6l-2.78-.79 6.98-2.63-18.16-12.29zm-76.1-77.87 12.1 12.3-3.27 2.4-11.45-10.25 2.11-1.01-2.61-2.36z" style="fill:#d4d8df"/><path d="m341.77 610.61 16.79 16.29 4.79-1.91v-4.54l6.15 4.54v-4.54l-18.06-16.83 2.84-4.2-2.84-1.52-3.72 3.97-4.09-1.26z" style="fill:url(#g)"/><path d="M492.49 595.94s5.48-21.22 36.68-21.69v5.99l-36.68 23.55z" style="fill:#727c92"/><path d="M479.72 576.13s22.79-12.63 36.4-12.89l13.05 11.01s-27.54-.76-36.68 21.69v-8.58z" style="fill:#d4d8df"/><path d="m605.43 576.8-24.32 29.6 6.84 1.41-120.79 53.15-9.56-.49-8.49-1.82 50.79-18.18-38.37-21.86 30.96-14.82 26.6 2.61z" style="fill:url(#h)"/><path d="m688.82 476.29 9.28-10.71s88.02 77.8 91.03 86.15c6.66 18.41-6.66 37.47-6.66 37.47h-10.13l6.23-28.8z" style="fill:#1c2538"/><path d="m768.32 607.81 10.26-1.41s-1.47 22.19-10.26 31.81h-6.58zm23.78-5.12s-.74 14.62-7.69 23.79c0 0 13.61-7.3 14.72-23.79zm22.03-6.75s-1.39 10.36-9.17 18.64c0 0 7.78 2.17 13.05-5.33s5-11.67 3.06-15-6.94 1.68-6.94 1.68Zm19.13 2.8s5.09-4.36 5.33-12.84l8.72-3.15s2.67 5.47-2.67 10.37-11.39 5.63-11.39 5.63ZM857 586.86c.48-1.21 5.82-13.81 10.42-12.6s1.7 7.27 1.7 7.27l-13.57 9.21z" style="fill:#fff"/><path d="M698.1 465.58h15.2s87.12 78.63 88.51 83.23-2.68 33.93-2.68 33.93 75.57-17.93 81.38-27.38l17.69-10.91s-6.79 30.34-42.65 46.29c-35.87 15.95-87.23 47.47-87.23 47.47h-6.75l10.09-46.63.52-2.39h10.3s6.15-24.18 6.53-27.8c.38-3.61 5.02-6.99-9.21-20.92s-81.7-74.89-81.7-74.89" style="fill:#223654"/><path d="M721.11 472.66s4.54-8.42 8.42-8.42 83.18 63.49 84.12 81.91-7.38 34.84-7.38 34.84l-7.15 1.75 1.96-18.89c1.05-10.08-2.83-20.2-10.74-26.53-.39-.31-.79-.61-1.2-.91-9.84-7.12-68.04-63.75-68.04-63.75Z" style="fill:#1c2538"/><path d="M822.35 576.84s4.36-21.96 2.9-31.9c-1.45-9.94-28.6-38.04-28.6-38.04s-46.04-41.2-50.16-42.66-13.86-1.45-16.96 0c0 0 69.03 49.74 83.35 78.67 0 0 3.26 20.33-6.6 38.08z" style="fill:#223654"/><path d="M832.06 574.18s6.76-22.21 1.19-35.78-62.83-75.12-71.52-75.24-11.84 2.43-11.84 2.43 36.4 30.33 59.39 56.88c11.43 13.2 17 30.6 14.75 47.92-.41 3.15-.95 5.58-1.68 6.45z" style="fill:#1c2538"/><path d="M761.74 463.15s9.72-4.47 21.11 2.43 53.84 51.6 59.43 57.91c6.58 7.43 9.54 32.83 3.65 46.64l-13.87 4.04s6.5-25.95-6.51-42.79-53.43-66.17-63.82-68.23Z" style="fill:#223654"/><path d="M780.36 464.24s10.31-7.2 17.79-2.51 53.69 52.95 60.31 66.97c6.06 12.84-2.91 38.38-2.91 38.38l-9.62 3.05s6.23-24.47-2.98-41.43-54.67-62.13-62.59-64.46" style="fill:#1c2538"/><path d="M811.88 459.06s11.92-4.51 25.01 5.18 38.05 42.65 42.17 61.55 1.45 29.56 1.45 29.56-4.24 4.67-11.81 6.94c0 0 6.57-26.16-2.17-40.23-5.61-9.02-25.91-39.4-43.7-56.49-10.43-10.02-10.94-6.52-10.94-6.52Z" style="fill:#1c2538"/><path d="m349.86 603.94 4.42-4.52-6.38-1.52 26.61-10.55v3.79l13.33 13.52 5.85-2.18 21.61 16.13 9.17 8.29 2.11 6.97 6.92 6.6-18.2 8.39-23.19-6.78z" style="fill:url(#i)"/><path d="m424.47 687.97 34.01-4.16 1.68 10.47 8.79 4.1v17.18l-42.36 10.62s-1.3-16.23-4.2-18.62l2.09-19.59Z" style="fill:url(#j)"/><path d="M605.43 622.31s20.28-77.58 77-88.22 38.69 48.65 38.69 48.65 17.77-60.2-38.69-55.36c-56.46 4.85-90.43 85.01-90.43 85.01l13.43 9.91Z" style="fill:#223654"/><path d="m655.51 482.67 94.38 80.56 28.69-2.83-97.92-91.76-30.17 9.85z" style="fill:#223654;opacity:.38"/><path d="m467.16 660.96 21.84-2.67 107.98-39.68s.31-10.8-9.03-10.8l-120.79 53.16Z" style="fill:#727c92"/><path d="m375.38 229.23 44.94-11.38 25.39-8.42h33.86l30.01-5.64 15.18-1.6s43.97 21.64 51.97 39.38c8 17.75 10.25 59.98 10.25 59.98l-54.51 36.73-69.45 10.88-24.64-72.11-62.98-47.85Z" style="fill:#151c2b"/><path d="M522.76 202.75s18.9-5.77 27.87.46 17.52 14.47 21 14.47 234.04-62.49 234.04-62.49 11.78 54.25 0 80.48L597.4 289.66l-17.69 10.91-56.95-97.81Z" style="fill:url(#k)"/><path d="M567.9 307.5s6.48-21.93 2.36-34.91-42.17-61.41-56.22-67.25c-14.06-5.84-22.16 0-22.16 0l59.24 74.13-.14 37.85s3.9-5.31 16.92-9.83Z" style="fill:#223654"/><path d="m120.61 489.11 143.48-51.73 12.32 11.08 183.51-60.35 17.86-82.52-97.91-91.76-30.17 9.85-22.78-33.87s-2.46-17.24-43.11-6.77c-40.64 10.47-65.89 54.81-87.45 81.9L53.49 314.2l2.6 2.36-11.29 5.43-6.73 14.33-9.67 2.9-8.71 57.4 15.8 13.22 5.48-1.29v9.35h8.06l1.29 9.35 7.74-.64v8.38h9.35v9.03l9.03-.32v8.71l9.35.32v7.74l8.06.32v7.09h8.06v9.35l18.69 11.84Z" style="fill:url(#l)"/><path d="m126.43 434.37-1.61 17.74s7.88 35.23-8.71 30.31c-14.48-4.29-11.93-21.61 0-33.22l2.9-18.06 7.42 3.22Zm16.95-11.98v-18.71l7.05 2.71 2.71-10.31-10.85-8.41 2.71-15.46-7.59-9.22-7.32 48.28zM38.07 336.33l9.03 6.77 12.25-10.96L44.8 322z" style="fill:#d4d8df"/><path d="M114.5 394.06v14.51l20.96 19.67 1.61-18.38z" style="fill:#d4d8df"/><path d="m71.83 366.8 21.06 20.16-1.61 14.19-21.31-20.35z" style="fill:url(#m)"/><path d="m73.71 325.44 61.3-42.73 56.68 49.84-68.02 39.54-9.17-8.28 5.68-4.36-27.29-23.11-4.98 4.8z" style="fill:url(#n)"/><path d="M191.69 332.55v16.43l-65.91 30.09-2.11-6.98zm-117.98-7.11v10.9l13.33 13.52 5.85-2.18 21.61 16.13 5.68-4.36-27.29-23.11z" style="fill:#727c92"/><path d="m134.57 307.56 27.91 24.99 126.01-86.03-26.6-20.5z" style="fill:url(#o)"/><path d="M288.49 246.52v10.9l-73.17 51.01 100.21-35.32 13.95 12.65-16.57 18.31-88.52 33.14-6.1 14.39-26.6-2.62v-16.43l-12.77-11.23z" style="fill:url(#p)"/><path d="m218.29 351.6 86.34-29.6 8.28-17.93-88.52 33.14z" style="fill:#727c92"/><path d="m114.5 394.06 18.2-8.39-6.92-6.6 34.95-15.26 38.37 21.86-48.4 18.25 6.1 1.75v19.18l-5.66-2.61-15.68 6 1.61-18.38zm53.65 37.09 17.88 14.2 2.18-41.86 187.93-62.35 5.23 3.49s3.05 38.93-11.77 56.53l-8.28-2.02-175.72 53.63-17.44-21.62Zm61.74-184.63s16.25-32.12 47.09-45.03c30.66-12.83 49.92-11.67 49.92-11.67s1.19-.22-1.26-2.91-14.26-15.79-61.72 4.41c0 0-26.52 8.98-67.57 73.63l-59.28 20.44 14.1 11.53 78.72-50.41Zm67.09 6.15s37.28-15.59 50.84-22.03-14.57 10.58-34.9 24.04c-20.34 13.45-76.1 38.78-76.1 38.78l51.68-36.03 8.48-4.75Z" style="fill:#223654"/><path d="m45.09 417.65 2.01-17.34 3.77-1.51 2.01-11.55h-3.9l-1.88 8.78-4.27.92-1.86 20.97zm9.68 8.57 2-17.35 3.77-1.51 2.01-11.55h-3.89l-1.89 8.78-4.26.92-1.87 20.98zm7.11 8.03 2.01-17.34 3.77-1.51 2.01-11.55h-3.89l-1.89 8.78-4.27.92-1.86 20.97zm10 9.06 2.01-17.35 3.77-1.5 2.01-11.56h-3.9l-1.88 8.78-4.27.93-1.86 20.97zm9 9.18 2.01-17.35 3.77-1.5 2.01-11.56h-3.9l-1.88 8.78-4.27.93-1.86 20.97zm9.05 6.93 2-17.35 3.77-1.5 2.01-11.56h-3.89l-1.89 8.78-4.26.93-1.87 20.97zm8.58 8.41 2-17.35 3.78-1.5 2.01-11.56h-3.9l-1.89 8.78-4.26.92-1.86 20.98zm23.07 14.2 46.56-16.93v-21.52l-8.79-4.1-2.56 2.01 7.83 2.86.25 16.41-39.1 10.62s-.54 7.25-4.2 10.65Zm11.12-91.02 12.16 10.14 3.45 2.7v19.47l2.83-1.08 2.34 1.08v-18.6l-2.78-.8 6.98-2.63L139.52 389zm-76.1-77.87 12.1 12.3-3.27 2.4-11.45-10.25 2.11-1.02-2.61-2.35z" style="fill:#d4d8df"/><path d="m40.97 355.81 16.79 16.28 4.79-1.9v-4.54l6.15 4.54v-4.54l-18.06-16.83 2.84-4.2-2.84-1.52-3.72 3.96-4.09-1.25z" style="fill:url(#q)"/><path d="M191.69 341.14s5.48-21.22 36.68-21.69v5.99l-36.68 23.55z" style="fill:#727c92"/><path d="M178.92 321.32s22.79-12.63 36.4-12.89l13.05 11.01s-27.54-.76-36.68 21.69v-8.58z" style="fill:#d4d8df"/><path d="m304.63 322-24.32 29.6 6.84 1.41-120.79 53.15-9.56-.49-8.49-1.82 50.79-18.18-38.37-21.86 30.96-14.83 26.6 2.62z" style="fill:url(#r)"/><path d="m388.02 221.49 9.28-10.71s88.02 77.8 91.03 86.15c6.66 18.41-6.66 37.47-6.66 37.47h-10.13l6.23-28.8z" style="fill:#1c2538"/><path d="m467.52 353.01 10.26-1.41s-1.47 22.19-10.26 31.81h-6.58zm23.78-5.13s-.74 14.62-7.69 23.79c0 0 13.61-7.3 14.72-23.79zm22.03-6.74s-1.39 10.36-9.17 18.64c0 0 7.78 2.17 13.05-5.33s5-11.67 3.06-15-6.94 1.68-6.94 1.68Zm19.13 2.8s5.09-4.36 5.33-12.84l8.72-3.15s2.67 5.47-2.67 10.37-11.39 5.63-11.39 5.63Zm23.74-11.88c.48-1.21 5.82-13.81 10.42-12.6s1.7 7.27 1.7 7.27l-13.57 9.21z" style="fill:#fff"/><path d="M397.3 210.78h15.2s87.12 78.63 88.51 83.23-2.68 33.93-2.68 33.93 75.57-17.93 81.38-27.38l17.69-10.91s-6.79 30.34-42.65 46.29c-35.87 15.95-87.23 47.47-87.23 47.47h-6.84l10.09-46.63.52-2.39h10.39s6.15-24.18 6.53-27.8c.38-3.61 5.02-6.99-9.21-20.92s-81.7-74.89-81.7-74.89" style="fill:#223654"/><path d="M420.31 217.86s4.54-8.42 8.42-8.42 83.18 63.49 84.12 81.91-7.38 34.84-7.38 34.84l-7.15 1.75 1.96-18.89c1.05-10.08-2.83-20.2-10.74-26.53-.39-.31-.79-.61-1.2-.91-9.84-7.12-68.04-63.75-68.04-63.75Z" style="fill:#1c2538"/><path d="M521.55 322.03s4.36-21.96 2.9-31.9c-1.45-9.94-28.6-38.04-28.6-38.04s-46.04-41.2-50.16-42.66-13.86-1.45-16.96 0c0 0 69.03 49.74 83.35 78.67 0 0 3.26 20.33-6.6 38.08z" style="fill:#223654"/><path d="M531.26 319.38s6.76-22.21 1.19-35.78-62.83-75.12-71.52-75.24-11.84 2.43-11.84 2.43 36.4 30.33 59.39 56.88c11.43 13.2 17 30.6 14.75 47.92-.41 3.15-.95 5.58-1.68 6.45z" style="fill:#1c2538"/><path d="M460.94 208.35s9.72-4.47 21.11 2.43 53.84 51.6 59.43 57.91c6.58 7.43 9.54 32.83 3.65 46.64l-13.87 4.04s6.5-25.95-6.51-42.79c-13.01-16.85-53.43-66.17-63.82-68.23Z" style="fill:#223654"/><path d="M479.56 209.44s10.31-7.2 17.79-2.51 53.69 52.95 60.31 66.97c6.06 12.84-2.91 38.38-2.91 38.38l-9.62 3.05s6.23-24.47-2.98-41.43-54.67-62.13-62.59-64.46" style="fill:#1c2538"/><path d="M511.08 204.26s11.92-4.51 25.01 5.18 38.05 42.65 42.17 61.55 1.45 29.56 1.45 29.56-4.24 4.67-11.81 6.94c0 0 6.57-26.16-2.17-40.23-5.61-9.02-25.91-39.4-43.7-56.49-10.43-10.02-10.94-6.52-10.94-6.52Z" style="fill:#1c2538"/><path d="m49.06 349.14 4.42-4.52-6.38-1.52 26.61-10.55v3.79l13.33 13.52 5.85-2.18 21.61 16.13 9.17 8.28 2.11 6.98 6.92 6.6-18.2 8.39-23.19-6.78z" style="fill:url(#s)"/><path d="m123.67 433.17 34.01-4.16 1.68 10.47 8.79 4.1v17.18l-42.36 10.62s-1.3-16.23-4.2-18.62l2.09-19.59Z" style="fill:url(#t)"/><path d="M304.63 367.51s20.28-77.58 77-88.22 38.69 48.65 38.69 48.65 17.77-60.2-38.69-55.36-90.43 85.01-90.43 85.01l13.43 9.91Z" style="fill:#223654"/><path d="m354.71 227.87 94.38 80.56 28.69-2.83-97.92-91.76-30.17 9.85z" style="fill:#223654;opacity:.38"/><path d="m166.36 406.16 21.84-2.67 107.98-39.68s.31-10.8-9.03-10.8l-120.79 53.16Z" style="fill:#727c92"/><g data-name="Artwork 35"><path d="M439.96 354.26c-.83-3.82-4.35-6.48-8.49-6.12l-1.5.13c-1.21-5.61-6.11-9.46-11.82-9.08s-10.55 5.1-11.63 11.18c-4.25.87-7.58 5.07-7.58 9.81 0 5.08 3.85 8.73 8.57 8.14l12.69-1.57c.66-.11 1.19-.75 1.15-1.45-.03-.65-.54-1.12-1.18-1.07l-12.67 1.5c-3.38.4-6.14-2.21-6.14-5.81s2.73-6.79 6.09-7.1c1.24-.12 2.46.17 3.48.85.48.32 1.14.21 1.55-.27.47-.54.46-1.34 0-1.79-.05-.05-.09-.09-.15-.13a7.4 7.4 0 0 0-3.37-1.21c1-4.65 4.77-8.22 9.21-8.54 4.7-.34 8.72 2.93 9.52 7.67-.37.24-.74.5-1.08.78-.54.45-.65 1.24-.27 1.76.04.05.08.11.14.15.42.39 1.08.37 1.56-.03 1-.84 2.21-1.35 3.45-1.45 2.97-.28 5.48 1.62 6.08 4.35.12.56.63.92 1.21.86.66-.06 1.19-.65 1.19-1.32.01-.08.01-.17 0-.24Z" style="fill:#fff"/><path d="m425.05 364.13-1.04.12-.04-2.94v-.48l.01-.53c-.12.14-.23.26-.36.39l-.56.54-.51-.59 1.57-1.48.85-.09zm4.75-3.08c.01.88-.12 1.55-.4 2q-.42.675-1.29.78c-.87.105-1-.1-1.3-.5s-.45-1.03-.46-1.89.12-1.56.39-2.02.7-.71 1.28-.77 1 .11 1.3.52c.31.41.47 1.04.48 1.88m-2.41.28c0 .61.07 1.05.18 1.32.11.26.29.37.54.34s.42-.19.52-.47c.11-.28.15-.73.14-1.35s-.07-1.06-.19-1.31c-.11-.25-.29-.37-.53-.35s-.42.18-.52.46c-.11.28-.15.73-.14 1.35Zm-2.24 10.5-1.05.14-.04-2.94v-.48l.01-.53c-.12.14-.23.27-.36.4l-.56.55-.51-.58 1.58-1.51.85-.11zm3.96-.54-1.05.14-.04-2.92v-1.01c-.12.14-.23.26-.36.39l-.56.54-.52-.57 1.57-1.5.85-.11.08 5.02h.02Zm3.97-.54-1.05.14-.05-2.89v-.99c-.12.14-.23.26-.36.39l-.56.54-.52-.57 1.57-1.48.85-.11.1 4.98Zm4.75-3.12c.02.86-.11 1.52-.39 1.97s-.71.72-1.3.8-1-.08-1.31-.47c-.3-.39-.46-1.01-.47-1.85s.11-1.54.38-2 .7-.71 1.29-.78 1 .09 1.3.49c.32.39.48 1 .49 1.84Zm-2.42.31c.01.6.08 1.03.18 1.29.11.26.29.36.54.33s.42-.19.52-.47c.11-.28.14-.72.13-1.32s-.08-1.04-.19-1.29c-.12-.25-.29-.36-.53-.33s-.42.19-.52.46c-.11.28-.15.71-.13 1.32Zm4.81 5.29c.01.62-.08 1.1-.28 1.43s-.52.53-.95.59-.74-.05-.95-.33-.33-.72-.35-1.33.08-1.11.28-1.44.52-.52.94-.58.73.06.96.34c.22.28.33.73.34 1.33Zm-1.77.25c0 .44.06.75.13.93.05.17.21.25.4.23s.3-.14.38-.35.11-.52.1-.96-.06-.75-.14-.93q-.12-.27-.39-.24c-.27.03-.31.14-.38.35s-.11.52-.1.96Zm4.08 1.21-.76.11-.05-2.06v-.71c-.12.14-.21.23-.26.28l-.41.39-.38-.4 1.14-1.07.63-.09.08 3.56Zm-17.55.76c0 .63-.09 1.11-.28 1.44-.2.33-.51.53-.93.59s-.72-.05-.93-.34-.32-.73-.33-1.34.09-1.13.29-1.46c.19-.33.5-.53.92-.59s.72.06.93.34c.21.29.33.74.34 1.35Zm-1.73.25c0 .44.05.76.12.94.05.16.21.26.39.23s.3-.14.37-.35.11-.53.11-.97-.05-.76-.13-.94-.2-.27-.38-.24-.3.14-.37.35-.12.53-.11.98m3.98 1.23-.75.11-.03-2.08v-.34l.01-.38c-.13.15-.2.24-.25.29l-.4.39-.36-.41 1.12-1.08.61-.09.04 3.59Zm3.4-2.29c.01.63-.09 1.1-.28 1.43s-.51.53-.93.59-.72-.05-.93-.33-.32-.72-.33-1.33.09-1.11.28-1.44.5-.52.92-.58.72.05.93.34c.21.28.33.73.34 1.33Zm-1.73.25c0 .44.05.75.13.93.05.16.21.26.39.23s.3-.14.37-.34.11-.52.1-.96-.05-.75-.13-.92-.21-.26-.38-.24-.3.14-.37.34-.12.53-.1.97Zm3.98 1.21-.75.11-.04-2.06v-.34l.01-.37c-.12.15-.21.24-.26.29l-.4.39-.37-.41 1.12-1.07.61-.09.06 3.55Zm-8.58 4.06c0 .46-.06.8-.2 1.04s-.36.38-.67.43a.63.63 0 0 1-.67-.24c-.15-.21-.23-.53-.24-.97 0-.47.06-.81.2-1.05s.36-.38.67-.43c.26-.06.52.04.67.24.15.21.23.54.24.98m-1.25.19c0 .32.03.54.09.67.04.15.19.21.35.14a.3.3 0 0 0 .19-.23c.05-.15.08-.38.07-.7 0-.24-.02-.47-.1-.68-.04-.14-.19-.21-.34-.15h-.02c-.1.04-.17.13-.19.23-.05.25-.07.48-.06.71Zm2.87.87-.54.08-.02-1.5v-.51c-.09.1-.15.18-.18.21l-.29.28-.27-.29.81-.79.44-.07.04 2.59Zm5.51 1.07c0 .45-.06.79-.21 1.03s-.37.38-.67.43a.65.65 0 0 1-.67-.23c-.16-.2-.23-.52-.24-.95s.06-.8.2-1.04.36-.38.67-.43c.26-.06.52.03.68.23.16.21.24.53.25.96Zm-1.25.2c0 .31.03.54.09.66.04.14.2.2.34.15h.02c.1-.04.17-.13.19-.23.05-.15.07-.37.07-.69 0-.23-.02-.46-.1-.67-.03-.12-.15-.19-.27-.17s-.24.12-.27.25q-.075.21-.06.69Zm2.88.82-.54.09-.03-1.48v-.51c-.09.1-.15.18-.18.21l-.29.29-.27-.29.81-.79.45-.07.04 2.55Zm4.14-5.6c.01.62-.08 1.09-.28 1.41-.19.32-.51.52-.93.59s-.72-.04-.93-.32-.32-.71-.34-1.31.08-1.1.28-1.42c.19-.32.5-.52.92-.58s.72.05.93.32c.21.28.33.71.35 1.31m-1.73.26c0 .44.05.74.13.91.05.16.21.25.39.22s.3-.14.37-.34.11-.52.1-.95-.05-.74-.14-.92c-.08-.18-.21-.25-.39-.23s-.3.14-.37.34-.1.53-.09.96Zm4 1.15-.75.12-.04-2.03v-.7c-.12.15-.2.24-.25.28l-.4.38-.37-.4 1.12-1.07.61-.09.07 3.5Zm3.4-2.27c.01.61-.08 1.07-.27 1.39s-.51.52-.93.58-.72-.04-.94-.31c-.21-.27-.33-.7-.34-1.29s.08-1.09.27-1.41.5-.52.92-.58.72.04.93.32c.21.27.34.7.35 1.29Zm-1.73.26c0 .43.06.73.13.9.05.16.21.25.39.22s.3-.14.37-.34.11-.51.1-.94-.06-.73-.14-.91-.21-.25-.38-.23-.3.14-.37.34-.11.53-.1.95Zm-4.01-14.43-1.04.12-.06-2.87v-.99c-.12.13-.23.26-.36.38l-.56.53-.52-.57 1.56-1.45.86-.09.1 4.93Zm4.74-3.01c.02.85-.11 1.51-.38 1.95-.28.44-.71.7-1.29.77s-1-.09-1.3-.48-.46-1.01-.47-1.84.11-1.52.38-1.97.7-.69 1.28-.76 1 .1 1.3.5.47 1.01.49 1.83Zm-2.42.28c.01.6.08 1.03.19 1.28.11.26.29.36.54.33s.42-.18.52-.46c.1-.27.14-.71.13-1.31s-.08-1.03-.19-1.28c-.12-.25-.29-.36-.53-.34s-.42.18-.52.45-.14.71-.13 1.32Z" style="fill:#fff"/></g></svg>