<svg xmlns="http://www.w3.org/2000/svg" xmlns:xlink="http://www.w3.org/1999/xlink" viewBox="0 0 1140 669"><defs><linearGradient id="linear-gradient" x1="-655.92" x2="113.75" y1="244.09" y2="244.09" gradientTransform="rotate(55.92 80.831 621.538)" gradientUnits="userSpaceOnUse"><stop offset=".67" stop-color="#223654"/><stop offset=".68" stop-color="#294051"/><stop offset=".74" stop-color="#547c43"/><stop offset=".8" stop-color="#76ab38"/><stop offset=".84" stop-color="#8ecd30"/><stop offset=".88" stop-color="#9de22b"/><stop offset=".91" stop-color="#a3ea2a"/></linearGradient><linearGradient xlink:href="#linear-gradient" id="linear-gradient-2" x1="-396.96" x2="372.71" y1="-138.73" y2="-138.73" gradientTransform="scale(-1 1)rotate(55.92 -725.749 -897.977)"/><style>.cls-3,.cls-4,.cls-5,.cls-6{stroke-width:0}.cls-3{fill:#223654}.cls-4{fill:#a3ea2a}.cls-5{fill:#fff}.cls-6{fill:#ff0653}</style></defs><g id="Layer_3" data-name="Layer 3"><rect width="773.88" height="195.02" x="182.97" y="462.98" class="cls-3" rx="31.49" ry="31.49"/><path d="M239.73 545.64c2.76 0 5.08.34 6.97 1.04 1.88.69 3.39 1.66 4.52 2.9s1.93 2.75 2.41 4.52.72 3.71.72 5.83v21.87c-1.29.28-3.23.61-5.83 1s-5.53.59-8.79.59c-2.16 0-4.14-.21-5.93-.62s-3.32-1.08-4.59-2-2.25-2.11-2.97-3.59c-.71-1.47-1.07-3.29-1.07-5.45s.4-3.82 1.21-5.24a9.85 9.85 0 0 1 3.28-3.48c1.38-.9 2.98-1.54 4.79-1.93 1.82-.39 3.71-.59 5.69-.59.92 0 1.88.06 2.9.17 1.01.12 2.09.31 3.24.59v-1.38c0-.96-.12-1.88-.34-2.76-.23-.87-.63-1.64-1.21-2.31s-1.33-1.18-2.28-1.55c-.94-.37-2.13-.55-3.55-.55-1.93 0-3.7.14-5.31.41-1.61.28-2.92.6-3.93.97l-1.03-6.76c1.06-.37 2.6-.73 4.62-1.1s4.18-.55 6.48-.55Zm.69 31.11c2.57 0 4.53-.14 5.86-.41v-9.24c-.46-.14-1.13-.28-2-.41-.87-.14-1.84-.21-2.9-.21q-1.38 0-2.79.21c-.94.14-1.79.39-2.55.76s-1.37.89-1.83 1.55q-.69 1.005-.69 2.52c0 1.98.62 3.35 1.86 4.1q1.86 1.14 5.04 1.14Zm50.22-41.94v29.52h5.38v6.83h-5.38v11.45h-8.14v-11.45h-20.97v-5.93c.92-2.02 2.15-4.35 3.69-6.97s3.25-5.31 5.14-8.07c1.88-2.76 3.89-5.47 6-8.14s4.23-5.08 6.35-7.24zm-8.14 10.28c-1.1 1.33-2.24 2.76-3.41 4.28s-2.31 3.1-3.41 4.76-2.16 3.35-3.17 5.07a76 76 0 0 0-2.76 5.14h12.76v-19.25Z" class="cls-6"/><path d="M329.19 552.27q0 2.415-1.62 3.93c-1.08 1.01-2.38 1.52-3.9 1.52s-2.87-.51-3.93-1.52q-1.59-1.515-1.59-3.93c0-2.415.53-2.93 1.59-3.97s2.37-1.55 3.93-1.55 2.82.52 3.9 1.55 1.62 2.36 1.62 3.97m0 25.79q0 2.415-1.62 3.93c-1.08 1.01-2.38 1.52-3.9 1.52s-2.87-.51-3.93-1.52q-1.59-1.515-1.59-3.93c0-2.415.53-2.93 1.59-3.97s2.37-1.55 3.93-1.55 2.82.52 3.9 1.55 1.62 2.36 1.62 3.97" class="cls-5"/><path d="M352.23 564.61c0-2.67.41-5.16 1.24-7.48s2.01-4.33 3.55-6.04c1.54-1.7 3.42-3.04 5.62-4 2.21-.97 4.69-1.45 7.45-1.45q5.1 0 9.66 1.86l-1.79 6.83c-.97-.41-2.06-.76-3.28-1.04s-2.52-.41-3.9-.41c-3.27 0-5.75 1.02-7.45 3.07s-2.55 4.93-2.55 8.66.8 6.43 2.41 8.52 4.32 3.14 8.14 3.14c1.42 0 2.83-.14 4.21-.41 1.38-.28 2.58-.62 3.59-1.03l1.17 6.9c-.92.46-2.31.87-4.17 1.24s-3.78.55-5.76.55q-4.62 0-8.04-1.41c-2.28-.94-4.16-2.25-5.66-3.93s-2.61-3.68-3.35-6-1.1-4.84-1.1-7.55Zm45.52 19.04c-1.24 0-2.52-.08-3.83-.24s-2.55-.37-3.72-.62-2.24-.53-3.21-.83-1.7-.59-2.21-.86l1.66-7.1c.96.46 2.37.98 4.21 1.55 1.84.58 4.12.86 6.83.86q5.445 0 7.86-2.1c1.61-1.4 2.41-3.28 2.41-5.62 0-1.52-.31-2.78-.93-3.79a7.06 7.06 0 0 0-2.55-2.45c-1.08-.62-2.32-1.06-3.72-1.31s-2.89-.38-4.45-.38h-2.83V554h3.45c1.06 0 2.13-.1 3.21-.31s2.06-.57 2.93-1.1 1.59-1.23 2.14-2.1.83-2 .83-3.38c0-1.1-.21-2.05-.62-2.83s-.95-1.42-1.62-1.93-1.44-.87-2.31-1.1-1.79-.34-2.76-.34q-3.105 0-5.52.93c-1.61.62-3.04 1.32-4.28 2.1l-3.03-6.21c.64-.41 1.42-.85 2.34-1.31s1.94-.9 3.07-1.31 2.33-.75 3.62-1 2.64-.38 4.07-.38c2.67 0 4.97.32 6.9.97 1.93.64 3.53 1.55 4.79 2.72s2.21 2.55 2.83 4.14.93 3.32.93 5.21c0 2.21-.61 4.19-1.83 5.93a11.9 11.9 0 0 1-4.72 4c2.48.87 4.54 2.32 6.17 4.35 1.63 2.02 2.45 4.62 2.45 7.79 0 2.12-.37 4.08-1.1 5.9-.74 1.82-1.86 3.38-3.38 4.69s-3.44 2.34-5.76 3.1-5.09 1.14-8.31 1.14Z" class="cls-6"/><path d="M451.41 552.27q0 2.415-1.62 3.93c-1.08 1.01-2.38 1.52-3.9 1.52s-2.87-.51-3.93-1.52q-1.59-1.515-1.59-3.93c0-2.415.53-2.93 1.59-3.97s2.37-1.55 3.93-1.55 2.82.52 3.9 1.55 1.62 2.36 1.62 3.97m0 25.79q0 2.415-1.62 3.93c-1.08 1.01-2.38 1.52-3.9 1.52s-2.87-.51-3.93-1.52q-1.59-1.515-1.59-3.93c0-2.415.53-2.93 1.59-3.97s2.37-1.55 3.93-1.55 2.82.52 3.9 1.55 1.62 2.36 1.62 3.97" class="cls-5"/><path d="M491.14 529.09c1.93 0 3.63.17 5.1.52s2.58.66 3.31.93l-1.59 6.9c-.78-.37-1.69-.67-2.72-.9-1.04-.23-2.15-.34-3.35-.34-1.33 0-2.46.2-3.38.59s-1.66.93-2.21 1.62-.94 1.53-1.17 2.52-.34 2.06-.34 3.21v2.41h13.11v6.97h-13.11v29.11h-8.35V544c0-4.64 1.22-8.29 3.66-10.93s6.12-3.97 11.04-3.97Zm43.8 29.59c0 8.05-1.47 14.22-4.42 18.52q-4.41 6.45-12.21 6.45c-7.8 0-9.27-2.15-12.21-6.45s-4.42-10.47-4.42-18.52c0-4 .38-7.55 1.14-10.66s1.86-5.71 3.31-7.83c1.45-2.11 3.2-3.72 5.24-4.83 2.05-1.1 4.36-1.66 6.93-1.66q7.8 0 12.21 6.45c2.94 4.3 4.42 10.47 4.42 18.52Zm-8.62 0c0-2.48-.14-4.8-.41-6.97-.28-2.16-.72-4.04-1.34-5.62-.62-1.59-1.44-2.84-2.45-3.76s-2.28-1.38-3.79-1.38-2.79.46-3.83 1.38c-1.03.92-1.86 2.17-2.48 3.76s-1.06 3.46-1.31 5.62-.38 4.48-.38 6.97.13 4.81.38 6.97.69 4.03 1.31 5.62 1.45 2.84 2.48 3.76c1.04.92 2.31 1.38 3.83 1.38s2.78-.46 3.79-1.38 1.83-2.17 2.45-3.76 1.07-3.46 1.34-5.62.41-4.48.41-6.97" class="cls-6"/><path d="M568.67 552.27q0 2.415-1.62 3.93c-1.08 1.01-2.38 1.52-3.9 1.52s-2.87-.51-3.93-1.52q-1.59-1.515-1.59-3.93c0-2.415.53-2.93 1.59-3.97s2.37-1.55 3.93-1.55 2.82.52 3.9 1.55 1.62 2.36 1.62 3.97m0 25.79q0 2.415-1.62 3.93c-1.08 1.01-2.38 1.52-3.9 1.52s-2.87-.51-3.93-1.52q-1.59-1.515-1.59-3.93c0-2.415.53-2.93 1.59-3.97s2.37-1.55 3.93-1.55 2.82.52 3.9 1.55 1.62 2.36 1.62 3.97" class="cls-5"/><path d="M624.26 569.79c0 1.98-.35 3.82-1.04 5.52s-1.72 3.17-3.1 4.41-3.09 2.21-5.14 2.9-4.4 1.03-7.07 1.03c-3.13 0-5.73-.44-7.79-1.31-2.07-.87-3.72-1.98-4.97-3.31-1.24-1.33-2.13-2.77-2.66-4.31s-.79-3-.79-4.38.2-2.66.59-3.83q.585-1.755 1.62-3.24c.69-.99 1.47-1.9 2.34-2.72.87-.83 1.79-1.56 2.76-2.21-2.12-1.47-3.69-3.07-4.72-4.79s-1.55-3.83-1.55-6.31c0-1.79.36-3.51 1.07-5.14s1.73-3.07 3.07-4.31q1.995-1.86 4.83-2.97c1.88-.74 3.98-1.1 6.28-1.1q4.065 0 6.93 1.17c1.91.78 3.47 1.79 4.69 3.03s2.1 2.62 2.66 4.14.83 2.99.83 4.42q0 3.795-2.07 6.72c-1.38 1.96-2.97 3.51-4.76 4.66 2.71 1.47 4.73 3.17 6.04 5.1s1.97 4.21 1.97 6.83Zm-24.34.41c0 .69.14 1.43.41 2.21.28.78.74 1.5 1.38 2.14s1.47 1.18 2.48 1.62 2.28.66 3.79.66c1.38 0 2.58-.18 3.59-.55s1.84-.86 2.48-1.48 1.13-1.33 1.45-2.14c.32-.8.48-1.62.48-2.45 0-1.29-.25-2.41-.76-3.38s-1.23-1.8-2.17-2.52c-.94-.71-2.06-1.33-3.35-1.86s-2.71-1-4.28-1.41c-1.66 1.06-2.99 2.33-4 3.83s-1.52 3.28-1.52 5.35Zm15.03-23.59c0-.6-.13-1.25-.38-1.97-.25-.71-.67-1.37-1.24-1.97-.58-.6-1.3-1.1-2.17-1.52-.87-.41-1.93-.62-3.17-.62s-2.31.2-3.21.59-1.62.9-2.17 1.52-.97 1.29-1.24 2c-.28.71-.41 1.41-.41 2.1 0 1.75.66 3.4 1.97 4.97 1.31 1.56 3.51 2.81 6.59 3.72 1.7-1.06 3.04-2.26 4-3.62s1.45-3.09 1.45-5.21Zm39.04 22.35c0-1.52-.3-2.87-.9-4.07s-1.64-2.21-3.14-3.04q-2.25-1.245-6-1.86c-2.51-.41-5.67-.62-9.48-.62.51-4.41.9-8.61 1.17-12.59q.42-5.97.69-11.97h24.42v7.04h-17.31c-.05.78-.1 1.67-.17 2.66l-.21 3c-.07 1.01-.15 1.98-.24 2.9s-.18 1.7-.28 2.34c6.8.37 11.83 1.92 15.07 4.66s4.86 6.47 4.86 11.21c0 2.16-.37 4.16-1.1 6-.74 1.84-1.86 3.43-3.38 4.76s-3.43 2.38-5.73 3.14q-3.45 1.14-8.07 1.14c-1.24 0-2.51-.09-3.79-.28q-1.935-.27-3.69-.66c-1.17-.25-2.22-.52-3.14-.79-.92-.28-1.61-.53-2.07-.76l1.59-7.04c.96.46 2.36.96 4.17 1.48 1.82.53 4.04.79 6.66.79 1.79 0 3.33-.2 4.62-.59s2.33-.93 3.14-1.62c.8-.69 1.39-1.48 1.76-2.38s.55-1.85.55-2.86Z" class="cls-4"/><path d="M697.52 552.27q0 2.415-1.62 3.93c-1.08 1.01-2.38 1.52-3.9 1.52s-2.87-.51-3.93-1.52q-1.59-1.515-1.59-3.93c0-2.415.53-2.93 1.59-3.97s2.37-1.55 3.93-1.55 2.82.52 3.9 1.55 1.62 2.36 1.62 3.97m0 25.79q0 2.415-1.62 3.93c-1.08 1.01-2.38 1.52-3.9 1.52s-2.87-.51-3.93-1.52q-1.59-1.515-1.59-3.93c0-2.415.53-2.93 1.59-3.97s2.37-1.55 3.93-1.55 2.82.52 3.9 1.55 1.62 2.36 1.62 3.97" class="cls-5"/><path d="M734.55 545.64c2.76 0 5.08.34 6.97 1.04 1.89.69 3.39 1.66 4.52 2.9s1.93 2.75 2.41 4.52.72 3.71.72 5.83v21.87c-1.29.28-3.23.61-5.83 1s-5.53.59-8.79.59c-2.16 0-4.14-.21-5.93-.62s-3.32-1.08-4.59-2c-1.26-.92-2.25-2.11-2.97-3.59-.71-1.47-1.07-3.29-1.07-5.45s.4-3.82 1.21-5.24a9.85 9.85 0 0 1 3.28-3.48c1.38-.9 2.98-1.54 4.79-1.93 1.82-.39 3.71-.59 5.69-.59.92 0 1.89.06 2.9.17 1.01.12 2.09.31 3.24.59v-1.38c0-.96-.12-1.88-.34-2.76-.23-.87-.63-1.64-1.21-2.31s-1.33-1.18-2.28-1.55c-.94-.37-2.13-.55-3.55-.55-1.93 0-3.7.14-5.31.41-1.61.28-2.92.6-3.93.97l-1.03-6.76c1.06-.37 2.6-.73 4.62-1.1s4.18-.55 6.48-.55Zm.69 31.11c2.58 0 4.53-.14 5.86-.41v-9.24c-.46-.14-1.13-.28-2-.41-.87-.14-1.84-.21-2.9-.21q-1.38 0-2.79.21c-1.41.21-1.79.39-2.55.76s-1.37.89-1.83 1.55q-.69 1.005-.69 2.52c0 1.98.62 3.35 1.86 4.1q1.86 1.14 5.04 1.14Zm22.15-12.14c0-2.67.41-5.16 1.24-7.48s2.01-4.33 3.55-6.04c1.54-1.7 3.42-3.04 5.62-4 2.21-.97 4.69-1.45 7.45-1.45q5.1 0 9.66 1.86l-1.79 6.83c-.97-.41-2.06-.76-3.28-1.04s-2.52-.41-3.9-.41c-3.27 0-5.75 1.02-7.45 3.07s-2.55 4.93-2.55 8.66.8 6.43 2.41 8.52 4.32 3.14 8.14 3.14c1.42 0 2.83-.14 4.21-.41 1.38-.28 2.58-.62 3.59-1.03l1.17 6.9c-.92.46-2.31.87-4.17 1.24s-3.78.55-5.76.55q-4.62 0-8.04-1.41c-2.28-.94-4.16-2.25-5.66-3.93s-2.61-3.68-3.35-6-1.1-4.84-1.1-7.55Z" class="cls-4"/><path d="M817.39 552.27q0 2.415-1.62 3.93c-1.08 1.01-2.38 1.52-3.9 1.52s-2.87-.51-3.93-1.52q-1.59-1.515-1.59-3.93c0-2.415.53-2.93 1.59-3.97s2.37-1.55 3.93-1.55 2.82.52 3.9 1.55 1.62 2.36 1.62 3.97m0 25.79q0 2.415-1.62 3.93c-1.08 1.01-2.38 1.52-3.9 1.52s-2.87-.51-3.93-1.52q-1.59-1.515-1.59-3.93c0-2.415.53-2.93 1.59-3.97s2.37-1.55 3.93-1.55 2.82.52 3.9 1.55 1.62 2.36 1.62 3.97" class="cls-5"/><path d="M870.3 547.23c0 1.66-.34 3.28-1.03 4.86a24.5 24.5 0 0 1-2.66 4.62 38 38 0 0 1-3.69 4.34c-1.38 1.4-2.76 2.77-4.14 4.1-.74.69-1.56 1.52-2.48 2.48-.92.97-1.79 1.93-2.62 2.9s-1.54 1.9-2.14 2.79-.92 1.64-.97 2.24h21.25v7.04H841.4c-.05-.37-.07-.82-.07-1.34v-1.21c0-2.21.36-4.24 1.07-6.1s1.64-3.6 2.79-5.21 2.44-3.13 3.86-4.55 2.85-2.83 4.28-4.21c1.1-1.06 2.16-2.09 3.17-3.1s1.9-2.01 2.66-3 1.37-2 1.83-3.04.69-2.1.69-3.21q0-3.585-2.07-5.1c-1.38-1.01-3.06-1.52-5.04-1.52-1.29 0-2.48.18-3.59.55-1.1.37-2.08.8-2.93 1.31s-1.6 1.02-2.24 1.55-1.13.96-1.45 1.28l-4.14-5.86c1.93-1.84 4.2-3.32 6.79-4.45 2.6-1.13 5.39-1.69 8.38-1.69 5.1 0 8.86 1.21 11.28 3.62s3.62 5.71 3.62 9.9Zm41.8 34.28q-2.49.765-6.24 1.38c-2.51.41-5.14.62-7.9.62s-5.4-.44-7.66-1.31-4.17-2.13-5.76-3.76-2.81-3.61-3.66-5.93-1.28-4.93-1.28-7.83.36-5.44 1.07-7.76 1.76-4.31 3.14-5.97 3.06-2.93 5.04-3.83 4.25-1.35 6.83-1.35c1.75 0 3.29.21 4.62.62q1.995.615 3.45 1.38v-17.31l8.35-1.38v52.42Zm-23.94-17.04c0 3.68.87 6.56 2.62 8.66 1.75 2.09 4.16 3.14 7.24 3.14 1.33 0 2.47-.06 3.41-.17s1.71-.24 2.31-.38v-20.69c-.74-.5-1.71-.98-2.93-1.41q-1.83-.66-3.9-.66c-3.04 0-5.25 1.04-6.66 3.1-1.4 2.07-2.1 4.87-2.1 8.42Z" class="cls-4"/><rect width="480.92" height="195.02" x="644.9" y="11.98" class="cls-3" rx="24.82" ry="24.82"/><g id="arrow_styles_for_diagrams_etc" data-name="arrow styles for diagrams etc"><g id="arrow_styles_for_diagrams_etc-2" data-name="arrow styles for diagrams etc"><path id="arrow_styles_for_diagrams_etc-3" d="m423.17 457.34-51.8-25.59c-1.52-.76-1.69-2.88-.29-3.83l12.2-8.25L138.15 57.26c-2.49-3.68-1.53-8.69 2.16-11.18l9.55-6.46c3.67-2.49 8.67-1.52 11.15 2.15l245.16 362.42 12.2-8.25c1.41-.95 3.32 0 3.45 1.69l4.48 57.6c.14 1.7-1.61 2.88-3.13 2.12Z" data-name="arrow styles for diagrams etc" style="fill:url(#linear-gradient);stroke-width:0"/></g></g><g id="arrow_styles_for_diagrams_etc-4" data-name="arrow styles for diagrams etc"><g id="arrow_styles_for_diagrams_etc-5" data-name="arrow styles for diagrams etc"><path id="arrow_styles_for_diagrams_etc-6" d="m727.81 457.34 51.8-25.59c1.52-.76 1.69-2.88.29-3.83l-12.2-8.25 245.13-362.41c2.49-3.68 1.53-8.69-2.16-11.18l-9.55-6.46c-3.67-2.49-8.67-1.52-11.15 2.15L744.81 404.19l-12.2-8.25c-1.41-.95-3.32 0-3.45 1.69l-4.48 57.6a2.162 2.162 0 0 0 3.13 2.12Z" data-name="arrow styles for diagrams etc" style="stroke-width:0;fill:url(#linear-gradient-2)"/></g></g><rect width="480.92" height="195.02" x="8.26" y="9.57" class="cls-3" rx="24.82" ry="24.82"/></g><g id="Layer_1" data-name="Layer 1"><path d="M733.09 103.77c-1.52 0-2.82-.22-3.91-.66s-1.99-1.05-2.71-1.84q-1.08-1.185-1.59-2.79c-.51-1.605-.51-2.25-.51-3.53V81.06h4.07v13.5c0 1.01.11 1.87.34 2.58.22.72.55 1.3.96 1.75s.91.78 1.47.99 1.2.32 1.91.32 1.35-.11 1.92-.32 1.07-.54 1.49-.99.74-1.03.96-1.75.34-1.58.34-2.58v-13.5h4.07v13.89c0 1.28-.18 2.46-.53 3.53s-.89 2-1.6 2.79c-.72.79-1.63 1.41-2.74 1.84-1.11.44-2.43.66-3.95.66Zm13.79-16.71c.75-.21 1.72-.42 2.92-.61s2.52-.29 3.98-.29c1.37 0 2.51.19 3.43.56.92.38 1.65.9 2.2 1.57s.93 1.49 1.16 2.44.34 1.99.34 3.13v9.43h-3.88v-8.82c0-.9-.06-1.66-.18-2.29s-.31-1.14-.58-1.54-.63-.68-1.09-.87q-.69-.27-1.68-.27c-.49 0-1 .03-1.54.1-.54.06-.93.12-1.19.16v13.53h-3.88V87.06Zm23.09-5.45c0 .73-.24 1.3-.71 1.73s-1.03.64-1.67.64-1.23-.21-1.7-.64-.71-1-.71-1.73.24-1.34.71-1.76c.47-.43 1.04-.64 1.7-.64s1.2.21 1.67.64.71 1.02.71 1.76m-.42 21.68h-3.88V86.52h3.88zm4.01-8.37c0-1.33.2-2.53.59-3.61s.96-2 1.7-2.76a7.5 7.5 0 0 1 2.68-1.76c1.05-.42 2.23-.62 3.56-.62s2.57.1 3.72.29 2.11.4 2.85.61v22.16h-3.88v-6.51c-.45.24-1 .45-1.65.64s-1.38.29-2.17.29c-1.2 0-2.26-.21-3.18-.62-.92-.42-1.69-1.01-2.31-1.78s-1.1-1.69-1.43-2.76-.5-2.26-.5-3.56Zm3.98.06c0 1.62.33 2.92.98 3.88s1.68 1.44 3.1 1.44c.64 0 1.25-.1 1.81-.3s1.02-.42 1.36-.66v-9.59c-.28-.06-.63-.12-1.04-.18-.42-.05-.96-.08-1.62-.08-1.43 0-2.55.49-3.37 1.46-.81.97-1.22 2.32-1.22 4.03m29.83 7.8c-.75.19-1.72.39-2.92.59s-2.51.3-3.94.3c-1.35 0-2.48-.19-3.38-.58-.91-.38-1.64-.92-2.18-1.6-.55-.68-.94-1.5-1.17-2.45s-.35-1.99-.35-3.13v-9.4h3.88v8.79c0 1.8.26 3.08.79 3.85.52.77 1.44 1.16 2.74 1.16.47 0 .97-.02 1.49-.06s.91-.1 1.17-.16V86.52h3.88v16.26Zm4-7.8c0-1.48.22-2.77.66-3.88s1.02-2.04 1.75-2.77a7.3 7.3 0 0 1 2.5-1.67c.94-.37 1.9-.56 2.89-.56 2.31 0 4.11.72 5.4 2.15s1.94 3.57 1.94 6.42c0 .21 0 .45-.02.72s-.03.51-.05.72h-11.06c.11 1.35.58 2.39 1.43 3.13.84.74 2.07 1.11 3.67 1.11.94 0 1.8-.09 2.58-.26s1.4-.35 1.84-.54l.51 3.17c-.21.11-.51.22-.88.34-.38.12-.8.22-1.28.32q-.72.15-1.56.24c-.56.06-1.12.1-1.7.1-1.48 0-2.76-.22-3.85-.66s-1.99-1.05-2.69-1.83c-.71-.78-1.23-1.7-1.57-2.76q-.51-1.59-.51-3.48Zm11.26-1.73c0-.53-.08-1.04-.22-1.52-.15-.48-.37-.9-.66-1.25s-.64-.63-1.06-.83-.91-.3-1.49-.3-1.12.11-1.57.34c-.45.22-.83.52-1.14.88s-.55.78-.72 1.25-.29.95-.35 1.44h7.22Zm21.04-7.15q1.92 0 3.24.48t2.1 1.35c.52.58.9 1.28 1.12 2.1s.34 1.73.34 2.71v10.17c-.6.13-1.5.28-2.71.46s-2.57.27-4.09.27c-1 0-1.92-.1-2.76-.29s-1.54-.5-2.13-.93-1.05-.98-1.38-1.67c-.33-.68-.5-1.53-.5-2.53s.19-1.77.56-2.44c.37-.66.88-1.2 1.52-1.62s1.38-.72 2.23-.9c.84-.18 1.73-.27 2.65-.27.43 0 .88.03 1.35.08s.97.14 1.51.27v-.64c0-.45-.05-.88-.16-1.28-.11-.41-.29-.76-.56-1.08-.27-.31-.62-.55-1.06-.72s-.99-.26-1.65-.26c-.9 0-1.72.06-2.47.19s-1.36.28-1.83.45l-.48-3.14c.49-.17 1.21-.34 2.15-.51s1.95-.26 3.01-.26Zm.32 14.46c1.2 0 2.11-.06 2.73-.19v-4.3a7 7 0 0 0-.93-.19c-.41-.06-.86-.1-1.35-.1-.43 0-.86.03-1.3.1-.44.06-.83.18-1.19.35s-.64.41-.85.72-.32.7-.32 1.17c0 .92.29 1.55.87 1.91.58.35 1.36.53 2.34.53m25.4 2.22c-.77.24-1.74.45-2.9.64-1.17.19-2.39.29-3.67.29s-2.51-.2-3.56-.61-1.94-.99-2.68-1.75-1.3-1.68-1.7-2.76-.59-2.29-.59-3.64.17-2.53.5-3.61.82-2 1.46-2.77 1.42-1.36 2.34-1.78 1.98-.62 3.17-.62c.81 0 1.53.1 2.15.29s1.15.41 1.6.64v-8.05l3.88-.64v24.38Zm-11.13-7.93c0 1.71.41 3.05 1.22 4.02s1.93 1.46 3.37 1.46c.62 0 1.15-.03 1.59-.08s.8-.11 1.07-.18v-9.62c-.34-.23-.8-.45-1.36-.66-.57-.2-1.17-.3-1.81-.3-1.41 0-2.44.48-3.1 1.44s-.98 2.27-.98 3.91Zm30.25 7.93c-.77.24-1.74.45-2.9.64-1.17.19-2.39.29-3.67.29s-2.51-.2-3.56-.61-1.94-.99-2.68-1.75-1.3-1.68-1.7-2.76-.59-2.29-.59-3.64.17-2.53.5-3.61.82-2 1.46-2.77 1.42-1.36 2.34-1.78 1.98-.62 3.17-.62c.81 0 1.53.1 2.15.29s1.15.41 1.6.64v-8.05l3.88-.64v24.38Zm-11.13-7.93c0 1.71.41 3.05 1.22 4.02s1.93 1.46 3.37 1.46c.62 0 1.15-.03 1.59-.08s.8-.11 1.07-.18v-9.62c-.34-.23-.8-.45-1.36-.66-.57-.2-1.17-.3-1.81-.3-1.41 0-2.44.48-3.1 1.44s-.98 2.27-.98 3.91ZM903 90.01c-.32-.11-.77-.22-1.33-.34-.57-.12-1.22-.18-1.97-.18-.43 0-.88.04-1.36.13-.48.08-.82.16-1.01.22v13.44h-3.88V87.31c.75-.28 1.68-.54 2.81-.79 1.12-.25 2.37-.37 3.74-.37.26 0 .56.02.9.05s.68.08 1.03.13c.34.05.67.12.99.19.32.08.58.14.77.21l-.67 3.27Zm2.44 4.97c0-1.48.22-2.77.66-3.88s1.02-2.04 1.75-2.77a7.3 7.3 0 0 1 2.5-1.67c.94-.37 1.9-.56 2.89-.56 2.31 0 4.11.72 5.4 2.15s1.94 3.57 1.94 6.42c0 .21 0 .45-.02.72s-.03.51-.05.72h-11.06c.11 1.35.58 2.39 1.43 3.13.84.74 2.07 1.11 3.67 1.11.94 0 1.8-.09 2.58-.26s1.4-.35 1.84-.54l.51 3.17c-.21.11-.51.22-.88.34-.38.12-.8.22-1.28.32q-.72.15-1.56.24c-.56.06-1.12.1-1.7.1-1.48 0-2.76-.22-3.85-.66s-1.99-1.05-2.69-1.83c-.71-.78-1.23-1.7-1.57-2.76q-.51-1.59-.51-3.48Zm11.26-1.73c0-.53-.08-1.04-.22-1.52-.15-.48-.37-.9-.66-1.25s-.64-.63-1.06-.83-.91-.3-1.49-.3-1.12.11-1.57.34c-.45.22-.83.52-1.14.88s-.55.78-.72 1.25-.29.95-.35 1.44h7.22Zm12.18 7.25c1.03 0 1.77-.12 2.25-.37.47-.25.71-.67.71-1.27q0-.84-.75-1.38c-.5-.36-1.33-.76-2.49-1.19-.71-.26-1.35-.53-1.94-.82s-1.1-.62-1.52-1.01c-.43-.38-.76-.85-1.01-1.4s-.37-1.21-.37-2c0-1.54.57-2.75 1.7-3.64s2.67-1.33 4.62-1.33q1.47 0 2.82.27c.9.18 1.57.36 2.02.53l-.71 3.14c-.43-.19-.97-.37-1.64-.53q-.99-.24-2.31-.24c-.79 0-1.43.13-1.92.4s-.74.68-.74 1.23c0 .28.05.52.14.74.1.21.26.41.5.59s.54.36.93.54c.38.18.85.37 1.41.56.92.34 1.7.68 2.34 1.01s1.17.71 1.59 1.12.72.89.91 1.43.29 1.18.29 1.92c0 1.6-.59 2.82-1.78 3.64s-2.88 1.23-5.08 1.23c-1.48 0-2.66-.12-3.56-.37s-1.53-.44-1.89-.59l.67-3.24c.58.24 1.27.46 2.07.67s1.72.32 2.74.32Zm14.66 0c1.03 0 1.77-.12 2.25-.37.47-.25.71-.67.71-1.27q0-.84-.75-1.38c-.5-.36-1.33-.76-2.49-1.19-.71-.26-1.35-.53-1.94-.82s-1.1-.62-1.52-1.01c-.43-.38-.76-.85-1.01-1.4s-.37-1.21-.37-2c0-1.54.57-2.75 1.7-3.64s2.67-1.33 4.62-1.33q1.47 0 2.82.27c.9.18 1.57.36 2.02.53l-.71 3.14c-.43-.19-.97-.37-1.64-.53q-.99-.24-2.31-.24c-.79 0-1.43.13-1.92.4s-.74.68-.74 1.23c0 .28.05.52.14.74.1.21.26.41.5.59s.54.36.93.54c.38.18.85.37 1.41.56.92.34 1.7.68 2.34 1.01s1.17.71 1.59 1.12.72.89.91 1.43.29 1.18.29 1.92c0 1.6-.59 2.82-1.78 3.64s-2.88 1.23-5.08 1.23c-1.48 0-2.66-.12-3.56-.37s-1.53-.44-1.89-.59l.67-3.24c.58.24 1.27.46 2.07.67s1.72.32 2.74.32Zm33.1-5.61c0 1.33-.19 2.53-.58 3.62-.38 1.09-.93 2.02-1.64 2.79q-1.065 1.155-2.55 1.8c-1.485.645-2.09.64-3.29.64s-2.29-.21-3.27-.64a7.4 7.4 0 0 1-2.53-1.8q-1.065-1.155-1.65-2.79c-.4-1.09-.59-2.3-.59-3.62s.2-2.53.59-3.61c.4-1.08.95-2 1.67-2.77s1.57-1.36 2.55-1.78 2.06-.62 3.24-.62 2.26.21 3.25.62 1.84 1.01 2.55 1.78 1.26 1.7 1.65 2.77c.4 1.08.59 2.28.59 3.61Zm-3.98 0c0-1.67-.36-2.99-1.07-3.96s-1.72-1.46-3-1.46-2.28.49-3 1.46-1.07 2.29-1.07 3.96.36 3.03 1.07 4.01q1.08 1.47 3 1.47c1.92 0 2.28-.49 3-1.47s1.07-2.32 1.07-4.01m14.82-16.49q1.35 0 2.37.24c.68.16 1.2.3 1.54.43l-.74 3.21c-.36-.17-.79-.31-1.27-.42s-1-.16-1.56-.16c-.62 0-1.14.09-1.57.27s-.77.43-1.03.75q-.39.48-.54 1.17c-.11.46-.16.96-.16 1.49v1.12h6.09v3.24h-6.09v13.53h-3.88V85.31c0-2.16.57-3.85 1.7-5.08s2.84-1.84 5.13-1.84Zm13.27 3.69 3.88-.64v5.07h5.96v3.24h-5.96v6.83c0 1.35.21 2.31.64 2.89s1.16.87 2.18.87c.71 0 1.33-.08 1.88-.22s.98-.29 1.3-.42l.64 3.08c-.45.19-1.04.39-1.76.59-.73.2-1.58.3-2.57.3q-1.8 0-3-.48c-.8-.32-1.44-.79-1.91-1.39-.47-.61-.8-1.35-.99-2.21s-.29-1.85-.29-2.97V82.1Zm13.6 21.2V79.04l3.88-.64v8.31c.43-.15.92-.28 1.49-.38a9 9 0 0 1 1.68-.16c1.35 0 2.46.19 3.35.56.89.38 1.6.9 2.13 1.57s.91 1.48 1.14 2.42c.22.94.34 1.99.34 3.14v9.43h-3.88v-8.82c0-.9-.06-1.66-.18-2.29s-.31-1.14-.58-1.54-.63-.68-1.07-.87c-.45-.18-1.01-.27-1.67-.27-.51 0-1.04.05-1.57.16-.54.11-.93.2-1.19.29v13.34h-3.88Zm17.74-8.31c0-1.48.22-2.77.66-3.88s1.02-2.04 1.75-2.77a7.3 7.3 0 0 1 2.5-1.67c.94-.37 1.9-.56 2.89-.56 2.31 0 4.11.72 5.4 2.15s1.94 3.57 1.94 6.42c0 .21 0 .45-.02.72s-.03.51-.05.72h-11.06c.11 1.35.58 2.39 1.43 3.13.84.74 2.07 1.11 3.67 1.11.94 0 1.8-.09 2.58-.26s1.4-.35 1.84-.54l.51 3.17c-.21.11-.51.22-.88.34-.38.12-.8.22-1.28.32q-.72.15-1.56.24c-.56.06-1.12.1-1.7.1-1.48 0-2.76-.22-3.85-.66s-1.99-1.05-2.69-1.83c-.71-.78-1.23-1.7-1.57-2.76q-.51-1.59-.51-3.48Zm11.25-1.73c0-.53-.08-1.04-.22-1.52-.15-.48-.37-.9-.66-1.25s-.64-.63-1.06-.83-.91-.3-1.49-.3-1.12.11-1.57.34c-.45.22-.83.52-1.14.88s-.55.78-.72 1.25-.29.95-.35 1.44h7.22Zm-289.41 32.3c.75-.21 1.72-.42 2.92-.61s2.52-.29 3.98-.29c1.37 0 2.51.19 3.43.56.92.38 1.65.9 2.2 1.57s.93 1.49 1.16 2.44.34 1.99.34 3.13v9.43h-3.88v-8.82c0-.9-.06-1.66-.18-2.29s-.31-1.14-.58-1.54-.63-.68-1.09-.87q-.69-.27-1.68-.27c-.49 0-1 .03-1.54.1-.54.06-.93.12-1.19.16v13.53h-3.88v-16.23Zm17.83 7.92c0-1.48.22-2.77.66-3.88s1.02-2.04 1.75-2.77a7.3 7.3 0 0 1 2.5-1.67c.94-.37 1.9-.56 2.89-.56 2.31 0 4.11.72 5.4 2.15s1.94 3.57 1.94 6.42c0 .21 0 .45-.02.72s-.03.51-.05.72h-11.06c.11 1.35.58 2.39 1.43 3.13.84.74 2.07 1.11 3.67 1.11.94 0 1.8-.09 2.58-.26s1.4-.35 1.84-.54l.51 3.17c-.21.11-.51.22-.88.34-.38.12-.8.22-1.28.32q-.72.15-1.56.24c-.56.06-1.12.1-1.7.1-1.48 0-2.76-.22-3.85-.66s-1.99-1.05-2.69-1.83c-.71-.78-1.23-1.7-1.57-2.76q-.51-1.59-.51-3.48Zm11.26-1.73c0-.53-.08-1.04-.22-1.52-.15-.48-.37-.9-.66-1.25s-.64-.63-1.06-.83-.91-.3-1.49-.3-1.12.11-1.57.34c-.45.22-.83.52-1.14.88s-.55.78-.72 1.25-.29.95-.35 1.44h7.22Zm7.8-11.16 3.88-.64v5.07h5.96v3.24h-5.96v6.83c0 1.35.21 2.31.64 2.89s1.16.87 2.18.87c.71 0 1.33-.08 1.88-.22s.98-.29 1.3-.42l.64 3.08c-.45.19-1.04.39-1.76.59-.73.2-1.58.3-2.57.3q-1.8 0-3-.48c-.8-.32-1.44-.79-1.91-1.39-.47-.61-.8-1.35-.99-2.21s-.29-1.85-.29-2.97v-14.53Zm23.62 10.64c-.49 1.88-1.02 3.72-1.59 5.5-.57 1.79-1.13 3.47-1.68 5.05h-3.19c-.43-.98-.88-2.11-1.35-3.37s-.94-2.61-1.41-4.04-.94-2.94-1.41-4.52-.93-3.2-1.38-4.84h4.11c.19.9.42 1.87.68 2.9s.53 2.1.81 3.17c.28 1.08.57 2.13.87 3.16q.45 1.545.9 2.82a112 112 0 0 0 1.83-6.19c.28-1.05.54-2.07.79-3.06.25-1 .47-1.93.66-2.81h2.98c.19.88.41 1.81.64 2.81.23.99.49 2.01.75 3.06.27 1.05.56 2.1.86 3.14.31 1.05.62 2.06.94 3.05.28-.85.57-1.8.87-2.82s.6-2.08.89-3.16.56-2.14.82-3.17.48-2 .68-2.9h4.01c-.45 1.65-.91 3.26-1.38 4.84s-.94 3.09-1.41 4.52-.94 2.78-1.41 4.04-.93 2.38-1.38 3.37h-3.15c-.56-1.58-1.13-3.27-1.71-5.05a88 88 0 0 1-1.62-5.5Zm29.84 2.15c0 1.33-.19 2.53-.58 3.62-.38 1.09-.93 2.02-1.64 2.79q-1.065 1.155-2.55 1.8c-1.485.645-2.09.64-3.29.64s-2.29-.21-3.27-.64a7.4 7.4 0 0 1-2.53-1.8q-1.065-1.155-1.65-2.79c-.4-1.09-.59-2.3-.59-3.62s.2-2.53.59-3.61c.4-1.08.95-2 1.67-2.77s1.57-1.36 2.55-1.78 2.06-.62 3.24-.62 2.26.21 3.25.62 1.84 1.01 2.55 1.78 1.26 1.7 1.65 2.77c.4 1.08.59 2.28.59 3.61Zm-3.98 0c0-1.67-.36-2.99-1.07-3.96s-1.72-1.46-3-1.46-2.28.49-3 1.46-1.07 2.29-1.07 3.96.36 3.03 1.07 4.01q1.08 1.47 3 1.47c1.92 0 2.28-.49 3-1.47s1.07-2.32 1.07-4.01m17.55-4.87c-.32-.11-.77-.22-1.33-.34-.57-.12-1.22-.18-1.97-.18-.43 0-.88.04-1.36.13-.48.08-.82.16-1.01.22v13.44h-3.88V125.8c.75-.28 1.68-.54 2.81-.79 1.12-.25 2.37-.37 3.74-.37.26 0 .56.02.9.05s.68.08 1.03.13c.34.05.67.12.99.19.32.08.58.14.77.21l-.67 3.27Zm7.24 3.04c.49-.51 1.01-1.06 1.57-1.65s1.1-1.18 1.64-1.76c.53-.59 1.04-1.15 1.52-1.7.48-.54.89-1.02 1.23-1.43h4.59c-1.07 1.2-2.19 2.44-3.38 3.72q-1.77 1.92-3.57 3.75c.64.54 1.31 1.18 2.02 1.94s1.39 1.57 2.05 2.42c.66.86 1.28 1.71 1.86 2.57q.87 1.29 1.44 2.37h-4.49c-.39-.66-.83-1.36-1.33-2.08-.5-.73-1.04-1.43-1.62-2.12s-1.17-1.33-1.76-1.94-1.19-1.13-1.76-1.56v7.7h-3.88v-24.25l3.88-.64v14.66Zm25.6-11.45c0 .73-.24 1.3-.71 1.73s-1.03.64-1.67.64-1.23-.21-1.7-.64-.71-1-.71-1.73.24-1.34.71-1.76c.47-.43 1.04-.64 1.7-.64s1.2.21 1.67.64.71 1.02.71 1.76m-.42 21.68h-3.88V125h3.88zm4.94-16.22c.75-.21 1.72-.42 2.92-.61s2.52-.29 3.98-.29c1.37 0 2.51.19 3.43.56.92.38 1.65.9 2.2 1.57s.93 1.49 1.16 2.44.34 1.99.34 3.13v9.43h-3.88v-8.82c0-.9-.06-1.66-.18-2.29s-.31-1.14-.58-1.54-.63-.68-1.09-.87q-.69-.27-1.68-.27c-.49 0-1 .03-1.54.1-.54.06-.93.12-1.19.16v13.53h-3.88v-16.23Zm18.57-4.97 3.88-.64v5.07h5.96v3.24h-5.96v6.83c0 1.35.21 2.31.64 2.89s1.16.87 2.18.87c.71 0 1.33-.08 1.88-.22s.98-.29 1.3-.42l.64 3.08c-.45.19-1.04.39-1.76.59-.73.2-1.58.3-2.57.3q-1.8 0-3-.48c-.8-.32-1.44-.79-1.91-1.39-.47-.61-.8-1.35-.99-2.21s-.29-1.85-.29-2.97v-14.53Zm12.38 12.89c0-1.48.22-2.77.66-3.88s1.02-2.04 1.75-2.77a7.3 7.3 0 0 1 2.5-1.67c.94-.37 1.9-.56 2.89-.56 2.31 0 4.11.72 5.4 2.15s1.94 3.57 1.94 6.42c0 .21 0 .45-.02.72s-.03.51-.05.72h-11.06c.11 1.35.58 2.39 1.43 3.13.84.74 2.07 1.11 3.67 1.11.94 0 1.8-.09 2.58-.26s1.4-.35 1.84-.54l.51 3.17c-.21.11-.51.22-.88.34-.38.12-.8.22-1.28.32q-.72.15-1.56.24c-.56.06-1.12.1-1.7.1-1.48 0-2.76-.22-3.85-.66s-1.99-1.05-2.69-1.83c-.71-.78-1.23-1.7-1.57-2.76q-.51-1.59-.51-3.48Zm11.25-1.73c0-.53-.08-1.04-.22-1.52-.15-.48-.37-.9-.66-1.25s-.64-.63-1.06-.83-.91-.3-1.49-.3-1.12.11-1.57.34c-.45.22-.83.52-1.14.88s-.55.78-.72 1.25-.29.95-.35 1.44h7.22Zm17.55-3.24c-.32-.11-.77-.22-1.33-.34-.57-.12-1.22-.18-1.97-.18-.43 0-.88.04-1.36.13-.48.08-.82.16-1.01.22v13.44h-3.88V125.8c.75-.28 1.68-.54 2.81-.79 1.12-.25 2.37-.37 3.74-.37.26 0 .56.02.9.05s.68.08 1.03.13c.34.05.67.12.99.19.32.08.58.14.77.21l-.67 3.27Zm10.2-11.61q1.35 0 2.37.24c.68.16 1.2.3 1.54.43l-.74 3.21c-.36-.17-.79-.31-1.27-.42s-1-.16-1.56-.16c-.62 0-1.14.09-1.57.27s-.77.43-1.03.75q-.39.48-.54 1.17c-.11.46-.16.96-.16 1.49v1.12h6.09v3.24h-6.09v13.53h-3.88V123.8c0-2.16.57-3.85 1.7-5.08s2.84-1.84 5.13-1.84Zm11.57 7.69q1.92 0 3.24.48t2.1 1.35c.52.58.9 1.28 1.12 2.1s.34 1.73.34 2.71v10.17c-.6.13-1.5.28-2.71.46s-2.57.27-4.09.27c-1 0-1.92-.1-2.76-.29s-1.54-.5-2.13-.93-1.05-.98-1.38-1.67c-.33-.68-.5-1.53-.5-2.53s.19-1.77.56-2.44c.37-.66.88-1.2 1.52-1.62s1.38-.72 2.23-.9c.84-.18 1.73-.27 2.65-.27.43 0 .88.03 1.35.08s.97.14 1.51.27v-.64c0-.45-.05-.88-.16-1.28-.11-.41-.29-.76-.56-1.08-.27-.31-.62-.55-1.06-.72s-.99-.26-1.65-.26c-.9 0-1.72.06-2.47.19s-1.36.28-1.83.45l-.48-3.14c.49-.17 1.21-.34 2.15-.51s1.95-.26 3.01-.26Zm.32 14.47c1.2 0 2.11-.06 2.73-.19v-4.3a7 7 0 0 0-.93-.19c-.41-.06-.86-.1-1.35-.1-.43 0-.86.03-1.3.1-.44.06-.83.18-1.19.35s-.64.41-.85.72-.32.7-.32 1.17c0 .92.29 1.55.87 1.91.58.35 1.36.53 2.34.53m10.3-5.65c0-1.24.19-2.4.58-3.48.38-1.08.93-2.01 1.65-2.81q1.08-1.185 2.61-1.86c1.03-.45 2.18-.67 3.46-.67 1.58 0 3.08.29 4.49.87l-.83 3.17c-.45-.19-.96-.35-1.52-.48-.57-.13-1.17-.19-1.81-.19-1.52 0-2.67.48-3.46 1.43s-1.19 2.29-1.19 4.02.37 2.99 1.12 3.96 2.01 1.46 3.78 1.46c.66 0 1.32-.06 1.96-.19a9.6 9.6 0 0 0 1.67-.48l.54 3.21c-.43.21-1.07.41-1.94.58s-1.76.26-2.68.26c-1.43 0-2.68-.22-3.74-.66s-1.94-1.05-2.63-1.83c-.7-.78-1.21-1.71-1.56-2.79q-.51-1.62-.51-3.51Zm15.14.07c0-1.48.22-2.77.66-3.88s1.02-2.04 1.75-2.77a7.3 7.3 0 0 1 2.5-1.67c.94-.37 1.9-.56 2.89-.56 2.31 0 4.11.72 5.4 2.15s1.94 3.57 1.94 6.42c0 .21 0 .45-.02.72s-.03.51-.05.72h-11.06c.11 1.35.58 2.39 1.43 3.13.84.74 2.07 1.11 3.67 1.11.94 0 1.8-.09 2.58-.26s1.4-.35 1.84-.54l.51 3.17c-.21.11-.51.22-.88.34-.38.12-.8.22-1.28.32q-.72.15-1.56.24c-.56.06-1.12.1-1.7.1-1.48 0-2.76-.22-3.85-.66s-1.99-1.05-2.69-1.83c-.71-.78-1.23-1.7-1.57-2.76q-.51-1.59-.51-3.48Zm11.25-1.73c0-.53-.08-1.04-.22-1.52-.15-.48-.37-.9-.66-1.25s-.64-.63-1.06-.83-.91-.3-1.49-.3-1.12.11-1.57.34c-.45.22-.83.52-1.14.88s-.55.78-.72 1.25-.29.95-.35 1.44h7.22ZM97.8 78.88c-1.6-3.46-3.15-7.09-4.64-10.87A264 264 0 0 1 89 56.66h4.46c.51 1.5 1.04 3.03 1.58 4.59s1.07 3.09 1.61 4.6 1.07 2.97 1.61 4.38 1.06 2.71 1.58 3.88c.49-1.18 1.01-2.46 1.54-3.87q.81-2.1 1.62-4.38.825-2.28 1.62-4.62c.54-1.56 1.05-3.09 1.54-4.59h4.33c-1.31 3.78-2.7 7.57-4.18 11.35s-3.03 7.41-4.64 10.87h-3.88Zm13.14-8.31c0-1.48.22-2.77.66-3.88s1.02-2.04 1.75-2.77c.73-.74 1.56-1.29 2.5-1.67s1.9-.56 2.89-.56c2.31 0 4.11.72 5.4 2.15s1.94 3.57 1.94 6.42c0 .21 0 .45-.02.72s-.03.51-.05.72h-11.06c.11 1.35.58 2.39 1.43 3.13.84.74 2.07 1.11 3.67 1.11.94 0 1.8-.09 2.58-.26s1.4-.35 1.84-.54l.51 3.17c-.21.11-.51.22-.88.34s-.8.22-1.28.32q-.72.15-1.56.24c-.56.06-1.12.1-1.7.1-1.48 0-2.76-.22-3.85-.66s-1.99-1.05-2.69-1.83-1.23-1.7-1.57-2.76q-.51-1.59-.51-3.48Zm11.26-1.73c0-.53-.08-1.04-.22-1.52-.15-.48-.37-.9-.66-1.25s-.64-.63-1.06-.83-.91-.3-1.49-.3-1.12.11-1.57.34c-.45.22-.83.52-1.14.88s-.55.78-.72 1.25-.29.95-.35 1.44h7.22Zm7.99-6.19c.75-.21 1.72-.42 2.92-.61s2.52-.29 3.98-.29c1.37 0 2.51.19 3.43.56.92.38 1.65.9 2.2 1.57.54.67.93 1.49 1.15 2.44s.34 1.99.34 3.13v9.43h-3.88v-8.82c0-.9-.06-1.66-.18-2.29s-.31-1.14-.58-1.54-.63-.68-1.09-.87q-.69-.27-1.68-.27c-.49 0-1.01.03-1.54.1-.53.06-.93.12-1.19.16v13.53h-3.88zm32.93 15.72c-.77.24-1.74.45-2.9.64-1.17.19-2.39.29-3.67.29s-2.51-.2-3.56-.61-1.94-.99-2.68-1.75-1.3-1.68-1.7-2.76-.59-2.29-.59-3.64.17-2.53.5-3.61.82-2 1.46-2.77 1.42-1.36 2.34-1.78 1.98-.62 3.18-.62c.81 0 1.53.1 2.15.29s1.15.41 1.6.64v-8.05l3.88-.64v24.38Zm-11.13-7.92c0 1.71.41 3.05 1.22 4.02s1.94 1.46 3.37 1.46c.62 0 1.15-.03 1.59-.08s.8-.11 1.07-.18v-9.62c-.34-.23-.8-.45-1.36-.66-.57-.2-1.17-.3-1.81-.3q-2.115 0-3.09 1.44c-.65.96-.98 2.27-.98 3.91Zm31.24.03c0 1.33-.19 2.53-.58 3.62-.38 1.09-.93 2.02-1.64 2.79s-1.56 1.37-2.55 1.8-2.09.64-3.29.64-2.29-.21-3.27-.64-1.83-1.03-2.53-1.8-1.26-1.7-1.65-2.79c-.4-1.09-.59-2.3-.59-3.62s.2-2.53.59-3.61c.4-1.08.95-2 1.67-2.77s1.57-1.36 2.55-1.78 2.06-.62 3.24-.62 2.26.21 3.26.62 1.84 1.01 2.55 1.78 1.26 1.7 1.65 2.77c.4 1.08.59 2.28.59 3.61m-3.97 0c0-1.67-.36-2.99-1.07-3.96s-1.72-1.46-3-1.46-2.28.49-3 1.46-1.07 2.29-1.07 3.96.36 3.03 1.07 4.01q1.08 1.47 3 1.47c1.92 0 2.28-.49 3-1.47s1.07-2.32 1.07-4.01m17.54-4.88c-.32-.11-.76-.22-1.33-.34s-1.22-.18-1.97-.18c-.43 0-.88.04-1.36.13-.48.08-.82.16-1.01.22v13.44h-3.88V62.9c.75-.28 1.68-.54 2.81-.79 1.12-.25 2.37-.37 3.74-.37.26 0 .56.02.9.05s.68.08 1.03.13c.34.05.67.12.99.19.32.08.58.14.77.21l-.67 3.27Zm20.86 2.73c-.49 1.88-1.02 3.72-1.59 5.5-.57 1.79-1.13 3.47-1.68 5.05h-3.19c-.43-.98-.88-2.11-1.35-3.37s-.94-2.61-1.41-4.04-.94-2.94-1.41-4.52-.93-3.2-1.38-4.84h4.11c.19.9.42 1.87.68 2.9.26 1.04.53 2.1.81 3.17.28 1.08.57 2.13.87 3.16s.6 1.97.9 2.82c.32-.98.64-2 .95-3.05s.61-2.09.88-3.14c.28-1.05.54-2.07.79-3.06.25-1 .47-1.93.66-2.81h2.98c.19.88.41 1.81.64 2.81q.345 1.485.75 3.06c.405 1.575.55 2.1.86 3.14.31 1.05.62 2.06.94 3.05.28-.85.57-1.8.87-2.82.3-1.03.6-2.08.89-3.16s.56-2.14.82-3.17c.26-1.04.48-2 .68-2.9h4.01c-.45 1.65-.91 3.26-1.38 4.84s-.94 3.09-1.41 4.52-.94 2.78-1.41 4.04-.93 2.38-1.38 3.37h-3.15c-.56-1.58-1.13-3.27-1.71-5.05a88 88 0 0 1-1.62-5.5Zm14.99 10.55V54.63l3.88-.64v8.31c.43-.15.92-.28 1.49-.38a9 9 0 0 1 1.68-.16c1.35 0 2.46.19 3.35.56.89.38 1.6.9 2.13 1.57s.91 1.48 1.14 2.42c.22.94.34 1.99.34 3.14v9.43h-3.88v-8.82c0-.9-.06-1.66-.18-2.29s-.31-1.14-.58-1.54-.63-.68-1.07-.87c-.45-.18-1-.27-1.67-.27-.51 0-1.04.05-1.57.16s-.93.2-1.19.29v13.34h-3.88Zm33.84-8.4c0 1.33-.19 2.53-.58 3.62-.38 1.09-.93 2.02-1.64 2.79s-1.56 1.37-2.55 1.8-2.09.64-3.29.64-2.29-.21-3.27-.64-1.83-1.03-2.53-1.8-1.26-1.7-1.65-2.79c-.4-1.09-.59-2.3-.59-3.62s.2-2.53.59-3.61c.4-1.08.95-2 1.67-2.77s1.57-1.36 2.55-1.78 2.06-.62 3.24-.62 2.26.21 3.26.62 1.84 1.01 2.55 1.78 1.26 1.7 1.65 2.77c.4 1.08.59 2.28.59 3.61m-3.98 0c0-1.67-.36-2.99-1.07-3.96s-1.72-1.46-3-1.46-2.28.49-3 1.46-1.07 2.29-1.07 3.96.36 3.03 1.07 4.01q1.08 1.47 3 1.47c1.92 0 2.28-.49 3-1.47s1.07-2.32 1.07-4.01m30.57.03c0 1.35-.2 2.56-.59 3.64-.4 1.08-.96 2-1.7 2.77s-1.63 1.36-2.68 1.76c-1.05.41-2.23.61-3.56.61s-2.51-.1-3.67-.29c-1.17-.19-2.13-.41-2.9-.64V54.63l3.88-.64v8.69c.45-.24 1-.45 1.65-.64s1.37-.29 2.17-.29c1.18 0 2.23.21 3.16.62s1.71 1.01 2.33 1.78 1.09 1.69 1.43 2.77c.33 1.08.5 2.27.5 3.58Zm-3.98-.06c0-1.65-.33-2.95-.98-3.91s-1.68-1.44-3.1-1.44c-.64 0-1.25.1-1.81.29s-1.02.41-1.36.64v9.65c.28.06.63.12 1.07.18.44.05.97.08 1.59.08 1.43 0 2.55-.49 3.37-1.46.81-.97 1.22-2.31 1.22-4.02Zm21.74 7.92c-.75.19-1.72.39-2.92.59s-2.51.3-3.94.3c-1.35 0-2.48-.19-3.38-.58-.91-.38-1.64-.92-2.18-1.6-.55-.68-.94-1.5-1.17-2.45s-.35-1.99-.35-3.13v-9.4h3.88v8.79c0 1.8.26 3.08.79 3.85.52.77 1.44 1.16 2.74 1.16.47 0 .97-.02 1.49-.06s.91-.1 1.17-.16V62.11h3.88v16.26Zm9.27-21.17c0 .73-.24 1.3-.71 1.73s-1.03.64-1.67.64-1.23-.21-1.7-.64-.71-1-.71-1.73.24-1.34.71-1.76c.47-.43 1.04-.64 1.7-.64s1.2.21 1.67.64.71 1.02.71 1.76m-.42 21.68h-3.88V62.11h3.88zm10.78.32c-1.15-.02-2.11-.15-2.87-.38s-1.36-.57-1.81-1.01-.76-.98-.95-1.64-.27-1.4-.27-2.23V54.63l3.88-.64V73.2c0 .47.04.87.11 1.19s.21.59.4.82.45.4.79.51c.33.12.75.21 1.27.27l-.54 3.21Zm17.86-.83c-.77.24-1.74.45-2.9.64-1.17.19-2.39.29-3.67.29s-2.51-.2-3.56-.61-1.94-.99-2.68-1.75-1.3-1.68-1.7-2.76-.59-2.29-.59-3.64.17-2.53.5-3.61.82-2 1.46-2.77 1.42-1.36 2.34-1.78 1.98-.62 3.17-.62c.81 0 1.53.1 2.15.29s1.15.41 1.6.64v-8.05l3.88-.64v24.38Zm-11.12-7.92c0 1.71.41 3.05 1.22 4.02s1.93 1.46 3.37 1.46c.62 0 1.15-.03 1.59-.08s.8-.11 1.07-.18v-9.62c-.34-.23-.8-.45-1.36-.66-.57-.2-1.17-.3-1.81-.3-1.41 0-2.44.48-3.1 1.44s-.98 2.27-.98 3.91Zm23.34-12.77 3.88-.64v5.07h5.96v3.24h-5.96v6.83c0 1.35.21 2.31.64 2.89s1.16.87 2.18.87c.71 0 1.33-.08 1.88-.22s.98-.29 1.3-.42l.64 3.08c-.45.19-1.04.39-1.76.59-.73.2-1.58.3-2.57.3q-1.8 0-3-.48c-.8-.32-1.44-.79-1.91-1.39-.47-.61-.8-1.35-.99-2.21s-.29-1.85-.29-2.97V57.69Zm13.6 21.2V54.63l3.88-.64v8.31c.43-.15.92-.28 1.49-.38a9 9 0 0 1 1.68-.16c1.35 0 2.46.19 3.35.56.89.38 1.6.9 2.13 1.57s.91 1.48 1.14 2.42c.22.94.34 1.99.34 3.14v9.43h-3.88v-8.82c0-.9-.06-1.66-.18-2.29s-.31-1.14-.58-1.54-.63-.68-1.07-.87c-.45-.18-1.01-.27-1.67-.27-.51 0-1.04.05-1.57.16-.54.11-.93.2-1.19.29v13.34h-3.88Zm17.74-8.31c0-1.48.22-2.77.66-3.88s1.02-2.04 1.75-2.77a7.3 7.3 0 0 1 2.5-1.67c.94-.37 1.9-.56 2.89-.56 2.31 0 4.11.72 5.4 2.15s1.94 3.57 1.94 6.42c0 .21 0 .45-.02.72s-.03.51-.05.72H395.9c.11 1.35.58 2.39 1.43 3.13.84.74 2.07 1.11 3.67 1.11.94 0 1.8-.09 2.58-.26s1.4-.35 1.84-.54l.51 3.17c-.21.11-.51.22-.88.34-.38.12-.8.22-1.28.32q-.72.15-1.56.24c-.56.06-1.12.1-1.7.1-1.48 0-2.76-.22-3.85-.66s-1.99-1.05-2.69-1.83c-.71-.78-1.23-1.7-1.57-2.76q-.51-1.59-.51-3.48Zm11.25-1.73c0-.53-.08-1.04-.22-1.52-.15-.48-.37-.9-.66-1.25s-.64-.63-1.06-.83-.91-.3-1.49-.3-1.12.11-1.57.34c-.45.22-.83.52-1.14.88s-.55.78-.72 1.25-.29.95-.35 1.44h7.22Zm-285.85 32.3c.75-.21 1.72-.42 2.92-.61s2.52-.29 3.98-.29c1.37 0 2.51.19 3.43.56.92.38 1.65.9 2.2 1.57.54.67.93 1.49 1.15 2.44s.34 1.99.34 3.13v9.43h-3.88v-8.82c0-.9-.06-1.66-.18-2.29s-.31-1.14-.58-1.54-.63-.68-1.09-.87q-.69-.27-1.68-.27c-.49 0-1.01.03-1.54.1-.53.06-.93.12-1.19.16v13.53h-3.88zm17.83 7.92c0-1.48.22-2.77.66-3.88s1.02-2.04 1.75-2.77c.73-.74 1.56-1.29 2.5-1.67s1.9-.56 2.89-.56c2.31 0 4.11.72 5.4 2.15s1.94 3.57 1.94 6.42c0 .21 0 .45-.02.72s-.03.51-.05.72h-11.06c.11 1.35.58 2.39 1.43 3.13.84.74 2.07 1.11 3.67 1.11.94 0 1.8-.09 2.58-.26s1.4-.35 1.84-.54l.51 3.17c-.21.11-.51.22-.88.34s-.8.22-1.28.32q-.72.15-1.56.24c-.56.06-1.12.1-1.7.1-1.48 0-2.76-.22-3.85-.66s-1.99-1.05-2.69-1.83-1.23-1.7-1.57-2.76q-.51-1.59-.51-3.48Zm11.26-1.73c0-.53-.08-1.04-.22-1.52-.15-.48-.37-.9-.66-1.25s-.64-.63-1.06-.83-.91-.3-1.49-.3-1.12.11-1.57.34c-.45.22-.83.52-1.14.88s-.55.78-.72 1.25-.29.95-.35 1.44h7.22Zm7.79-11.16 3.88-.64v5.07h5.97v3.24h-5.97v6.83c0 1.35.21 2.31.64 2.89s1.15.87 2.18.87c.71 0 1.33-.08 1.88-.22.54-.15.98-.29 1.3-.42l.64 3.08c-.45.19-1.04.39-1.76.59-.73.2-1.58.3-2.57.3q-1.8 0-3-.48c-.8-.32-1.44-.79-1.91-1.39-.47-.61-.8-1.35-.99-2.21s-.29-1.85-.29-2.97V96.18Zm23.62 10.64c-.49 1.88-1.02 3.72-1.59 5.5-.57 1.79-1.13 3.47-1.68 5.05h-3.19c-.43-.98-.88-2.11-1.35-3.37s-.94-2.61-1.41-4.04-.94-2.94-1.41-4.52-.93-3.2-1.38-4.84h4.11c.19.9.42 1.87.68 2.9.26 1.04.53 2.1.81 3.17.28 1.08.57 2.13.87 3.16s.6 1.97.9 2.82c.32-.98.64-2 .95-3.05s.61-2.09.88-3.14c.28-1.05.54-2.07.79-3.06.25-1 .47-1.93.66-2.81h2.98c.19.88.41 1.81.64 2.81q.345 1.485.75 3.06c.405 1.575.55 2.1.86 3.14.31 1.05.62 2.06.94 3.05.28-.85.57-1.8.87-2.82.3-1.03.6-2.08.89-3.16s.56-2.14.82-3.17c.26-1.04.48-2 .68-2.9h4.01c-.45 1.65-.91 3.26-1.38 4.84s-.94 3.09-1.41 4.52-.94 2.78-1.41 4.04-.93 2.38-1.38 3.37h-3.15c-.56-1.58-1.13-3.27-1.71-5.05a88 88 0 0 1-1.62-5.5Zm29.85 2.15c0 1.33-.19 2.53-.58 3.62-.38 1.09-.93 2.02-1.64 2.79s-1.56 1.37-2.55 1.8-2.09.64-3.29.64-2.29-.21-3.27-.64-1.83-1.03-2.53-1.8-1.26-1.7-1.65-2.79c-.4-1.09-.59-2.3-.59-3.62s.2-2.53.59-3.61c.4-1.08.95-2 1.67-2.77s1.57-1.36 2.55-1.78 2.06-.62 3.24-.62 2.26.21 3.26.62 1.84 1.01 2.55 1.78 1.26 1.7 1.65 2.77c.4 1.08.59 2.28.59 3.61m-3.98 0c0-1.67-.36-2.99-1.07-3.96s-1.72-1.46-3-1.46-2.28.49-3 1.46-1.07 2.29-1.07 3.96.36 3.03 1.07 4.01q1.08 1.47 3 1.47c1.92 0 2.28-.49 3-1.47s1.07-2.32 1.07-4.01m17.54-4.87c-.32-.11-.76-.22-1.33-.34s-1.22-.18-1.97-.18c-.43 0-.88.04-1.36.13-.48.08-.82.16-1.01.22v13.44h-3.88v-15.97c.75-.28 1.68-.54 2.81-.79 1.12-.25 2.37-.37 3.74-.37.26 0 .56.02.9.05s.68.08 1.03.13c.34.05.67.12.99.19.32.08.58.14.77.21l-.67 3.27Zm7.25 3.05c.49-.51 1.02-1.06 1.57-1.65.56-.59 1.1-1.18 1.64-1.76.53-.59 1.04-1.15 1.52-1.7.48-.54.89-1.02 1.23-1.43H239c-1.07 1.2-2.19 2.44-3.38 3.72q-1.77 1.92-3.57 3.75c.64.54 1.31 1.18 2.02 1.94s1.39 1.57 2.05 2.42c.66.86 1.28 1.71 1.86 2.57s1.06 1.65 1.44 2.37h-4.49c-.38-.66-.83-1.36-1.33-2.08-.5-.73-1.04-1.43-1.62-2.12-.58-.68-1.17-1.33-1.76-1.94-.6-.61-1.19-1.13-1.76-1.56v7.7h-3.88V93.12l3.88-.64v14.66Zm25.59-11.45c0 .73-.24 1.3-.71 1.73s-1.03.64-1.67.64-1.23-.21-1.7-.64-.71-1-.71-1.73.23-1.34.71-1.76c.47-.43 1.04-.64 1.7-.64s1.2.21 1.67.64.71 1.02.71 1.76m-.41 21.68h-3.88V100.6h3.88zm4.94-16.23c.75-.21 1.72-.42 2.92-.61s2.52-.29 3.98-.29c1.37 0 2.51.19 3.43.56.92.38 1.65.9 2.2 1.57.54.67.93 1.49 1.15 2.44s.34 1.99.34 3.13v9.43h-3.88v-8.82c0-.9-.06-1.66-.18-2.29s-.31-1.14-.58-1.54-.63-.68-1.09-.87q-.69-.27-1.68-.27c-.49 0-1.01.03-1.54.1-.53.06-.93.12-1.19.16v13.53h-3.88zm18.57-4.97 3.88-.64v5.07h5.96v3.24h-5.96v6.83c0 1.35.21 2.31.64 2.89s1.16.87 2.18.87c.71 0 1.33-.08 1.88-.22s.98-.29 1.3-.42l.64 3.08c-.45.19-1.04.39-1.76.59-.73.2-1.58.3-2.57.3q-1.8 0-3-.48c-.8-.32-1.44-.79-1.91-1.39-.47-.61-.8-1.35-.99-2.21s-.29-1.85-.29-2.97V96.18Zm12.38 12.89c0-1.48.22-2.77.66-3.88s1.02-2.04 1.75-2.77a7.3 7.3 0 0 1 2.5-1.67c.94-.37 1.9-.56 2.89-.56 2.31 0 4.11.72 5.4 2.15s1.94 3.57 1.94 6.42c0 .21 0 .45-.02.72s-.03.51-.05.72h-11.06c.11 1.35.58 2.39 1.43 3.13.84.74 2.07 1.11 3.67 1.11.94 0 1.8-.09 2.58-.26s1.4-.35 1.84-.54l.51 3.17c-.21.11-.51.22-.88.34-.38.12-.8.22-1.28.32q-.72.15-1.56.24c-.56.06-1.12.1-1.7.1-1.48 0-2.76-.22-3.85-.66s-1.99-1.05-2.69-1.83c-.71-.78-1.23-1.7-1.57-2.76q-.51-1.59-.51-3.48Zm11.25-1.73c0-.53-.08-1.04-.22-1.52-.15-.48-.37-.9-.66-1.25s-.64-.63-1.06-.83-.91-.3-1.49-.3-1.12.11-1.57.34c-.45.22-.83.52-1.14.88s-.55.78-.72 1.25-.29.95-.35 1.44h7.22Zm17.55-3.24c-.32-.11-.77-.22-1.33-.34-.57-.12-1.22-.18-1.97-.18-.43 0-.88.04-1.36.13-.48.08-.82.16-1.01.22v13.44h-3.88v-15.97c.75-.28 1.68-.54 2.81-.79 1.12-.25 2.37-.37 3.74-.37.26 0 .56.02.9.05s.68.08 1.03.13c.34.05.67.12.99.19.32.08.58.14.77.21l-.67 3.27Zm10.19-11.61q1.35 0 2.37.24c.68.16 1.2.3 1.54.43l-.74 3.21c-.36-.17-.79-.31-1.27-.42s-1-.16-1.56-.16c-.62 0-1.14.09-1.57.27s-.77.43-1.03.75q-.39.48-.54 1.17c-.11.46-.16.96-.16 1.49v1.12h6.09v3.24h-6.09v13.53h-3.88V99.39c0-2.16.57-3.85 1.7-5.08s2.84-1.84 5.13-1.84Zm11.58 7.7q1.92 0 3.24.48t2.1 1.35c.52.58.9 1.28 1.12 2.1s.34 1.73.34 2.71v10.17c-.6.13-1.5.28-2.71.46s-2.57.27-4.09.27c-1 0-1.92-.1-2.76-.29s-1.54-.5-2.13-.93-1.05-.98-1.38-1.67c-.33-.68-.5-1.53-.5-2.53s.19-1.77.56-2.44c.37-.66.88-1.2 1.52-1.62s1.38-.72 2.23-.9c.84-.18 1.73-.27 2.65-.27.43 0 .88.03 1.35.08s.97.14 1.51.27v-.64c0-.45-.05-.88-.16-1.28-.11-.41-.29-.76-.56-1.08-.27-.31-.62-.55-1.06-.72s-.99-.26-1.65-.26c-.9 0-1.72.06-2.47.19s-1.36.28-1.83.45l-.48-3.14c.49-.17 1.21-.34 2.15-.51s1.95-.26 3.01-.26Zm.32 14.46c1.2 0 2.11-.06 2.73-.19v-4.3a7 7 0 0 0-.93-.19c-.41-.06-.86-.1-1.35-.1-.43 0-.86.03-1.3.1-.44.06-.83.18-1.19.35s-.64.41-.85.72-.32.7-.32 1.17c0 .92.29 1.55.87 1.91.58.35 1.36.53 2.34.53m10.3-5.64c0-1.24.19-2.4.58-3.48.38-1.08.93-2.01 1.65-2.81q1.08-1.185 2.61-1.86c1.03-.45 2.18-.67 3.46-.67 1.58 0 3.08.29 4.49.87l-.83 3.17c-.45-.19-.96-.35-1.52-.48-.57-.13-1.17-.19-1.81-.19-1.52 0-2.67.48-3.46 1.43s-1.19 2.29-1.19 4.02.37 2.99 1.12 3.96 2.01 1.46 3.78 1.46c.66 0 1.32-.06 1.96-.19a9.6 9.6 0 0 0 1.67-.48l.54 3.21c-.43.21-1.07.41-1.94.58s-1.76.26-2.68.26c-1.43 0-2.68-.22-3.74-.66s-1.94-1.05-2.63-1.83c-.7-.78-1.21-1.71-1.56-2.79q-.51-1.62-.51-3.51Zm15.13.06c0-1.48.22-2.77.66-3.88s1.02-2.04 1.75-2.77a7.3 7.3 0 0 1 2.5-1.67c.94-.37 1.9-.56 2.89-.56 2.31 0 4.11.72 5.4 2.15s1.94 3.57 1.94 6.42c0 .21 0 .45-.02.72s-.03.51-.05.72h-11.06c.11 1.35.58 2.39 1.43 3.13.84.74 2.07 1.11 3.67 1.11.94 0 1.8-.09 2.58-.26s1.4-.35 1.84-.54l.51 3.17c-.21.11-.51.22-.88.34-.38.12-.8.22-1.28.32q-.72.15-1.56.24c-.56.06-1.12.1-1.7.1-1.48 0-2.76-.22-3.85-.66s-1.99-1.05-2.69-1.83c-.71-.78-1.23-1.7-1.57-2.76q-.51-1.59-.51-3.48Zm11.26-1.73c0-.53-.08-1.04-.22-1.52-.15-.48-.37-.9-.66-1.25s-.64-.63-1.06-.83-.91-.3-1.49-.3-1.12.11-1.57.34c-.45.22-.83.52-1.14.88s-.55.78-.72 1.25-.29.95-.35 1.44h7.22ZM89.95 146.26c0 2.63.4 5.1 1.19 7.41s1.89 4.42 3.3 6.32l-2.73 1.8c-1.73-2.07-3.1-4.43-4.11-7.07s-1.51-5.46-1.51-8.45.5-5.81 1.51-8.45 2.37-5 4.11-7.07l2.73 1.8a23.7 23.7 0 0 0-3.3 6.33c-.79 2.3-1.19 4.76-1.19 7.39Zm11.42-12.09c0 .73-.24 1.3-.71 1.73s-1.03.64-1.67.64-1.23-.21-1.7-.64-.71-1-.71-1.73.23-1.34.71-1.76c.47-.43 1.04-.64 1.7-.64s1.2.21 1.67.64.71 1.02.71 1.76m-.42 21.68h-3.88v-16.77h3.88zm4.94-16.23c.75-.21 1.72-.42 2.92-.61s2.52-.29 3.98-.29c1.37 0 2.51.19 3.43.56.92.38 1.65.9 2.2 1.57.54.67.93 1.49 1.15 2.44s.34 1.99.34 3.13v9.43h-3.88v-8.82c0-.9-.06-1.66-.18-2.29s-.31-1.14-.58-1.54-.63-.68-1.09-.87q-.69-.27-1.68-.27c-.49 0-1.01.03-1.54.1-.53.06-.93.12-1.19.16v13.53h-3.88zm26.04-4.97 3.88-.64v5.07h5.97v3.24h-5.97v6.83c0 1.35.21 2.31.64 2.89s1.15.87 2.18.87c.71 0 1.33-.08 1.88-.22.54-.15.98-.29 1.3-.42l.64 3.08c-.45.19-1.04.39-1.76.59-.73.2-1.58.3-2.57.3q-1.8 0-3-.48c-.8-.32-1.44-.79-1.91-1.39-.47-.61-.8-1.35-.99-2.21s-.29-1.85-.29-2.97v-14.53Zm13.6 21.2V131.6l3.88-.64v8.31c.43-.15.92-.28 1.49-.38a9 9 0 0 1 1.68-.16c1.35 0 2.46.19 3.35.56.89.38 1.6.9 2.13 1.57s.91 1.48 1.14 2.42c.22.94.34 1.99.34 3.14v9.43h-3.88v-8.82c0-.9-.06-1.66-.18-2.29s-.31-1.14-.58-1.54-.63-.68-1.07-.87c-.45-.18-1-.27-1.67-.27-.51 0-1.04.05-1.57.16s-.93.2-1.19.29v13.34h-3.88Zm23-21.68c0 .73-.24 1.3-.71 1.73s-1.03.64-1.67.64-1.23-.21-1.7-.64-.71-1-.71-1.73.23-1.34.71-1.76c.47-.43 1.04-.64 1.7-.64s1.2.21 1.67.64.71 1.02.71 1.76m-.42 21.68h-3.88v-16.77h3.88zm9.14-2.79c1.03 0 1.77-.12 2.25-.37.47-.25.71-.67.71-1.27q0-.84-.75-1.38c-.75-.54-1.33-.76-2.49-1.19-.71-.26-1.35-.53-1.94-.82s-1.1-.62-1.52-1.01-.76-.85-1.01-1.4c-.25-.54-.37-1.21-.37-2 0-1.54.57-2.75 1.7-3.64s2.67-1.33 4.62-1.33q1.47 0 2.82.27c1.35.27 1.57.36 2.02.53l-.71 3.14c-.43-.19-.97-.37-1.64-.53q-.99-.24-2.31-.24c-.79 0-1.43.13-1.92.4s-.74.68-.74 1.23c0 .28.05.52.14.74s.26.41.5.59.55.36.93.54.85.37 1.41.56c.92.34 1.7.68 2.34 1.01s1.17.71 1.59 1.12.72.89.91 1.43.29 1.18.29 1.92c0 1.6-.59 2.82-1.78 3.64s-2.88 1.23-5.08 1.23c-1.48 0-2.66-.12-3.56-.37s-1.53-.44-1.89-.59l.67-3.24c.58.24 1.27.46 2.07.67s1.72.32 2.74.32Zm22.26-18.89c0 .73-.24 1.3-.71 1.73s-1.03.64-1.67.64-1.23-.21-1.7-.64-.71-1-.71-1.73.23-1.34.71-1.76c.47-.43 1.04-.64 1.7-.64s1.2.21 1.67.64.71 1.02.71 1.76m-.42 21.68h-3.88v-16.77h3.88zm4.94-16.23c.75-.21 1.72-.42 2.92-.61s2.52-.29 3.98-.29c1.37 0 2.51.19 3.43.56.92.38 1.65.9 2.2 1.57.54.67.93 1.49 1.15 2.44s.34 1.99.34 3.13v9.43h-3.88v-8.82c0-.9-.06-1.66-.18-2.29s-.31-1.14-.58-1.54-.63-.68-1.09-.87q-.69-.27-1.68-.27c-.49 0-1.01.03-1.54.1-.53.06-.93.12-1.19.16v13.53h-3.88zm22.96 13.44c1.03 0 1.77-.12 2.25-.37.47-.25.71-.67.71-1.27q0-.84-.75-1.38c-.75-.54-1.33-.76-2.49-1.19-.71-.26-1.35-.53-1.94-.82s-1.1-.62-1.52-1.01-.76-.85-1.01-1.4c-.25-.54-.37-1.21-.37-2 0-1.54.57-2.75 1.7-3.64s2.67-1.33 4.62-1.33q1.47 0 2.82.27c1.35.27 1.57.36 2.02.53l-.71 3.14c-.43-.19-.97-.37-1.64-.53q-.99-.24-2.31-.24c-.79 0-1.43.13-1.92.4s-.74.68-.74 1.23c0 .28.05.52.14.74s.26.41.5.59.55.36.93.54.85.37 1.41.56c.92.34 1.7.68 2.34 1.01s1.17.71 1.59 1.12.72.89.91 1.43.29 1.18.29 1.92c0 1.6-.59 2.82-1.78 3.64s-2.88 1.23-5.08 1.23c-1.48 0-2.66-.12-3.56-.37s-1.53-.44-1.89-.59l.67-3.24c.58.24 1.27.46 2.07.67s1.72.32 2.74.32Zm10.26-18.41 3.88-.64v5.07h5.97v3.24h-5.97v6.83c0 1.35.21 2.31.64 2.89s1.15.87 2.18.87c.71 0 1.33-.08 1.88-.22.54-.15.98-.29 1.3-.42l.64 3.08c-.45.19-1.04.39-1.76.59-.73.2-1.58.3-2.57.3q-1.8 0-3-.48c-.8-.32-1.44-.79-1.91-1.39-.47-.61-.8-1.35-.99-2.21s-.29-1.85-.29-2.97v-14.53Zm19.18 4.01q1.92 0 3.24.48t2.1 1.35c.52.58.9 1.28 1.12 2.1s.34 1.73.34 2.71v10.17c-.6.13-1.5.28-2.71.46s-2.57.27-4.09.27c-1 0-1.92-.1-2.76-.29q-1.245-.285-2.13-.93c-.59-.43-1.05-.98-1.38-1.67-.33-.68-.5-1.53-.5-2.53s.19-1.77.56-2.44c.37-.66.88-1.2 1.52-1.62s1.38-.72 2.23-.9c.84-.18 1.73-.27 2.65-.27.43 0 .88.03 1.35.08s.97.14 1.51.27v-.64c0-.45-.05-.88-.16-1.28-.11-.41-.29-.76-.56-1.08-.27-.31-.62-.55-1.06-.72s-.99-.26-1.65-.26c-.9 0-1.72.06-2.47.19q-1.125.195-1.83.45l-.48-3.14c.49-.17 1.21-.34 2.15-.51s1.95-.26 3.01-.26Zm.32 14.46c1.2 0 2.11-.06 2.73-.19v-4.3a9.2 9.2 0 0 0-2.28-.29c-.43 0-.86.03-1.3.1-.44.06-.83.18-1.19.35-.35.17-.64.41-.85.72s-.32.7-.32 1.17c0 .92.29 1.55.87 1.91.58.35 1.36.53 2.34.53m11.23-13.5c.75-.21 1.72-.42 2.92-.61s2.52-.29 3.98-.29c1.37 0 2.51.19 3.43.56.92.38 1.65.9 2.2 1.57s.93 1.49 1.16 2.44.34 1.99.34 3.13v9.43h-3.88v-8.82c0-.9-.06-1.66-.18-2.29s-.31-1.14-.58-1.54-.63-.68-1.09-.87q-.69-.27-1.68-.27c-.49 0-1.01.03-1.54.1-.53.06-.93.12-1.19.16v13.53h-3.88v-16.23Zm17.83 7.86c0-1.24.19-2.4.58-3.48.38-1.08.93-2.01 1.65-2.81q1.08-1.185 2.61-1.86c1.03-.45 2.18-.67 3.46-.67 1.58 0 3.08.29 4.49.87l-.83 3.17c-.45-.19-.96-.35-1.52-.48-.57-.13-1.17-.19-1.81-.19-1.52 0-2.67.48-3.46 1.43s-1.19 2.29-1.19 4.02.37 2.99 1.12 3.96 2.01 1.46 3.78 1.46c.66 0 1.32-.06 1.96-.19a9.6 9.6 0 0 0 1.67-.48l.54 3.21c-.43.21-1.07.41-1.94.58s-1.76.26-2.68.26c-1.43 0-2.68-.22-3.74-.66s-1.94-1.05-2.63-1.83c-.7-.78-1.21-1.71-1.56-2.79q-.51-1.62-.51-3.51Zm15.14.06c0-1.48.22-2.77.66-3.88s1.02-2.04 1.75-2.77a7.3 7.3 0 0 1 2.5-1.67c.94-.37 1.9-.56 2.89-.56 2.31 0 4.11.72 5.4 2.15s1.94 3.57 1.94 6.42c0 .21 0 .45-.02.72s-.03.51-.05.72h-11.06c.11 1.35.58 2.39 1.43 3.13.84.74 2.07 1.11 3.67 1.11.94 0 1.8-.09 2.58-.26s1.4-.35 1.84-.54l.51 3.17c-.21.11-.51.22-.88.34-.38.12-.8.22-1.28.32q-.72.15-1.56.24c-.56.06-1.12.1-1.7.1-1.48 0-2.76-.22-3.85-.66s-1.99-1.05-2.69-1.83c-.71-.78-1.23-1.7-1.57-2.76q-.51-1.59-.51-3.48Zm11.26-1.73c0-.53-.08-1.04-.22-1.52-.15-.48-.37-.9-.66-1.25s-.64-.63-1.06-.83-.91-.3-1.49-.3-1.12.11-1.57.34c-.45.22-.83.52-1.14.88s-.55.78-.72 1.25-.29.95-.35 1.44h7.22Zm11.99 5.78c.04.36.06.63.06.8v.51c0 1.33-.21 2.69-.63 4.1s-1 2.75-1.75 4.01l-3.05-.83c.51-1.24.86-2.45 1.04-3.64s.27-2.23.27-3.13c0-.26 0-.58-.02-.96-.01-.38-.03-.67-.05-.87h4.11Zm12.25-17.96h4.04v22.23h-4.04zm9.17 5.99c.75-.21 1.72-.42 2.92-.61s2.52-.29 3.98-.29c1.37 0 2.51.19 3.43.56.92.38 1.65.9 2.2 1.57s.93 1.49 1.16 2.44.34 1.99.34 3.13v9.43h-3.88v-8.82c0-.9-.06-1.66-.18-2.29s-.31-1.14-.58-1.54-.63-.68-1.09-.87q-.69-.27-1.68-.27c-.49 0-1 .03-1.54.1-.54.06-.93.12-1.19.16v13.53h-3.88v-16.23Zm18.57-4.97 3.88-.64v5.07h5.96v3.24h-5.96v6.83c0 1.35.21 2.31.64 2.89s1.16.87 2.18.87c.71 0 1.33-.08 1.88-.22s.98-.29 1.3-.42l.64 3.08c-.45.19-1.04.39-1.76.59-.73.2-1.58.3-2.57.3q-1.8 0-3-.48c-.8-.32-1.44-.79-1.91-1.39-.47-.61-.8-1.35-.99-2.21s-.29-1.85-.29-2.97v-14.53Zm12.38 12.89c0-1.48.22-2.77.66-3.88s1.02-2.04 1.75-2.77a7.3 7.3 0 0 1 2.5-1.67c.94-.37 1.9-.56 2.89-.56 2.31 0 4.11.72 5.4 2.15s1.94 3.57 1.94 6.42c0 .21 0 .45-.02.72s-.03.51-.05.72h-11.06c.11 1.35.58 2.39 1.43 3.13.84.74 2.07 1.11 3.67 1.11.94 0 1.8-.09 2.58-.26s1.4-.35 1.84-.54l.51 3.17c-.21.11-.51.22-.88.34-.38.12-.8.22-1.28.32q-.72.15-1.56.24c-.56.06-1.12.1-1.7.1-1.48 0-2.76-.22-3.85-.66s-1.99-1.05-2.69-1.83c-.71-.78-1.23-1.7-1.57-2.76q-.51-1.59-.51-3.48Zm11.26-1.73c0-.53-.08-1.04-.22-1.52-.15-.48-.37-.9-.66-1.25s-.64-.63-1.06-.83-.91-.3-1.49-.3-1.12.11-1.57.34c-.45.22-.83.52-1.14.88s-.55.78-.72 1.25-.29.95-.35 1.44h7.22Zm13.82 10.36c-1.15-.02-2.11-.15-2.87-.38s-1.36-.57-1.81-1.01-.76-.98-.95-1.64-.27-1.4-.27-2.23V131.6l3.88-.64v19.21c0 .47.04.87.11 1.19s.21.59.4.82.45.4.79.51c.33.12.75.21 1.27.27l-.54 3.21Zm5.84-9.91c0-2.63-.4-5.09-1.19-7.39a23.6 23.6 0 0 0-3.3-6.33l2.73-1.8c1.73 2.07 3.1 4.43 4.11 7.07 1 2.64 1.51 5.46 1.51 8.45s-.5 5.81-1.51 8.45-2.37 5-4.11 7.07l-2.73-1.8c1.41-1.9 2.51-4.01 3.3-6.32s1.19-4.78 1.19-7.41Z" class="cls-5"/><g id="Artwork_35" data-name="Artwork 35"><path id="cloud" d="M230.23 487.7c-.65-3.4-3.68-5.98-7.3-5.98h-1.28c-.98-4.87-5.25-8.43-10.27-8.43s-9.32 3.58-10.29 8.47c-3.73.4-6.64 3.53-6.64 7.33 0 4.07 3.34 7.38 7.45 7.38h11c.58-.02 1.05-.51 1.02-1.1-.02-.56-.47-1.01-1.02-1.02h-11c-2.94 0-5.33-2.36-5.33-5.26s2.39-5.26 5.33-5.26c1.08 0 2.15.33 3.03.96.42.3 1 .26 1.36-.1.41-.4.41-1.06 0-1.48s-.08-.08-.13-.12a7.4 7.4 0 0 0-2.94-1.24c.9-3.73 4.22-6.43 8.13-6.43 4.13 0 7.62 3.02 8.26 7.09-.33.17-.65.36-.95.58-.47.34-.58 1-.25 1.47.03.05.07.1.12.14.36.36.94.4 1.36.1a5.17 5.17 0 0 1 3.03-.96c2.59 0 4.76 1.84 5.23 4.26.1.49.53.86 1.04.86.58 0 1.05-.46 1.06-1.04q.015-.105 0-.21Z" class="cls-5"/><path id="numbers" d="M217.11 494.69h-.91v-2.87l.02-.44c-.1.1-.21.2-.32.29l-.49.4-.44-.54 1.38-1.09h.74v4.25Zm4.17-2.1c0 .75-.12 1.3-.37 1.66s-.62.54-1.13.54-.86-.19-1.12-.56-.38-.92-.38-1.64.12-1.31.36-1.67.62-.54 1.13-.54.86.19 1.12.56c.27.38.39.93.39 1.65m-2.09 0c0 .52.05.9.14 1.13s.25.34.46.34.36-.12.46-.34.14-.6.14-1.13-.05-.91-.14-1.13-.25-.34-.45-.34-.36.12-.46.34-.14.6-.14 1.13Zm-2.08 8.61h-.91v-2.87l.02-.44c-.1.1-.21.2-.32.29l-.49.4-.44-.54 1.38-1.09h.74v4.25Zm3.43 0h-.91v-2.87l.02-.44c-.1.1-.21.2-.32.29l-.49.4-.44-.54 1.38-1.09h.74v4.25h.01Zm3.43 0h-.91v-2.87l.02-.44c-.1.1-.21.2-.32.29l-.49.4-.44-.54 1.38-1.09h.74v4.25Zm4.16-2.12c0 .75-.12 1.3-.37 1.66s-.62.54-1.13.54-.86-.19-1.12-.56-.38-.92-.38-1.65.12-1.31.36-1.67.62-.54 1.13-.54.86.19 1.12.56q.405.555.39 1.65Zm-2.1 0c0 .52.05.9.14 1.13s.24.34.46.34.36-.12.46-.34.14-.6.14-1.13-.05-.91-.14-1.13-.25-.34-.45-.34-.36.12-.46.34-.14.6-.14 1.13Zm4.05 5.14c0 .54-.09.95-.27 1.21s-.45.39-.82.39-.63-.14-.81-.4-.27-.67-.27-1.19.09-.95.27-1.21.45-.39.82-.39.63.14.82.41.27.67.27 1.19Zm-1.52 0c0 .38.03.66.1.82.04.15.18.25.34.25s.26-.08.33-.25.1-.44.1-.82-.03-.66-.1-.82-.18-.25-.33-.25-.27.08-.33.25-.1.44-.1.82Zm3.48 1.51h-.68v-2.08l.02-.32c-.11.11-.19.18-.23.21l-.37.29-.33-.39 1.03-.79h.56v3.09Zm-15.11-1.48c0 .54-.09.93-.26 1.18s-.45.38-.81.38-.62-.13-.8-.4-.27-.65-.27-1.17.09-.93.26-1.19.44-.38.8-.38.62.13.8.4.27.66.27 1.17Zm-1.49 0c0 .37.03.64.1.8.04.14.18.25.33.24.15 0 .26-.08.32-.25s.1-.43.1-.8-.03-.64-.1-.8-.17-.25-.32-.25-.26.08-.32.25-.11.43-.1.81Zm3.43 1.48h-.68v-2.03l.02-.31c-.12.11-.19.18-.23.21l-.37.28-.32-.39 1.03-.77h.56v3.02Zm2.94-1.48c0 .54-.09.93-.26 1.18s-.45.38-.81.38-.62-.13-.8-.4-.27-.65-.27-1.17.09-.93.26-1.19.44-.38.8-.38.62.13.8.4.27.66.27 1.17Zm-1.49 0c0 .37.03.64.1.8.04.14.18.25.33.24.16 0 .26-.08.32-.25s.1-.43.1-.8-.03-.64-.1-.8-.18-.25-.32-.25-.26.08-.32.25-.11.43-.1.81Zm3.36 1.48h-.62v-2.03l.02-.31c-.11.11-.18.18-.22.21l-.33.28-.3-.39.94-.77h.51v3.02Zm-7.39 2.41c0 .38-.06.67-.19.85s-.32.27-.58.27a.64.64 0 0 1-.57-.29c-.13-.19-.19-.47-.19-.84 0-.39.06-.67.19-.86s.32-.27.58-.27c.23-.01.45.1.58.29.12.2.19.48.19.85Zm-1.08 0c0 .27.02.46.07.58.03.13.17.2.3.17.08-.02.15-.08.17-.17.05-.12.07-.31.07-.58 0-.2-.01-.4-.08-.59a.25.25 0 0 0-.29-.17h-.01c-.08.02-.15.08-.17.17-.05.2-.07.39-.06.6Zm2.44 1.09h-.49v-1.48l.01-.23c-.08.08-.14.13-.16.15l-.27.2-.24-.28.74-.56h.39v2.2Zm4.73 1.64c0 .38-.06.67-.19.85s-.32.27-.58.27a.64.64 0 0 1-.57-.29c-.13-.19-.19-.47-.19-.84s.06-.67.19-.86.32-.27.58-.27c.23-.01.45.1.58.29.14.2.2.48.2.85Zm-1.07.01c0 .27.02.46.07.58.03.12.16.2.29.17h.01c.08-.02.14-.08.16-.16.05-.12.07-.31.07-.58 0-.2-.01-.4-.08-.58-.03-.1-.12-.18-.23-.18s-.21.07-.23.18c-.04.11-.06.3-.06.58Zm2.44 1.09h-.48v-1.48l.01-.23c-.08.08-.13.13-.16.15l-.26.21-.23-.28.73-.56h.4v2.2Zm3.66-4.26c0 .54-.09.93-.26 1.18s-.45.38-.81.38-.62-.13-.8-.4-.27-.65-.27-1.17.09-.93.26-1.19.44-.38.8-.38.62.13.8.4.27.66.27 1.17Zm-1.49 0c0 .38.03.64.1.8.04.14.18.25.33.24.15 0 .26-.08.32-.25s.1-.43.1-.8-.03-.64-.1-.81-.18-.25-.33-.25-.26.08-.32.25-.1.45-.1.82m3.45 1.52h-.68v-2.03l.02-.31c-.12.11-.19.18-.23.21l-.37.28-.32-.39 1.03-.77h.56v3.02Zm2.92-1.52c0 .54-.09.93-.26 1.18s-.45.38-.81.38-.62-.13-.8-.4-.27-.65-.27-1.17.09-.93.26-1.19.44-.38.8-.38.62.13.8.4.27.66.27 1.17Zm-1.49 0c0 .38.03.64.1.8.04.14.18.25.33.24.15 0 .26-.08.32-.25s.1-.43.1-.8-.03-.64-.1-.81-.18-.25-.32-.25-.26.08-.32.25-.1.45-.1.82Zm-3.2-13.02h-.9v-2.87l.02-.44c-.1.1-.2.2-.31.29l-.49.4-.44-.54 1.37-1.09h.74v4.25Zm4.17-2.1c0 .75-.12 1.3-.37 1.66s-.62.54-1.13.54-.86-.19-1.12-.56-.38-.92-.38-1.64.12-1.31.36-1.67.62-.54 1.13-.54.86.19 1.12.56.38.93.39 1.65m-2.1 0c0 .52.05.9.14 1.13s.25.34.46.34.36-.12.46-.34.14-.6.14-1.13-.05-.91-.14-1.13-.25-.34-.45-.34-.36.12-.46.34-.14.6-.14 1.13Z" class="cls-5"/></g></g></svg>